<svg width="220" height="246" viewBox="0 0 220 246" fill="none" xmlns="http://www.w3.org/2000/svg">
<path d="M207.013 19.5036H206.924L110 2.11576L13.076 19.4938C13.0118 19.5065 12.9457 19.506 12.8817 19.4923C12.8177 19.4787 12.7571 19.4522 12.7037 19.4144C12.6503 19.3766 12.6051 19.3284 12.5709 19.2726C12.5367 19.2168 12.5141 19.1546 12.5047 19.0898C12.4817 18.9619 12.5102 18.83 12.584 18.723C12.6578 18.6159 12.7709 18.5424 12.8987 18.5185L109.911 1.13062H110.089L207.101 18.5185C207.229 18.5424 207.342 18.6159 207.416 18.723C207.49 18.83 207.518 18.9619 207.495 19.0898C207.479 19.2056 207.42 19.3113 207.332 19.3874C207.243 19.4635 207.13 19.5048 207.013 19.5036Z" fill="#D1D3D4"/>
<path d="M213.208 28.8921H6.80157V235.33H213.208V28.8921Z" fill="white"/>
<path d="M213.198 235.773H6.80158C6.74171 235.774 6.68218 235.764 6.6266 235.741C6.57102 235.719 6.52053 235.686 6.47819 235.643C6.43584 235.601 6.40251 235.55 6.38022 235.495C6.35793 235.439 6.34712 235.38 6.34847 235.32V28.8921C6.34712 28.8322 6.35793 28.7727 6.38022 28.7171C6.40251 28.6615 6.43584 28.611 6.47819 28.5686C6.52053 28.5263 6.57102 28.4929 6.6266 28.4706C6.68218 28.4484 6.74171 28.4375 6.80158 28.4389H213.198C213.258 28.4375 213.318 28.4484 213.373 28.4706C213.429 28.4929 213.48 28.5263 213.522 28.5686C213.564 28.611 213.598 28.6615 213.62 28.7171C213.642 28.7727 213.653 28.8322 213.652 28.8921V235.32C213.653 235.38 213.642 235.439 213.62 235.495C213.598 235.55 213.564 235.601 213.522 235.643C213.48 235.686 213.429 235.719 213.373 235.741C213.318 235.764 213.258 235.774 213.198 235.773ZM7.24482 234.876H212.755V29.3354H7.24482V234.876Z" fill="#231F20"/>
<path d="M218.714 19.011H1.28558V28.8921H218.714V19.011Z" fill="white"/>
<path d="M218.714 29.3354H1.28556C1.16708 29.3354 1.05329 29.289 0.968599 29.2061C0.883904 29.1233 0.835034 29.0105 0.832458 28.892V19.0406C0.832458 18.9204 0.8802 18.8051 0.965173 18.7201C1.05015 18.6351 1.16539 18.5874 1.28556 18.5874H218.714C218.835 18.5874 218.95 18.6351 219.035 18.7201C219.12 18.8051 219.168 18.9204 219.168 19.0406V28.892C219.165 29.0105 219.116 29.1233 219.031 29.2061C218.947 29.289 218.833 29.3354 218.714 29.3354ZM1.73866 28.4389H218.261V19.4543H1.73866V28.4389Z" fill="#231F20"/>
<path d="M218.714 235.32H1.28558V245.201H218.714V235.32Z" fill="white"/>
<path d="M218.714 245.654H1.28556C1.16539 245.654 1.05015 245.606 0.965173 245.521C0.8802 245.436 0.832458 245.321 0.832458 245.201V235.349C0.835034 235.231 0.883904 235.118 0.968599 235.035C1.05329 234.952 1.16708 234.906 1.28556 234.906H218.714C218.833 234.906 218.947 234.952 219.031 235.035C219.116 235.118 219.165 235.231 219.168 235.349V245.201C219.168 245.321 219.12 245.436 219.035 245.521C218.95 245.606 218.835 245.654 218.714 245.654ZM1.73866 244.807H218.261V235.822H1.73866V244.807Z" fill="#231F20"/>
<path d="M110 6.3519C111.73 6.3519 113.132 4.94931 113.132 3.21913C113.132 1.48895 111.73 0.0863647 110 0.0863647C108.27 0.0863647 106.868 1.48895 106.868 3.21913C106.868 4.94931 108.27 6.3519 110 6.3519Z" fill="#D1D3D4"/>
<path d="M135.315 62.6137L136.221 64.978L137.58 62.5546H137.816C137.895 63.323 138.358 63.3919 138.959 63.3033C139.816 63.1752 140.683 63.1161 141.55 62.9979C141.764 62.9678 141.982 62.9948 142.183 63.0761C142.384 63.1573 142.559 63.2901 142.692 63.4609C144.111 64.8795 144.091 66.6035 143.884 68.3866C143.825 68.9383 143.717 69.4801 143.608 70.1894L141.451 68.5541C141.382 68.5541 141.293 68.426 141.293 68.3768C141.52 67.0271 140.003 66.9286 139.717 65.9435L139.422 66.0026C139.422 66.2784 139.314 66.6232 139.422 66.8104C139.977 67.6213 140.572 68.4038 141.205 69.155C141.997 70.1058 142.553 71.2296 142.83 72.4356C142.889 72.672 143.155 72.8592 143.352 73.0464C143.591 73.225 143.815 73.4227 144.022 73.6375C144.839 74.7408 145.608 75.8836 146.435 76.9771C146.773 77.3495 147.033 77.7849 147.202 78.2582C147.371 78.7315 147.445 79.2336 147.42 79.7355C147.469 80.0775 147.636 80.3914 147.893 80.6222C148.233 80.957 148.614 81.2482 149.026 81.4891C149.703 81.9134 150.256 82.5099 150.629 83.2178C151.001 83.9256 151.178 84.7194 151.143 85.5183C151.172 86.4064 151.281 87.29 151.469 88.1585C151.786 89.0407 152.427 89.7695 153.261 90.1978C153.37 90.2855 153.485 90.3645 153.606 90.4342C154.248 90.7486 154.793 91.2319 155.182 91.8324C155.571 92.4329 155.789 93.1279 155.812 93.8428C155.844 94.2889 155.977 94.722 156.2 95.1094C156.424 95.4967 156.732 95.8283 157.103 96.0791C158.125 97.0399 159.292 97.8344 160.56 98.4336C161.003 98.5814 161.328 99.074 161.722 99.4188C162.875 100.345 164.017 101.291 165.199 102.197C165.393 102.313 165.555 102.475 165.672 102.669C165.788 102.863 165.855 103.082 165.867 103.308C165.879 103.534 165.835 103.759 165.739 103.964C165.643 104.169 165.498 104.347 165.318 104.482C165.078 104.799 164.957 105.189 164.973 105.586C164.973 105.684 165.495 105.803 165.761 105.931C166.192 106.086 166.603 106.294 166.982 106.551C167.52 106.956 168.159 107.203 168.829 107.264C169.499 107.324 170.173 107.197 170.775 106.896C171.248 106.758 171.739 106.691 172.232 106.699C172.557 106.64 173.03 106.62 173.217 106.403C173.441 106.013 173.799 105.716 174.224 105.568C174.649 105.419 175.114 105.429 175.532 105.596C175.692 105.616 175.855 105.616 176.015 105.596L176.31 104.66C176.445 104.625 176.584 104.609 176.724 104.61C177.436 104.754 178.173 104.72 178.869 104.51C179.565 104.3 180.199 103.922 180.713 103.409C181.363 102.768 182.132 103.221 182.289 104.108C182.525 106.146 182.202 108.21 181.353 110.078C179.721 114.318 177.745 118.416 175.443 122.333C175.366 122.479 175.27 122.615 175.158 122.737C173.056 124.923 170.808 126.964 168.43 128.845C167.466 129.651 166.605 130.575 165.869 131.594C164.549 133.16 163.19 134.707 162.028 136.391C161.506 137.15 160.127 137.101 160.245 138.273C160.363 139.445 159.683 139.918 159.26 140.667C158.945 141.199 158.629 141.652 158.058 141.356C157.841 142.076 157.595 142.746 157.447 143.425C157.384 143.755 157.411 144.095 157.526 144.41C158.028 145.732 158.24 147.147 158.147 148.558C158.098 150.459 158.334 152.498 160.117 153.878C160.313 154.008 160.462 154.199 160.54 154.421C160.618 154.643 160.622 154.885 160.55 155.109C160.363 156.094 159.959 157.079 160.728 158.005C160.812 158.155 160.833 158.332 160.787 158.498C160.377 160.309 160.32 162.182 160.619 164.015C160.816 165.985 159.477 167.02 158.157 167.955C157.172 168.675 155.871 169.01 154.788 169.66C153.36 170.517 152 171.512 150.621 172.458C149.981 172.891 149.331 173.334 148.73 173.827C148.465 174.129 148.234 174.459 148.041 174.812H147.243C146.972 175.851 147.041 176.948 147.44 177.945C148.305 179.948 148.458 182.187 147.873 184.289C147.813 184.448 147.72 184.593 147.602 184.715C147.483 184.837 147.341 184.933 147.184 184.998C145.775 185.619 144.337 186.181 142.909 186.772C142.506 186.928 142.168 187.217 141.951 187.592C141.734 187.966 141.652 188.403 141.717 188.831C141.804 189.412 141.856 189.997 141.875 190.584C141.859 190.909 141.768 191.227 141.609 191.51C141.333 192.023 140.949 192.495 140.712 193.008C140.328 193.875 139.974 194.673 138.939 194.978C138.654 195.057 138.417 195.461 138.23 195.756C136.636 198.429 134.542 200.77 132.064 202.652C130.497 203.984 128.516 204.729 126.459 204.761C126.174 204.761 125.721 204.761 125.602 204.977C125.11 205.746 124.617 205.391 123.977 205.214C122.678 204.834 121.289 204.907 120.037 205.421C119.478 205.644 118.897 205.809 118.304 205.913C117.437 206.081 116.54 206.1 115.693 206.327C115.382 206.398 115.057 206.384 114.754 206.285C114.45 206.186 114.179 206.006 113.97 205.765C113.176 205.052 112.432 204.285 111.743 203.47C111.583 203.232 111.463 202.969 111.389 202.692L112.876 201.707L110.906 198.337C110.405 197.692 110.135 196.898 110.138 196.081C110.138 195.786 109.882 195.421 109.675 195.096C108.562 193.559 107.409 192.032 106.296 190.486C105.459 189.313 105.538 187.885 105.311 186.545C104.915 184.894 104.733 183.199 104.77 181.501C104.74 181.223 104.631 180.96 104.454 180.743C103.469 179.216 102.484 177.718 101.637 176.162C100.581 174.475 99.6681 172.702 98.9089 170.862C98.3147 169.215 98.2801 167.417 98.8104 165.749C99.1749 164.567 99.4901 163.384 99.8841 162.222C100.064 161.649 100.319 161.102 100.643 160.596C101.05 160.024 101.508 159.49 102.012 159C102.471 158.562 102.765 157.98 102.846 157.35C102.927 156.721 102.789 156.082 102.455 155.543C101.913 154.38 101.135 153.218 101.47 151.888C101.893 150.233 101.105 148.932 100.485 147.592C99.8644 146.253 99.362 144.637 98.6922 143.248C98.2949 142.418 97.7771 141.651 97.1556 140.972C95.3925 139.002 93.4619 137.199 92.2306 134.835C92.046 134.567 91.9471 134.249 91.9471 133.924C91.9471 133.598 92.046 133.28 92.2306 133.012C92.8019 131.968 93.6293 130.737 92.8807 129.348C92.8019 129.2 92.8807 128.934 92.9595 128.727C93.2649 127.436 93.6195 126.146 93.8559 124.786C93.9051 124.461 93.5604 124.057 93.4126 123.722L93.6392 122.737L92.4473 122.993L90.96 121.358C89.4353 121.831 87.8479 122.07 86.2517 122.067C85.8946 122.079 85.541 121.994 85.2287 121.82C84.9164 121.647 84.6571 121.392 84.4787 121.082C84.3895 120.938 84.3137 120.787 84.2521 120.629C84.0059 120.097 83.7892 119.545 83.5035 119.033C83.3541 118.632 83.085 118.286 82.7326 118.043C82.3802 117.8 81.9616 117.671 81.5335 117.674C79.7704 117.674 78.0171 117.674 76.2539 117.674C76.1145 117.682 75.9776 117.715 75.8501 117.772C73.7126 118.708 71.5752 119.634 69.4574 120.619C69.1645 120.802 68.8299 120.907 68.4852 120.924C68.1405 120.941 67.7971 120.87 67.4874 120.718C65.3992 119.654 63.183 119.92 60.9963 120.314C59.7059 120.55 58.455 120.974 57.1745 121.299C56.3861 121.508 55.5484 121.42 54.8203 121.053C53.1104 120.279 51.6132 119.103 50.4568 117.624C49.4857 116.637 48.4237 115.743 47.2851 114.955C46.4478 114.245 45.65 113.497 44.8521 112.748C44.6379 112.578 44.4855 112.343 44.4187 112.078C44.4112 111.231 44.2614 110.392 43.9755 109.595C43.7229 108.966 43.3123 108.413 42.7836 107.99C42.2517 107.497 41.4342 107.27 41.4342 106.295C41.4342 106.078 40.9023 105.871 40.6659 105.615C39.9567 104.827 39.2573 104.01 38.558 103.212C38.3299 103.019 38.1445 102.78 38.0138 102.512C37.883 102.243 37.8097 101.95 37.7986 101.652C37.7875 101.353 37.8387 101.055 37.9492 100.778C38.0596 100.5 38.2267 100.249 38.4398 100.039C38.755 99.6453 38.8535 99.3104 38.4398 98.936C37.2775 97.7637 37.6124 96.7392 38.4398 95.4388C39.7116 93.2182 40.469 90.7404 40.656 88.1881C40.7644 87.3113 40.4295 86.3853 40.9121 85.4691C41.0599 85.1932 40.8333 84.5627 40.5871 84.2475C40.1371 83.6211 39.9291 82.853 40.0015 82.0851C40.0739 81.3173 40.4219 80.6016 40.9811 80.0705C41.4872 79.5983 41.8926 79.0286 42.1729 78.3957C42.7639 77.1741 43.3254 75.9723 44.6945 75.4403C44.9506 75.3418 45.1378 75.0167 45.2855 74.7605C45.7485 73.9626 46.2114 73.1547 46.6153 72.3174C46.9305 71.6869 47.226 71.1352 48.1026 71.3322C48.2799 71.3322 48.5754 71.0761 48.7035 70.8692C49.1664 70.1599 49.6097 69.4407 49.9938 68.7019C50.0957 68.489 50.2567 68.3098 50.4575 68.1858C50.6584 68.0618 50.8906 67.9982 51.1266 68.0024C51.9275 67.9326 52.7214 67.7975 53.5004 67.5985C55.303 67.0665 56.3077 65.51 57.5094 64.249C57.8049 63.9436 57.795 63.2639 57.8147 62.8107C57.8238 62.0521 58.0836 61.3178 58.5535 60.7222C58.9283 60.141 59.2577 59.5317 59.5385 58.8997C59.6456 58.6835 59.8047 58.4974 60.0014 58.3578C60.3996 58.0948 60.8258 57.8767 61.2721 57.7076C63.6862 56.8264 65.7195 55.1341 67.0245 52.9198C67.1151 52.7771 67.2172 52.642 67.3298 52.5159C67.3298 52.5159 67.4283 52.5159 67.4776 52.4469H67.5465C67.9481 53.1268 68.557 53.6601 69.2838 53.9686C70.0106 54.2771 70.8171 54.3446 71.585 54.1611C72.137 54.1736 72.6725 54.3521 73.1216 54.6734C73.2894 54.7944 73.491 54.8595 73.6978 54.8595C73.9047 54.8595 74.1063 54.7944 74.2741 54.6734C74.8889 54.2306 75.5304 53.8259 76.1948 53.4616C76.5959 53.3053 77.0117 53.1898 77.4359 53.1168C77.6428 53.0577 77.9284 53.0577 78.0466 52.9198C79.1203 51.6391 80.6273 51.7376 82.0654 51.6096C83.5035 51.4815 84.6954 51.3928 86.0054 51.3042C86.2418 51.3042 86.626 51.3042 86.7048 51.4027C87.1579 52.2401 87.7489 51.8756 88.3399 51.649C88.9309 51.4224 89.3938 51.2746 89.9356 51.0874L90.497 51.7376C91.1668 50.9594 91.876 51.2352 92.6345 51.5603C92.9187 51.6571 93.2269 51.6571 93.5111 51.5603C94.3878 51.2943 95.2546 50.9791 96.1509 50.6835L96.8601 52.1416L98.0421 51.5111L98.5346 52.1317C98.3132 52.392 98.0764 52.6387 97.8254 52.8706C97.6649 52.9713 97.5284 53.106 97.4254 53.2651C97.3225 53.4242 97.2555 53.6038 97.2292 53.7915C97.2029 53.9792 97.218 54.1704 97.2734 54.3516C97.3287 54.5329 97.423 54.6999 97.5496 54.8409C97.6669 54.9628 97.7543 55.1104 97.8049 55.2719C97.8555 55.4334 97.8679 55.6045 97.8412 55.7716C97.8144 55.9387 97.7493 56.0973 97.6508 56.235C97.5524 56.3726 97.4233 56.4856 97.2738 56.5649C96.6927 56.9885 96.1706 57.5008 95.5895 58.0032C96.1805 58.6534 96.7025 59.1065 97.4413 58.279C97.5555 58.4014 97.6547 58.537 97.7368 58.6829C98.3278 60.3281 99.7068 60.5646 101.174 60.6532C101.657 60.6532 102.159 60.5843 102.613 60.6532C102.976 60.7281 103.329 60.8438 103.666 60.998C103.893 61.0768 104.129 61.264 104.346 61.2542C105.252 61.1852 105.656 61.6975 105.932 62.4363C106.066 62.8696 106.352 63.2398 106.738 63.4787C107.123 63.7177 107.582 63.8093 108.03 63.7367C109.379 63.6382 110.266 64.6332 111.33 65.2145C111.993 65.5433 112.711 65.747 113.448 65.8154C114.058 65.8942 115.112 64.6037 114.895 63.9732C114.413 62.5152 115.161 61.8058 116.255 61.0867C117.161 60.4956 117.979 59.8159 119.151 60.1015C119.474 60.1408 119.78 60.2668 120.037 60.466C120.474 60.9378 121.015 61.3017 121.617 61.5291C122.218 61.7564 122.865 61.8411 123.504 61.7763C123.767 61.7376 124.034 61.7812 124.271 61.9012C124.507 62.0212 124.701 62.2116 124.824 62.4462C125.024 62.661 125.3 62.7884 125.593 62.8008C127.021 62.9486 128.449 63.0077 129.877 63.1654C130.43 63.2326 130.967 63.396 131.463 63.6481C131.776 63.8319 132.136 63.9196 132.499 63.9003C132.861 63.8811 133.21 63.7557 133.502 63.5397C134.089 63.1983 134.694 62.8891 135.315 62.6137Z" fill="#5CB1FF"/>
<path d="M178.576 158.449C179.12 158.819 179.573 159.309 179.899 159.881C180.225 160.453 180.416 161.092 180.457 161.749C180.528 162.869 180.683 163.982 180.92 165.079C180.977 165.233 181 165.398 180.987 165.562C180.973 165.726 180.924 165.885 180.842 166.028C180.76 166.171 180.648 166.294 180.514 166.389C180.379 166.484 180.225 166.548 180.063 166.576L179.797 165.67L179.571 165.542C179.403 165.808 179.078 166.103 179.117 166.34C179.196 167.282 178.961 168.225 178.448 169.019C178.152 169.571 178.448 170.389 178.32 171.068C178.227 171.509 178.071 171.934 177.857 172.329C177.699 172.655 177.443 172.93 177.305 173.256C175.801 176.704 174.307 180.152 172.823 183.6C172.597 184.141 172.429 184.713 172.252 185.264C172.134 185.776 171.862 186.239 171.472 186.591C171.083 186.943 170.596 187.168 170.075 187.235C169.683 187.255 169.301 187.359 168.952 187.54C167.632 188.476 166.509 187.846 165.377 187.195C165.213 187.092 165.086 186.941 165.012 186.762C164.618 185.649 163.939 184.585 164.51 183.304C164.618 183.048 164.451 182.644 164.342 182.319C164.144 181.841 164.081 181.318 164.161 180.807C164.241 180.296 164.461 179.817 164.796 179.423C165.593 178.437 166.244 177.285 167.022 176.26C167.183 176.07 167.29 175.839 167.33 175.592C167.37 175.346 167.342 175.093 167.248 174.861C166.754 173.662 166.561 172.36 166.687 171.068C166.794 170.563 166.956 170.071 167.169 169.601C167.382 169.06 167.636 168.536 167.928 168.034C168.072 167.805 168.297 167.64 168.558 167.571C169.12 167.453 169.681 167.571 170.134 166.98C170.321 166.754 171.031 166.872 171.494 166.931C172.843 167.088 172.813 167.088 173.523 165.946C173.72 165.621 174.153 165.433 174.508 165.177C174.862 164.921 175.02 164.901 175.118 164.695C175.493 163.818 175.778 162.911 176.103 162.035C176.219 161.779 176.408 161.563 176.645 161.414C177.473 160.912 178.448 160.547 178.241 159.257C178.211 159.01 178.448 158.754 178.576 158.449Z" fill="#5CB1FF"/>
<path d="M213.208 28.8921H6.80157V33.9557H213.208V28.8921Z" fill="#231F20"/>
<path d="M213.198 34.4384H6.80158C6.67096 34.4384 6.54569 34.3865 6.45333 34.2942C6.36097 34.2018 6.30908 34.0765 6.30908 33.9459V28.892C6.30908 28.7614 6.36097 28.6361 6.45333 28.5437C6.54569 28.4514 6.67096 28.3995 6.80158 28.3995H213.198C213.329 28.3995 213.454 28.4514 213.547 28.5437C213.639 28.6361 213.691 28.7614 213.691 28.892V33.9853C213.681 34.109 213.625 34.2243 213.533 34.3084C213.442 34.3924 213.323 34.4388 213.198 34.4384ZM7.33348 33.4533H212.716V29.3748H7.28423L7.33348 33.4533Z" fill="#231F20"/>
<path d="M26.918 220.85H20.222L18.836 224H16.982L22.688 211.4H24.47L30.194 224H28.304L26.918 220.85ZM26.288 219.41L23.57 213.236L20.852 219.41H26.288ZM35.3136 211.958C34.2816 211.958 33.7656 212.516 33.7656 213.632V214.46H36.5376V215.882H33.8016V224H32.0736V215.882H30.4536V214.46H32.0736V213.614C32.0736 212.666 32.3496 211.916 32.9016 211.364C33.4536 210.812 34.2276 210.536 35.2236 210.536C35.6076 210.536 35.9676 210.584 36.3036 210.68C36.6396 210.776 36.9276 210.914 37.1676 211.094L36.6456 212.408C36.2496 212.108 35.8056 211.958 35.3136 211.958ZM41.2647 216.062C41.5647 215.51 42.0087 215.09 42.5967 214.802C43.1847 214.514 43.8987 214.37 44.7387 214.37V216.044C44.6427 216.032 44.5107 216.026 44.3427 216.026C43.4067 216.026 42.6687 216.308 42.1287 216.872C41.6007 217.424 41.3367 218.216 41.3367 219.248V224H39.6087V214.46H41.2647V216.062ZM46.8685 214.46H48.5965V224H46.8685V214.46ZM47.7325 212.624C47.3965 212.624 47.1145 212.516 46.8865 212.3C46.6705 212.084 46.5625 211.82 46.5625 211.508C46.5625 211.196 46.6705 210.932 46.8865 210.716C47.1145 210.488 47.3965 210.374 47.7325 210.374C48.0685 210.374 48.3445 210.482 48.5605 210.698C48.7885 210.902 48.9025 211.16 48.9025 211.472C48.9025 211.796 48.7885 212.072 48.5605 212.3C48.3445 212.516 48.0685 212.624 47.7325 212.624ZM55.6038 219.554L53.6238 221.39V224H51.8958V210.644H53.6238V219.212L58.8258 214.46H60.9138L56.8998 218.402L61.3098 224H59.1858L55.6038 219.554ZM66.2858 214.37C67.6058 214.37 68.6138 214.694 69.3098 215.342C70.0178 215.99 70.3718 216.956 70.3718 218.24V224H68.7338V222.74C68.4458 223.184 68.0318 223.526 67.4918 223.766C66.9638 223.994 66.3338 224.108 65.6018 224.108C64.5338 224.108 63.6758 223.85 63.0278 223.334C62.3918 222.818 62.0738 222.14 62.0738 221.3C62.0738 220.46 62.3798 219.788 62.9918 219.284C63.6038 218.768 64.5758 218.51 65.9078 218.51H68.6438V218.168C68.6438 217.424 68.4278 216.854 67.9958 216.458C67.5638 216.062 66.9278 215.864 66.0878 215.864C65.5238 215.864 64.9718 215.96 64.4318 216.152C63.8918 216.332 63.4358 216.578 63.0638 216.89L62.3438 215.594C62.8358 215.198 63.4238 214.898 64.1078 214.694C64.7918 214.478 65.5178 214.37 66.2858 214.37ZM65.8898 222.776C66.5498 222.776 67.1198 222.632 67.5998 222.344C68.0798 222.044 68.4278 221.624 68.6438 221.084V219.752H65.9798C64.5158 219.752 63.7838 220.244 63.7838 221.228C63.7838 221.708 63.9698 222.086 64.3418 222.362C64.7138 222.638 65.2298 222.776 65.8898 222.776Z" fill="black"/>
</svg>
