<svg width="220" height="246" viewBox="0 0 220 246" fill="none" xmlns="http://www.w3.org/2000/svg">
<path d="M207.013 19.5036H206.924L110 2.11576L13.076 19.4938C13.0118 19.5065 12.9457 19.506 12.8817 19.4923C12.8177 19.4787 12.7572 19.4522 12.7037 19.4144C12.6503 19.3766 12.6051 19.3284 12.5709 19.2726C12.5367 19.2168 12.5142 19.1546 12.5047 19.0898C12.4817 18.9619 12.5102 18.83 12.584 18.723C12.6578 18.6159 12.771 18.5424 12.8987 18.5185L109.911 1.13062H110.089L207.101 18.5185C207.229 18.5424 207.342 18.6159 207.416 18.723C207.49 18.83 207.518 18.9619 207.495 19.0898C207.479 19.2056 207.421 19.3113 207.332 19.3874C207.243 19.4635 207.13 19.5048 207.013 19.5036Z" fill="#D1D3D4"/>
<path d="M213.208 28.8921H6.80157V235.33H213.208V28.8921Z" fill="white"/>
<path d="M213.198 235.773H6.80155C6.74168 235.774 6.68215 235.764 6.62657 235.741C6.57099 235.719 6.5205 235.686 6.47816 235.643C6.43581 235.601 6.40248 235.55 6.38019 235.495C6.3579 235.439 6.34709 235.38 6.34844 235.32V28.8921C6.34709 28.8322 6.3579 28.7727 6.38019 28.7171C6.40248 28.6615 6.43581 28.611 6.47816 28.5686C6.5205 28.5263 6.57099 28.4929 6.62657 28.4706C6.68215 28.4484 6.74168 28.4375 6.80155 28.4389H213.198C213.258 28.4375 213.318 28.4484 213.373 28.4706C213.429 28.4929 213.479 28.5263 213.522 28.5686C213.564 28.611 213.598 28.6615 213.62 28.7171C213.642 28.7727 213.653 28.8322 213.652 28.8921V235.32C213.653 235.38 213.642 235.439 213.62 235.495C213.598 235.55 213.564 235.601 213.522 235.643C213.479 235.686 213.429 235.719 213.373 235.741C213.318 235.764 213.258 235.774 213.198 235.773ZM7.24479 234.876H212.755V29.3354H7.24479V234.876Z" fill="#231F20"/>
<path d="M81.4843 100.581H83.0504C82.7837 99.9971 82.4021 99.4727 81.9282 99.0393C81.4543 98.606 80.898 98.2727 80.2924 98.0593C78.4775 97.1363 77.0979 95.5371 76.4509 93.6064C76.2441 93.1237 75.4659 92.8675 75.0818 92.5621L74.737 93.5473C74.1953 92.3158 72.639 91.8036 73.821 90.3061C73.8899 90.2175 73.0428 89.0452 72.767 89.0944C71.4274 89.3604 70.5114 88.6314 69.4673 88.1093C68.7969 87.7692 68.0799 87.5302 67.3397 87.4C65.675 87.0552 63.9907 86.7793 62.2275 86.4148L62.3851 87.1832L58.8391 88.0994L59.1051 86.2276L57.007 87.991C57.4306 88.7989 54.052 91.6656 51.9146 92.2469L52.6336 92.9266L52.5647 93.3601C50.9296 91.9119 49.6096 93.3601 47.9844 93.3108C48.7428 92.9069 49.4915 92.4932 50.2499 92.0991C51.0904 91.74 51.8978 91.3082 52.6631 90.8086C53.3494 90.1631 53.9727 89.4539 54.5248 88.6905H50.4272L50.1317 87.0355C47.9056 88.6215 48.0534 85.9616 46.9108 85.5282C47.5116 83.2722 49.5604 83.5579 51.1856 83.0456L50.9 81.824C48.4966 82.0408 47.945 82.8092 45.3446 80.8389C45.9061 80.6517 46.4183 80.5039 46.9108 80.2971C47.4033 80.0902 47.8958 79.8143 48.3489 79.5779C49.2157 80.6714 49.9249 80.701 51.1463 79.834L45.975 77.7258C46.763 77.4204 47.2358 77.2628 47.679 77.0559C48.2799 76.7702 48.8315 76.4057 49.4422 76.1594C50.6144 75.6866 51.7964 75.2334 52.9981 74.8393C54.9681 74.1891 56.9381 74.6719 58.8588 75.0659C60.4189 75.3469 61.9945 75.5345 63.5769 75.6275C66.0111 75.7621 68.4163 76.2227 70.7281 76.9968C71.2572 77.128 71.7986 77.204 72.3435 77.2234C72.3435 75.3516 73.752 76.849 74.4119 76.3368C75.2268 75.8705 76.167 75.6707 77.101 75.7654L74.2051 76.9377L74.3923 77.3318L78.9035 75.3615L80.3909 76.6816L81.435 75.8343L81.9866 76.7702C82.6761 75.6275 83.6119 76.0117 84.6067 76.258C85.9562 76.5831 87.345 76.7604 88.7043 77.0165C89.1377 77.0953 89.5612 77.2529 90.1719 77.4204L89.2953 78.1002L89.3643 78.4351C90.4379 78.2867 91.5212 78.2209 92.6049 78.2381C93.5661 78.4007 94.5119 78.6445 95.4319 78.9671L95.225 77.9524C96.2691 77.9524 97.195 77.8933 98.18 77.9524C99.9333 78.0805 101.667 78.8292 103.43 77.7258C103.785 77.5091 104.701 78.2085 105.508 78.5533L107.104 77.3318L104.74 75.5388C104.533 74.5536 104.986 73.8443 106.198 73.736C107.183 73.6473 108.434 75.1841 108.296 76.1693L109.813 76.4451L109.636 77.982L110.985 76.4156L112.374 79.371L114.659 76.12L117.062 76.5633V78.908L117.368 79.2725L115.083 79.7749L115.841 80.967L113.221 79.5188C113.516 80.7699 112.886 81.0458 112.088 80.9374C111.335 80.745 110.561 80.6424 109.783 80.632L112.876 81.5482C111.891 81.9915 111.251 82.2969 110.581 82.6318C110.247 82.7642 109.942 82.9618 109.685 83.2131C108.513 84.6908 106.119 85.2326 106.247 87.6659C106.247 88.0305 106.562 88.6511 106.828 88.6511C107.991 88.9171 108.089 89.7052 108.01 90.7396C109.517 89.9022 110.621 90.7396 111.881 91.4292C113.38 92.1118 114.92 92.7008 116.491 93.1926C116.6 94.1778 116.412 95.6752 117.831 96.552C118.116 96.7293 118.609 97.084 118.678 97.015C119.052 96.6603 119.574 96.1875 119.555 95.7737C119.438 94.9538 119.237 94.1482 118.954 93.37C119.761 92.6803 121.052 92.0991 121.239 91.2617C121.426 90.4244 120.48 89.39 119.968 88.3063C121.268 87.3211 119.909 85.9616 120.116 84.5233C122.667 83.814 124.874 85.1144 127.119 86.2867C126.998 86.5453 126.939 86.8284 126.946 87.1138C126.953 87.3992 127.026 87.679 127.16 87.9312C127.294 88.1834 127.484 88.4011 127.717 88.5671C127.949 88.733 128.216 88.8427 128.498 88.8875C130.193 89.3111 130.38 87.5576 131.069 86.5823C131.798 87.5674 132.557 88.5526 133.148 89.5377C133.492 90.1387 133.344 91.1337 133.788 91.508C134.711 92.2186 135.701 92.8388 136.743 93.3601L135.945 93.8822C136.568 93.9398 137.178 94.0892 137.757 94.3255C137.961 94.475 138.13 94.6652 138.256 94.884C138.381 95.1029 138.46 95.3455 138.486 95.5964C138.486 95.9018 138.122 96.4141 137.787 96.5815C135.718 97.5667 133.798 98.8868 131.207 98.2957C129.552 97.9213 128.439 99.4286 127.267 100.512C127.941 100.193 128.631 99.91 129.336 99.665C129.861 99.5193 130.409 99.4758 130.951 99.537C131.079 99.537 131.335 100.256 131.237 100.345C130.252 101.33 130.557 102.128 131.532 102.827C132.832 103.753 133.295 103.655 134.172 102.354C134.224 102.264 134.299 102.188 134.388 102.135C134.478 102.082 134.58 102.052 134.684 102.049L134.359 103.182L134.96 102.837L135.177 103.212C133.561 104.072 131.949 104.932 130.34 105.793L129.996 105.704L130.981 103.566C129.414 104.265 127.891 105.058 126.42 105.94C126.056 106.177 126.233 107.241 126.154 107.911L126.548 108.088C126.107 108.236 125.651 108.339 125.189 108.393C124.017 108.393 123.327 108.719 123.219 110.108C123.15 110.886 122.431 111.615 121.928 112.492L121.396 110.462C121.321 111.255 121.321 112.053 121.396 112.846C121.938 115.28 121.82 115.644 119.712 116.856C118.451 117.575 116.994 119.811 117.22 120.698C117.545 122.008 117.988 123.289 118.205 124.639C118.249 125.343 118.209 126.051 118.087 126.747L117.397 126.835L115.23 121.269L114.058 121.791C113.073 120.008 111.497 121.141 110.118 121.072L110.69 122.373C109.468 122.117 108.503 121.959 107.557 121.713C106.828 121.516 106.277 121.506 105.824 122.264C105.607 122.639 105.105 122.836 104.76 123.151C104.415 123.466 103.962 123.752 103.952 124.067C103.883 126.402 103.854 128.747 103.952 131.081C104.017 131.873 104.315 132.627 104.809 133.249C105.262 133.83 106.129 134.579 106.69 134.48C107.735 134.303 109.212 134.589 109.537 132.815C109.862 131.042 110.522 130.737 112.581 131.012L111.103 137.357C111.793 137.357 112.472 137.357 113.142 137.248C114.925 137.022 115.654 137.839 115.408 139.573C115.092 141.741 114.738 143.987 117.23 145.307C119.249 144.322 119.2 144.322 120.865 146.016C121.304 146.38 121.787 146.688 122.303 146.932C122.785 144.135 125.149 143.415 127.228 142.154C127.05 143.307 126.341 144.381 127.05 145.484L128.035 142.667C129.148 143.199 130.074 143.652 130.99 144.066C131.993 144.406 133.08 144.406 134.083 144.066C135.068 143.849 135.59 144.933 136.319 145.435C136.568 145.656 136.795 145.9 136.999 146.164C137.41 146.667 137.868 147.129 138.368 147.543C138.99 148.063 139.731 148.418 140.525 148.578C143.155 148.725 144.406 149.435 145.046 151.957C145.687 154.479 147.361 155.346 149.479 155.838C150.385 156.045 150.828 156.331 150.641 157.198C152.759 157.198 154.926 156.784 156.433 158.813C156.554 159.013 156.748 159.158 156.975 159.217C157.3 159.235 157.618 159.319 157.909 159.465C158.2 159.611 158.458 159.814 158.668 160.063C158.877 160.313 159.034 160.602 159.127 160.914C159.22 161.226 159.249 161.554 159.211 161.877C159.152 162.98 158.226 164.074 157.566 165.098C156.906 166.123 156.206 166.813 155.537 167.68C155.455 167.848 155.414 168.034 155.418 168.221C155.328 169.913 155.137 171.597 154.847 173.265C154.463 174.46 153.93 175.602 153.261 176.664C153.06 176.906 152.788 177.078 152.483 177.157C151.183 177.649 149.833 178.033 148.543 178.615C148.04 178.852 147.619 179.234 147.333 179.711C147.047 180.188 146.91 180.739 146.938 181.294C146.664 182.513 146.199 183.68 145.559 184.752C145.371 185.176 145.145 185.58 144.859 186.161L144.623 184.831C143.244 187.54 142.15 190.565 138.309 187.964C138.811 188.841 139.176 189.402 139.461 190.013C139.6 190.245 139.679 190.508 139.693 190.778C139.706 191.048 139.654 191.318 139.539 191.563C139.424 191.808 139.251 192.021 139.035 192.183C138.819 192.346 138.566 192.453 138.299 192.495C137.314 192.781 136.221 192.899 135.167 193.096C135.295 195.067 134.852 195.392 132.576 194.722C133.61 197.244 132.281 198.731 130.242 199.874C130.521 200.173 130.831 200.44 131.168 200.672C132.281 201.263 132.271 201.441 131.276 202.298C130.577 202.899 129.602 203.539 129.444 204.268C129.338 205.283 129.589 206.304 130.153 207.154C130.567 207.814 131.562 208.09 132.478 208.652C131 208.8 129.523 209.292 128.193 208.977C126.75 208.585 125.441 207.805 124.411 206.721C123.731 206.021 123.662 204.672 123.475 203.588C123.288 202.505 123.13 201.401 124.46 200.781L123.475 200.652L124.667 197.618H124.952L125.169 198.859H125.346L125.898 195.707C124.588 195.559 124.588 194.801 125.041 193.855C125.13 193.687 125.376 193.49 125.327 193.402C124.42 191.431 126.213 190.042 126.479 188.338C126.745 186.634 126.824 185.018 127.041 183.363C127.326 181.216 127.72 179.078 127.976 176.93C128.223 175.703 128.25 174.442 128.055 173.206C127.905 172.732 127.656 172.294 127.325 171.922C126.994 171.551 126.588 171.253 126.134 171.049C123.376 170.064 122.638 167.601 121.564 165.414C120.707 163.69 120.293 161.788 118.766 160.38C118.615 160.228 118.497 160.047 118.42 159.847C118.342 159.648 118.307 159.434 118.316 159.22C118.325 159.006 118.379 158.797 118.473 158.604C118.568 158.412 118.701 158.242 118.865 158.104C119.161 157.807 119.422 157.476 119.643 157.119C118.658 156.794 118.382 156.134 118.855 155.277C119.468 154.123 120.18 153.026 120.983 151.996C122.224 150.489 122.145 149.277 120.746 148.055C120.25 147.466 119.851 146.801 119.564 146.085C119.387 145.76 119.22 145.425 119.052 145.1H118.629L117.831 147.07C117.722 146.991 117.407 146.745 117.072 146.519C116.832 146.299 116.551 146.129 116.245 146.016C115.644 145.888 115.024 145.859 115.063 145.031C115.052 144.986 115.024 144.947 114.984 144.923C113.595 144.548 113.448 143.297 113.014 142.223C112.764 141.629 112.369 141.108 111.864 140.707C111.36 140.306 110.763 140.038 110.128 139.928C108.967 139.596 107.968 138.85 107.321 137.83C106.73 137.13 106.149 136.677 105.183 137.357C104.961 137.448 104.72 137.488 104.48 137.475C104.24 137.461 104.006 137.394 103.795 137.278C101.756 136.106 99.7363 134.894 97.7762 133.593C97.5601 133.432 97.3844 133.222 97.2631 132.981C97.1417 132.74 97.078 132.474 97.0768 132.204C97.1803 131.542 97.1349 130.865 96.9441 130.223C96.7533 129.581 96.4217 128.989 95.9736 128.49C94.9886 127.072 93.8952 125.693 93.0186 124.225C92.2207 122.954 91.6495 121.555 90.8615 120.284C90.5857 119.841 89.9651 119.604 89.5022 119.299L89.0983 119.585C89.5416 120.491 89.975 121.397 90.4281 122.294C91.2292 123.857 92.0336 125.423 92.8413 126.993C93.0186 127.328 93.2452 127.643 93.3929 127.978C93.5407 128.313 93.7278 128.865 93.8854 129.308L93.3141 129.554C92.7747 128.294 92.1426 127.076 91.4229 125.909C90.9014 125.301 90.2902 124.777 89.6105 124.353C89.6598 123.525 89.8764 122.875 89.6794 122.698C88.2413 121.397 88.0247 119.526 87.2268 117.93C87.0298 117.536 86.7146 117.013 86.3502 116.945C84.2324 116.413 83.9369 114.432 83.0307 112.935C82.6015 112.296 82.251 111.608 81.9866 110.886C81.4498 109.068 81.3087 107.157 81.5729 105.28C81.6653 103.714 81.6356 102.143 81.4843 100.581V100.581Z" fill="#5CB1FF"/>
<path d="M140.535 77.184L139.018 75.9821L142.318 74.2877V72.9183L139.56 71.9332L139.629 71.5095L142.515 71.9233L140.259 70.3471C138.9 71.1352 138.496 70.8298 138.447 68.8102H139.432C138.831 67.9433 138.319 67.1059 137.718 66.3474C136.977 65.2597 135.911 64.4341 134.673 63.9882C133.435 63.5424 132.087 63.4992 130.823 63.8648C130.313 64.0528 129.77 64.1333 129.227 64.1012C128.656 63.983 127.622 64.6234 127.553 63.254C127.553 63.0865 126.44 62.9683 125.849 62.8205V62.3477L128.636 62.1802L123.908 60.8503C124.233 60.6151 124.588 60.423 124.962 60.2789C126.341 60.0523 127.73 59.9242 129.099 59.6484C129.907 59.4908 130.951 59.4809 130.941 58.1313H128.971L128.882 57.6387L133.473 56.4664L133.542 55.6191C133.66 55.6191 133.758 55.5108 133.827 55.5403C135.147 56.0132 136.231 54.9985 137.491 54.9788C137.858 54.9662 138.224 55.0317 138.563 55.1709C138.903 55.3102 139.209 55.52 139.461 55.7866C139.816 56.1018 140.574 54.6635 141.431 55.4812C141.609 55.6388 142.052 55.4812 142.485 55.4812L141.953 54.5749L146.75 55.7866L146.859 55.363C146.462 55.3211 146.072 55.2318 145.696 55.097C145.561 55.0359 145.44 54.9447 145.345 54.8304C145.249 54.716 145.181 54.5815 145.145 54.437C145.145 54.2695 145.509 53.9148 145.726 53.8951C146.938 53.7671 148.159 53.7474 149.37 53.6488C150.227 53.5799 151.075 53.3237 151.931 53.3336C155.29 53.3336 158.649 53.3336 161.998 53.6094C163.522 53.8228 165.023 54.179 166.48 54.6734L162.855 55.2842L162.904 55.8556C163.229 55.8556 163.564 55.8556 163.889 55.8556C164.48 55.8556 165.071 55.7275 165.662 55.6684L164.963 56.8013C166.503 56.6024 168.027 56.2963 169.524 55.8851C170.348 55.5712 171.23 55.4378 172.11 55.4939C172.99 55.5499 173.848 55.7942 174.626 56.2102C171.73 57.5993 168.578 58.4859 166.746 61.264C167.407 61.211 168.072 61.2642 168.716 61.4216C169.12 61.599 169.327 62.2689 169.701 62.8304L167.731 62.9486C167.603 63.7761 169.701 64.3278 168.105 65.4213L169.021 66.4065L166.953 66.702L167.888 67.7463H164.658C164.037 68.5837 164.155 69.2339 165.357 69.7166C165.618 69.79 165.861 69.9148 166.072 70.0836C166.284 70.2524 166.46 70.4619 166.589 70.6996C166.718 70.9374 166.799 71.1987 166.826 71.468C166.853 71.7374 166.826 72.0094 166.746 72.2681L163.948 71.0958L162.963 72.2386L166.48 72.6129C163.86 74.1103 161.397 75.4304 158.452 75.5684C157.96 75.5684 157.398 76.1693 157.063 76.6323C155.862 78.3071 154.443 79.4498 152.207 79.243C151.902 79.243 151.222 79.9621 151.222 80.3562C151.311 80.8953 151.23 81.4486 150.99 81.9394C150.75 82.4302 150.363 82.8341 149.883 83.0949C149.745 83.1638 149.676 83.42 149.636 83.6072C149.38 84.5923 149.105 85.5774 148.927 86.6611C148.75 87.7448 148.159 87.4295 147.548 87.1537C146.718 86.8449 145.909 86.4829 145.125 86.07C144.583 85.7614 144.132 85.3165 143.815 84.7795C142.672 82.6811 141.609 80.5433 140.565 78.3957C140.479 77.9972 140.469 77.5862 140.535 77.184Z" fill="#5CB1FF"/>
<path d="M121.692 74.4354C121.83 72.8493 120.323 72.9084 119.594 72.1302C119.229 72.9675 118.993 73.864 117.969 72.9183C117.762 72.7311 117.259 72.9183 116.905 72.8296C115.201 72.6326 113.497 72.4553 111.803 72.209C111.468 72.209 111.182 71.8445 110.818 71.5883L112.344 71.1056C110.896 70.8396 109.675 70.7411 110.296 69.1353C110.539 68.4201 111.048 67.8255 111.717 67.4737C112.385 67.1219 113.163 67.0397 113.891 67.2438C113.595 67.9039 113.014 68.5836 113.073 69.2141C113.132 69.8446 113.792 70.4653 114.255 71.0367C113.782 68.0812 114.039 67.5886 116.137 67.303C117.24 67.1453 117.693 67.7758 117.811 69.5983C118.678 69.0896 119.677 68.8524 120.679 68.9174C121.682 68.9824 122.642 69.3465 123.435 69.9628C123.869 70.1773 124.341 70.3013 124.824 70.3274C124.962 70.3274 125.13 70.3274 125.238 70.3274C126.201 70.7504 127.13 71.2478 128.016 71.8149C128.659 72.4106 129.24 73.0708 129.749 73.7852L128.508 74.0315L128.351 74.3566L133.955 77.3712L131.798 80.0507L129.02 77.6273L128.508 78.9572C129.562 79.9424 131.522 80.6517 131.089 83.1047L129.513 82.9471L130.193 84.5824C128.223 83.7746 126.253 83.7155 125.031 81.9619C124.672 81.4644 124.168 81.0908 123.587 80.8931C123.006 80.6954 122.378 80.6833 121.79 80.8586C121.263 80.8716 120.739 80.7847 120.244 80.6024C120.323 80.169 120.392 79.7355 120.5 79.302C120.551 79.0331 120.651 78.7759 120.796 78.5435C121.039 78.2084 121.351 77.9295 121.712 77.7258C121.859 77.6568 122.204 78.0213 122.46 78.1888L121.475 79.3808L123.445 79.174V78.8292L122.775 78.6026C123.11 77.5583 125.09 77.45 124.401 75.8934C124.175 75.3845 123.786 74.9651 123.296 74.7012C122.805 74.4373 122.241 74.3438 121.692 74.4354V74.4354Z" fill="#5CB1FF"/>
<path d="M112.709 57.0476C111.428 57.8061 110.246 56.5254 108.818 55.4812C110.769 55.1262 112.745 54.9253 114.728 54.8802C116.545 54.8304 118.342 54.498 120.057 53.8951C121.383 53.6629 122.736 53.6131 124.076 53.7473C126.528 53.8064 129.001 53.9049 131.434 54.0921C132.217 54.2493 132.98 54.4938 133.709 54.8211C133.177 55.1068 132.724 55.3827 132.271 55.5797C130.114 56.4959 127.957 57.4121 125.78 58.2987C125.321 58.4914 124.842 58.6302 124.351 58.7125C123.771 58.7643 123.225 59.0135 122.806 59.4186C122.387 59.8237 122.119 60.3602 122.047 60.9389L118.964 62.1999L120.303 62.988C119.141 63.1358 118.244 64.1899 117.181 63.0767C117.062 62.9683 116.649 63.1358 116.383 63.185C114.283 63.5923 112.117 63.5012 110.059 62.919L112.216 62.2984L111.95 61.5989L113.92 61.7467L114.048 61.4216L112.374 60.6335C113.359 59.0967 114.758 60.3971 116.018 60.0917L113.004 58.2987C113.122 58.1858 113.247 58.0805 113.379 57.9834C115.171 58.6927 116.816 57.6189 118.737 57.5992C116.895 56.3481 114.856 57.9145 112.709 57.0476Z" fill="#5CB1FF"/>
<path d="M87.4927 72.406L91.3441 72.1597V71.9036C90.5561 71.8346 89.7681 71.7361 88.9702 71.7065C88.1724 71.677 87.3942 71.7065 86.6062 71.7065V71.2534L88.2019 70.6623L85.9955 70.1303C86.754 68.3669 88.33 68.16 90.0734 67.8743L89.9749 68.8595C90.1818 68.8595 90.3591 68.8595 90.4379 68.8102C91.1569 68.0911 91.7676 68.3472 92.4079 68.9284C93.0481 69.5097 93.3929 67.8645 94.0233 68.7216C94.3983 69.256 94.8652 69.7197 95.4023 70.0909L94.8901 67.8743H96.929C97.2341 69.005 97.7055 70.084 98.3277 71.0761C98.9778 71.8642 100.16 72.2188 100.997 73.0463L99.7068 73.1646L100.278 74.2187C99.5306 74.3343 98.7698 74.3343 98.0224 74.2187C96.2888 73.5783 94.8113 74.2778 93.2057 74.7211C92.3389 74.9575 91.0584 75.4304 90.4083 74.0118C90.3197 73.8345 89.8567 73.8148 89.5612 73.7359L87.3351 73.1055L87.4927 72.406Z" fill="#5CB1FF"/>
<path d="M81.2873 66.1208C83.8537 66.0454 86.4128 66.4325 88.8422 67.2636C87.4928 68.1108 86.4388 68.7413 85.4046 69.421C84.3703 70.1008 83.6316 70.6722 82.9224 71.1746L80.5288 69.6181C80.7554 68.6822 82.1639 67.8152 81.2873 66.1208Z" fill="#5CB1FF"/>
<path d="M106.986 59.9538L107.725 59.3134L104.77 58.742C105.331 57.2348 106.03 56.358 107.488 56.5846C107.865 56.6791 108.231 56.8111 108.582 56.9786C108.984 57.153 109.414 57.2531 109.852 57.2742C110.433 57.8751 110.916 58.7519 111.822 57.9441L113.113 59.0573C111.635 61.1064 109.783 61.4019 106.986 59.9538Z" fill="#5CB1FF"/>
<path d="M108.03 63.3426L109.114 63.0372V63.7859C112.206 65.9139 115.605 63.7859 118.845 64.7711C118.225 66.1601 117.25 66.3079 116.009 65.973C115.57 65.9515 115.131 65.9779 114.698 66.0518C112.807 66.0518 110.916 66.0518 109.035 65.8745C108.729 65.8745 108.375 65.2341 108.217 64.8302C108.096 64.3436 108.033 63.8442 108.03 63.3426V63.3426Z" fill="#5CB1FF"/>
<path d="M88.596 64.5248C88.4581 64.5248 88.33 64.5938 88.1921 64.6135C88.0642 64.6233 87.9358 64.6233 87.808 64.6135C87.808 64.5051 87.808 64.3967 87.808 64.3475C89.1673 62.5939 90.6546 63.648 92.1025 64.1603C92.7231 64.377 93.3436 64.6233 94.2794 64.978L93.4619 63.2934L94.3483 62.6924C94.4665 62.8008 94.6143 62.8599 94.6537 62.9584C94.959 63.717 95.1659 64.5445 96.3183 63.9436C96.4759 63.8549 97.0768 64.18 97.1457 64.4165C97.2147 64.6529 96.9192 65.2341 96.7123 65.2735C94.6044 65.6774 92.4867 66.0025 90.369 66.3178C90.2803 66.3178 90.1621 66.1602 89.8863 65.9139L92.0139 65.372V65.0469L87.2859 65.441L87.2268 65.2243L88.6452 64.712L88.596 64.5248Z" fill="#5CB1FF"/>
<path d="M104.307 67.4802L103.381 68.229L104.711 68.8299C105.114 70.2584 103.726 70.2091 103.075 70.8002C102.977 70.8889 102.327 70.3864 101.923 70.15L99.5886 68.8003L99.7068 68.3767L101.736 68.7314L100.652 67.5985C101.972 66.5641 103.371 66.4951 104.307 67.4802Z" fill="#5CB1FF"/>
<path d="M100.219 64.0618L100.111 63.2146L101.726 64.0618L101.332 63.1358C101.96 63.0529 102.596 63.0529 103.223 63.1358C103.46 63.1358 103.735 63.8451 103.696 64.1899C103.657 64.5347 103.322 65.4312 103.016 65.4804C102.534 65.5691 101.962 65.1652 101.421 64.9977C101.056 64.8795 100.672 64.8204 100.308 64.7219C99.9126 64.6358 99.5291 64.5036 99.165 64.3278C98.8159 64.0995 98.4864 63.8424 98.18 63.5594C98.3474 63.3722 98.6035 63.0077 98.6626 63.0373C99.0666 63.2623 99.452 63.5193 99.8151 63.8057C99.906 63.8951 99.9824 63.9982 100.042 64.1111L100.219 64.0618Z" fill="#5CB1FF"/>
<path d="M115.378 133.387C115.789 132.66 116.455 132.112 117.247 131.85C118.039 131.588 118.9 131.63 119.663 131.968C121.337 132.805 122.963 133.751 124.814 134.756L122.263 135.051C121.692 134.391 121.357 133.692 120.805 133.426C119.804 132.875 118.708 132.517 117.575 132.372C116.895 132.313 116.215 132.973 115.378 133.387Z" fill="#5CB1FF"/>
<path d="M109.645 67.0665C109.603 67.5484 109.372 67.9943 109.004 68.3076C108.635 68.621 108.158 68.7767 107.675 68.7412C107.498 68.7412 107.173 68.8003 107.163 68.8791C106.996 70.0022 106.178 69.5983 105.971 69.1747C105.765 68.7511 105.499 67.5985 105.804 67.2044C106.38 66.8051 107.075 66.614 107.774 66.6626C108.411 66.7252 109.039 66.8607 109.645 67.0665V67.0665Z" fill="#5CB1FF"/>
<path d="M82.9519 63.6776C83.8524 63.1233 84.7942 62.6391 85.769 62.2295C86.7381 61.9847 87.727 61.8265 88.724 61.7566L88.9604 62.2393C88.5009 62.7052 88.0106 63.1397 87.4927 63.5397C87.4041 63.5988 87.0101 63.185 86.754 62.9979C85.7986 64.1505 83.405 64.5249 82.9519 63.6776Z" fill="#5CB1FF"/>
<path d="M124.539 136.194L126.637 136.391L125.563 135.16C127.533 134.618 129.808 135.406 129.69 136.648C127.976 136.5 126.184 137.347 124.539 136.194Z" fill="#5CB1FF"/>
<path d="M118.412 83.0358C117.663 83.0358 116.993 83.3116 116.728 83.0358C115.969 82.3856 115.486 82.9175 114.817 83.1343C114.108 83.239 113.388 83.239 112.679 83.1343C114.117 80.8684 114.511 80.7207 116.284 81.7452L116.649 81.9521L118.412 83.0358Z" fill="#5CB1FF"/>
<path d="M102.465 61.4216L97.7959 60.4857L98.7809 60.0227L97.2837 59.5991V59.1459C97.9114 59.1901 98.5362 59.2691 99.1552 59.3824C99.7776 59.5012 100.383 59.6964 100.958 59.9636C101.538 60.2774 102.094 60.633 102.622 61.0276L102.465 61.4216Z" fill="#5CB1FF"/>
<path d="M117.742 67.1552L121.199 67.8152L121.081 68.3275C120.008 67.9531 118.471 69.5195 117.742 67.1552Z" fill="#5CB1FF"/>
<path d="M102.987 59.7764C104.11 59.9932 104.878 60.1212 105.636 60.2986C105.735 60.2986 105.873 60.6335 105.824 60.7517C105.787 60.8465 105.731 60.9328 105.66 61.0056C105.589 61.0783 105.504 61.1361 105.41 61.1753C104.386 61.5004 103.666 61.1261 102.987 59.7764Z" fill="#5CB1FF"/>
<path d="M104.632 65.1455L106.897 64.3869L107.104 65.8154C106.638 65.8449 106.171 65.8449 105.705 65.8154C105.368 65.7337 105.038 65.6216 104.72 65.4804L104.632 65.1455Z" fill="#5CB1FF"/>
<path d="M103.598 75.9525L105.518 77.115L105.449 77.3908L102.356 77.1347L103.598 75.9525Z" fill="#5CB1FF"/>
<path d="M104.474 62.5546L107.291 62.8206C106.306 64.0815 105.371 63.2934 104.445 62.9191L104.474 62.5546Z" fill="#5CB1FF"/>
<path d="M90.5955 61.3921L93.4422 60.9586C92.9595 62.2492 91.9745 62.4462 90.5955 61.3921Z" fill="#5CB1FF"/>
<path d="M218.714 19.011H1.28558V28.8921H218.714V19.011Z" fill="white"/>
<path d="M218.714 29.3354H1.28556C1.16708 29.3354 1.05329 29.289 0.968599 29.2061C0.883904 29.1233 0.835034 29.0105 0.832458 28.892V19.0406C0.832458 18.9204 0.8802 18.8051 0.965173 18.7201C1.05015 18.6351 1.16539 18.5874 1.28556 18.5874H218.714C218.835 18.5874 218.95 18.6351 219.035 18.7201C219.12 18.8051 219.168 18.9204 219.168 19.0406V28.892C219.165 29.0105 219.116 29.1233 219.031 29.2061C218.947 29.289 218.833 29.3354 218.714 29.3354V29.3354ZM1.73866 28.4389H218.261V19.4543H1.73866V28.4389Z" fill="#231F20"/>
<path d="M218.714 235.32H1.28558V245.201H218.714V235.32Z" fill="white"/>
<path d="M218.714 245.654H1.28556C1.16539 245.654 1.05015 245.606 0.965173 245.521C0.8802 245.436 0.832458 245.321 0.832458 245.201V235.349C0.835034 235.231 0.883904 235.118 0.968599 235.035C1.05329 234.952 1.16708 234.906 1.28556 234.906H218.714C218.833 234.906 218.947 234.952 219.031 235.035C219.116 235.118 219.165 235.231 219.168 235.349V245.201C219.168 245.321 219.12 245.436 219.035 245.521C218.95 245.606 218.835 245.654 218.714 245.654ZM1.73866 244.807H218.261V235.822H1.73866V244.807Z" fill="#231F20"/>
<path d="M110 6.3519C111.73 6.3519 113.132 4.94931 113.132 3.21913C113.132 1.48895 111.73 0.0863647 110 0.0863647C108.27 0.0863647 106.868 1.48895 106.868 3.21913C106.868 4.94931 108.27 6.3519 110 6.3519Z" fill="#D1D3D4"/>
<path d="M213.208 28.8921H6.80157V33.9557H213.208V28.8921Z" fill="#231F20"/>
<path d="M213.198 34.4384H6.80158C6.67096 34.4384 6.54569 34.3865 6.45333 34.2942C6.36097 34.2018 6.30908 34.0765 6.30908 33.9459V28.892C6.30908 28.7614 6.36097 28.6361 6.45333 28.5437C6.54569 28.4514 6.67096 28.3995 6.80158 28.3995H213.198C213.329 28.3995 213.454 28.4514 213.547 28.5437C213.639 28.6361 213.691 28.7614 213.691 28.892V33.9853C213.681 34.109 213.625 34.2243 213.533 34.3084C213.442 34.3924 213.323 34.4388 213.198 34.4384V34.4384ZM7.33348 33.4533H212.716V29.3748H7.28423L7.33348 33.4533Z" fill="#231F20"/>
<path d="M26.918 220.85H20.222L18.836 224H16.982L22.688 211.4H24.47L30.194 224H28.304L26.918 220.85ZM26.288 219.41L23.57 213.236L20.852 219.41H26.288ZM43.7556 214.37C44.9556 214.37 45.9036 214.718 46.5996 215.414C47.3076 216.11 47.6616 217.142 47.6616 218.51V224H45.9336V218.708C45.9336 217.784 45.7176 217.088 45.2856 216.62C44.8656 216.152 44.2596 215.918 43.4676 215.918C42.5916 215.918 41.8956 216.194 41.3796 216.746C40.8636 217.286 40.6056 218.066 40.6056 219.086V224H38.8776V218.708C38.8776 217.784 38.6616 217.088 38.2296 216.62C37.8096 216.152 37.2036 215.918 36.4116 215.918C35.5356 215.918 34.8396 216.194 34.3236 216.746C33.8076 217.286 33.5496 218.066 33.5496 219.086V224H31.8216V214.46H33.4776V215.882C33.8256 215.39 34.2816 215.018 34.8456 214.766C35.4096 214.502 36.0516 214.37 36.7716 214.37C37.5156 214.37 38.1756 214.52 38.7516 214.82C39.3276 215.12 39.7716 215.558 40.0836 216.134C40.4436 215.582 40.9416 215.15 41.5776 214.838C42.2256 214.526 42.9516 214.37 43.7556 214.37ZM59.5159 219.284C59.5159 219.416 59.5039 219.59 59.4799 219.806H51.7399C51.8479 220.646 52.2139 221.324 52.8379 221.84C53.4739 222.344 54.2599 222.596 55.1959 222.596C56.3359 222.596 57.2539 222.212 57.9499 221.444L58.9039 222.56C58.4719 223.064 57.9319 223.448 57.2839 223.712C56.6479 223.976 55.9339 224.108 55.1419 224.108C54.1339 224.108 53.2399 223.904 52.4599 223.496C51.6799 223.076 51.0739 222.494 50.6419 221.75C50.2219 221.006 50.0119 220.166 50.0119 219.23C50.0119 218.306 50.2159 217.472 50.6239 216.728C51.0439 215.984 51.6139 215.408 52.3339 215C53.0659 214.58 53.8879 214.37 54.7999 214.37C55.7119 214.37 56.5219 214.58 57.2299 215C57.9499 215.408 58.5079 215.984 58.9039 216.728C59.3119 217.472 59.5159 218.324 59.5159 219.284ZM54.7999 215.828C53.9719 215.828 53.2759 216.08 52.7119 216.584C52.1599 217.088 51.8359 217.748 51.7399 218.564H57.8599C57.7639 217.76 57.4339 217.106 56.8699 216.602C56.3179 216.086 55.6279 215.828 54.7999 215.828ZM63.5713 216.062C63.8713 215.51 64.3153 215.09 64.9033 214.802C65.4913 214.514 66.2053 214.37 67.0453 214.37V216.044C66.9493 216.032 66.8173 216.026 66.6493 216.026C65.7133 216.026 64.9753 216.308 64.4353 216.872C63.9073 217.424 63.6433 218.216 63.6433 219.248V224H61.9153V214.46H63.5713V216.062ZM69.1751 214.46H70.9031V224H69.1751V214.46ZM70.0391 212.624C69.7031 212.624 69.4211 212.516 69.1931 212.3C68.9771 212.084 68.8691 211.82 68.8691 211.508C68.8691 211.196 68.9771 210.932 69.1931 210.716C69.4211 210.488 69.7031 210.374 70.0391 210.374C70.3751 210.374 70.6511 210.482 70.8671 210.698C71.0951 210.902 71.2091 211.16 71.2091 211.472C71.2091 211.796 71.0951 212.072 70.8671 212.3C70.6511 212.516 70.3751 212.624 70.0391 212.624ZM77.9105 219.554L75.9305 221.39V224H74.2025V210.644H75.9305V219.212L81.1325 214.46H83.2205L79.2065 218.402L83.6165 224H81.4925L77.9105 219.554ZM88.5925 214.37C89.9125 214.37 90.9205 214.694 91.6165 215.342C92.3245 215.99 92.6785 216.956 92.6785 218.24V224H91.0405V222.74C90.7525 223.184 90.3385 223.526 89.7985 223.766C89.2705 223.994 88.6405 224.108 87.9085 224.108C86.8405 224.108 85.9825 223.85 85.3345 223.334C84.6985 222.818 84.3805 222.14 84.3805 221.3C84.3805 220.46 84.6865 219.788 85.2985 219.284C85.9105 218.768 86.8825 218.51 88.2145 218.51H90.9505V218.168C90.9505 217.424 90.7345 216.854 90.3025 216.458C89.8705 216.062 89.2345 215.864 88.3945 215.864C87.8305 215.864 87.2785 215.96 86.7385 216.152C86.1985 216.332 85.7425 216.578 85.3705 216.89L84.6505 215.594C85.1425 215.198 85.7305 214.898 86.4145 214.694C87.0985 214.478 87.8245 214.37 88.5925 214.37ZM88.1965 222.776C88.8565 222.776 89.4265 222.632 89.9065 222.344C90.3865 222.044 90.7345 221.624 90.9505 221.084V219.752H88.2865C86.8225 219.752 86.0905 220.244 86.0905 221.228C86.0905 221.708 86.2765 222.086 86.6485 222.362C87.0205 222.638 87.5365 222.776 88.1965 222.776Z" fill="black"/>
</svg>
