<svg width="220" height="246" viewBox="0 0 220 246" fill="none" xmlns="http://www.w3.org/2000/svg">
<path d="M207.013 19.5036H206.924L110 2.11579L13.076 19.4938C12.9454 19.5173 12.8108 19.488 12.7018 19.4122C12.5928 19.3365 12.5184 19.2205 12.4949 19.0899C12.4713 18.9592 12.5007 18.8246 12.5764 18.7156C12.6522 18.6066 12.7681 18.5322 12.8987 18.5086L109.911 1.12079H110.089L207.101 18.5185C207.229 18.5424 207.342 18.6159 207.416 18.723C207.49 18.83 207.518 18.9619 207.495 19.0899C207.479 19.2056 207.42 19.3113 207.332 19.3874C207.243 19.4635 207.13 19.5048 207.013 19.5036Z" fill="#D1D3D4"/>
<path d="M213.208 28.8921H6.80157V235.33H213.208V28.8921Z" fill="white"/>
<path d="M213.198 235.773H6.80158C6.74171 235.774 6.68218 235.764 6.6266 235.741C6.57102 235.719 6.52053 235.686 6.47819 235.643C6.43584 235.601 6.40251 235.55 6.38022 235.495C6.35793 235.439 6.34712 235.38 6.34847 235.32V28.8921C6.34712 28.8322 6.35793 28.7727 6.38022 28.7171C6.40251 28.6615 6.43584 28.611 6.47819 28.5686C6.52053 28.5263 6.57102 28.4929 6.6266 28.4706C6.68218 28.4484 6.74171 28.4375 6.80158 28.4389H213.198C213.258 28.4375 213.318 28.4484 213.373 28.4706C213.429 28.4929 213.48 28.5263 213.522 28.5686C213.564 28.611 213.598 28.6615 213.62 28.7171C213.642 28.7727 213.653 28.8322 213.652 28.8921V235.32C213.653 235.38 213.642 235.439 213.62 235.495C213.598 235.55 213.564 235.601 213.522 235.643C213.48 235.686 213.429 235.719 213.373 235.741C213.318 235.764 213.258 235.774 213.198 235.773ZM7.24482 234.876H212.755V29.3354H7.24482V234.876Z" fill="#231F20"/>
<path d="M218.714 19.011H1.28558V28.8921H218.714V19.011Z" fill="white"/>
<path d="M218.714 29.3354H1.28556C1.16708 29.3354 1.05329 29.289 0.968599 29.2061C0.883904 29.1233 0.835034 29.0105 0.832458 28.892V19.0406C0.832458 18.9204 0.8802 18.8051 0.965173 18.7201C1.05015 18.6351 1.16539 18.5874 1.28556 18.5874H218.714C218.835 18.5874 218.95 18.6351 219.035 18.7201C219.12 18.8051 219.168 18.9204 219.168 19.0406V28.892C219.165 29.0105 219.116 29.1233 219.031 29.2061C218.947 29.289 218.833 29.3354 218.714 29.3354V29.3354ZM1.73866 28.4389H218.261V19.4543H1.73866V28.4389Z" fill="#231F20"/>
<path d="M218.714 235.32H1.28558V245.201H218.714V235.32Z" fill="white"/>
<path d="M218.714 245.654H1.28556C1.16539 245.654 1.05015 245.606 0.965173 245.521C0.8802 245.436 0.832458 245.321 0.832458 245.201V235.349C0.835034 235.231 0.883904 235.118 0.968599 235.035C1.05329 234.952 1.16708 234.906 1.28556 234.906H218.714C218.833 234.906 218.947 234.952 219.031 235.035C219.116 235.118 219.165 235.231 219.168 235.349V245.201C219.168 245.321 219.12 245.436 219.035 245.521C218.95 245.606 218.835 245.654 218.714 245.654ZM1.73866 244.807H218.261V235.822H1.73866V244.807Z" fill="#231F20"/>
<path d="M110 6.3519C111.73 6.3519 113.132 4.94931 113.132 3.21913C113.132 1.48895 111.73 0.0863647 110 0.0863647C108.27 0.0863647 106.868 1.48895 106.868 3.21913C106.868 4.94931 108.27 6.3519 110 6.3519Z" fill="#D1D3D4"/>
<path d="M162.451 101.96C165.406 104.482 166.815 107.142 165.918 110.659L161.525 112.265C161.458 111.921 161.425 111.571 161.427 111.221C161.633 109.764 161.761 108.297 161.811 106.827C161.785 106.233 161.525 105.673 161.088 105.271C160.65 104.868 160.071 104.655 159.477 104.679V101.724C157.142 100.325 155.271 101.034 153.567 102.808L152.779 101.438C153.156 101.107 153.488 100.725 153.764 100.305C153.941 99.931 154.03 99.1429 153.872 99.0543C153.439 98.8178 152.651 98.6011 152.375 98.8277C151.153 99.8128 150.129 101.064 148.898 102.059C148.189 102.429 147.423 102.676 146.632 102.788C146.455 103.625 146.337 104.601 147.972 104.896C148.346 104.965 148.592 105.773 148.74 106.394C148.915 106.528 149.116 106.623 149.33 106.673C149.545 106.722 149.768 106.725 149.983 106.682C150.199 106.638 150.403 106.548 150.581 106.418C150.759 106.289 150.907 106.122 151.015 105.931C151.449 105.359 151.892 105.211 152.591 105.763C153.353 106.181 154.168 106.492 155.015 106.689L152.463 107.674C151.691 108.002 150.994 108.485 150.416 109.093C149.838 109.702 149.392 110.423 149.105 111.211C149.085 111.395 149.11 111.581 149.179 111.753C149.248 111.924 149.357 112.077 149.499 112.196C150.74 112.58 150.976 113.654 151.469 114.62C151.961 115.585 152.513 116.531 153.094 117.575C152.678 117.404 152.25 117.266 151.813 117.161C151.279 117.123 150.742 117.123 150.208 117.161L153.547 119.053L151.035 120.875C151.744 120.875 152.02 120.787 152.266 120.875C152.513 120.964 153.192 121.348 153.173 121.535C152.952 123.478 152.077 125.289 150.69 126.668C150.375 126.973 149.971 127.446 150.021 127.791C150.069 128.338 149.963 128.888 149.716 129.379C149.469 129.87 149.09 130.282 148.622 130.569C147.549 131.618 146.418 132.605 145.233 133.525C144.205 134.041 143.117 134.429 141.993 134.677L140.318 135.209L139.875 134.352C139.717 134.441 139.57 134.49 139.57 134.529C139.57 135.82 138.88 136.056 137.688 136.224C136.162 136.431 134.389 136.559 133.561 138.618L133.354 137.189L130.892 136.322C129.808 137.248 128.498 138.293 127.208 139.455C126.974 139.63 126.783 139.854 126.646 140.111C126.51 140.369 126.432 140.653 126.419 140.945C126.406 141.236 126.457 141.526 126.57 141.795C126.682 142.064 126.853 142.304 127.07 142.499C128.597 144.312 130.153 146.115 131.581 148.016C133.01 149.917 132.379 151.957 132.241 153.927C132.172 154.912 129.286 156.134 128.183 155.72C128.587 157.966 126.381 157.739 125.445 158.912C125.437 157.977 125.106 157.074 124.508 156.356C123.91 155.638 123.082 155.149 122.165 154.971C122.055 154.183 121.657 153.463 121.048 152.952C120.438 152.44 119.66 152.173 118.865 152.203C118.796 151.011 118.185 150.489 117.003 150.883C116.59 152.696 116.107 154.479 115.831 156.291C115.743 156.843 116.284 157.464 116.481 158.074C116.663 158.868 116.9 159.649 117.191 160.409C117.537 161.122 118.034 161.751 118.648 162.251C119.515 162.931 120.618 163.237 121.465 164.015C121.75 164.288 121.976 164.618 122.128 164.982C122.281 165.346 122.357 165.738 122.352 166.133C122.076 168.024 123.081 169.463 124.066 171.315C123.146 171.247 122.251 170.982 121.442 170.539C120.633 170.095 119.929 169.483 119.377 168.744C118.557 167.636 118.01 166.35 117.782 164.99C117.415 162.994 116.275 161.224 114.61 160.064C114.314 159.878 114.092 159.594 113.982 159.261C113.872 158.929 113.882 158.568 114.009 158.242C114.245 156.725 114.895 155.198 114.787 153.72C114.478 152.014 114.006 150.342 113.379 148.725C113.063 147.602 112.847 146.45 112.512 145.336C112.393 145.027 112.215 144.742 111.99 144.499L109.399 146.804L107.301 146.233C107.813 145.007 107.897 143.644 107.54 142.364C107.183 141.084 106.404 139.962 105.331 139.179C104.346 138.401 103.164 137.633 103.361 135.987C103.41 135.603 102.977 135.071 102.632 134.726C102.056 134.225 101.444 133.767 100.8 133.357L100.524 135.593C99.2241 136.224 97.2738 135.377 95.8456 136.579C95.4444 137.033 95.1124 137.544 94.8606 138.096C94.5158 138.647 94.2006 139.682 93.8756 139.682C91.6692 139.741 91.2161 141.879 89.8272 142.864C88.1232 144.085 86.557 145.514 84.9022 146.804C84.2671 147.193 83.7901 147.794 83.5557 148.501C83.3213 149.208 83.3447 149.975 83.6217 150.666C83.8621 151.068 83.9678 151.536 83.9235 152.002C83.8792 152.468 83.6872 152.908 83.3755 153.257C83.1431 153.531 83.0234 153.883 83.0406 154.242C83.3459 156.36 81.9374 157.405 80.5485 158.518C80.1036 158.979 79.7196 159.496 79.4059 160.055C78.3323 159.247 77.4359 158.606 77.3079 157.099C77.1897 155.956 76.3229 154.902 75.7713 153.779C75.2197 152.656 74.9734 151.71 74.54 150.686C73.9926 149.605 73.5091 148.493 73.0921 147.356C72.3752 145.018 71.7833 142.644 71.3191 140.243C71.1842 138.839 71.1578 137.426 71.2403 136.017C71.2403 135.751 71.0039 135.505 70.8758 135.249C70.6394 135.446 70.2947 135.613 70.1863 135.869C70.078 136.125 70.1272 136.716 69.9795 137.101C69.8579 137.33 69.6888 137.531 69.4832 137.69C69.2777 137.849 69.0406 137.962 68.7878 138.022C68.535 138.081 68.2724 138.086 68.0176 138.036C67.7627 137.986 67.5215 137.882 67.3101 137.731C67.2248 137.67 67.1456 137.601 67.0737 137.524L65.5273 135.899C65.8917 135.662 66.2168 135.465 66.5123 135.249C66.8807 134.985 67.1923 134.65 67.4283 134.263C65.0939 135.515 64.1877 133.14 62.6412 132.51C61.9517 132.234 61.7252 130.934 61.1539 130.195C60.9868 129.988 60.7749 129.822 60.5343 129.71C60.2937 129.597 60.0307 129.541 59.765 129.545C58.78 129.545 57.7261 129.781 56.6918 129.87C55.3719 129.978 54.0422 130.047 52.6829 130.126C52.3283 128.333 52.8602 127.732 55.6379 127.407C55.0173 126.294 54.6529 125.023 53.8649 124.343C51.4418 122.373 51.2251 121.516 53.264 118.787L51.3728 117.742C51.166 116.511 50.9197 115.112 50.6932 113.713C50.6172 113.517 50.6172 113.299 50.6932 113.102C51.2538 112.371 51.6223 111.511 51.7651 110.601C51.9079 109.69 51.8205 108.759 51.5107 107.891C50.7227 107.448 50.0332 107.024 49.3142 106.65C47.7973 105.862 46.3592 104.788 44.7241 104.443C43.6603 104.207 42.3601 104.985 41.1879 105.428C40.6239 105.663 40.0831 105.95 39.5725 106.285L39.1588 105.96C39.4231 105.115 39.5527 104.234 39.543 103.349C39.241 102.341 38.8281 101.37 38.3117 100.453C38.164 100.108 38.0753 99.7537 37.9571 99.3991C38.2753 99.2825 38.6058 99.2032 38.9421 99.1626C39.6612 99.1626 40.3802 99.1626 41.1781 99.1626C40.3113 96.3451 39.1096 95.4191 37.4252 96.0791L37.3366 94.956C36.5326 94.3652 35.7812 93.706 35.0908 92.9857C34.6321 92.2411 34.2493 91.4523 33.9482 90.6312L35.2188 90.5524C34.7066 87.7842 37.0017 89.0846 37.9374 88.5821C37.9968 88.0952 38.0823 87.6118 38.1935 87.134C38.7451 85.3016 38.1246 85.1637 36.4993 84.6218C34.2634 83.8534 32.9041 85.607 31.5054 85.6562C30.8454 84.543 30.5204 83.3017 29.6831 82.7008C27.2206 80.9571 26.9448 80.4448 27.9791 77.4697C28.1564 76.9377 28.3829 76.4254 28.5996 75.8639C29.7816 75.4403 29.5846 78.2775 31.2394 76.987C30.2544 75.2038 31.8304 74.7802 32.8253 73.7852C34.5293 72.0809 36.4107 72.741 38.1738 73.0464C39.0603 73.204 39.7794 74.3468 40.6363 75.1053L40.9909 74.5536C41.7986 75.6373 42.5669 75.5388 43.6603 74.731C44.4187 74.1497 45.6303 74.1596 46.6153 73.9133C46.7138 73.9133 46.8812 73.9133 46.9206 73.9133C47.7086 74.8984 48.3095 76.455 49.9544 74.9773C51.6782 76.189 51.8358 74.5044 52.5844 73.5192L50.2598 71.7657C51.6683 71.3913 51.7373 70.4948 51.0675 69.2437L53.3231 69.0467L53.4512 68.7511L51.9146 68.0123L51.5797 66.3572C53.5497 66.0124 55.4606 65.7169 57.3813 65.2933C58.4508 65.0376 59.4957 64.6882 60.5038 64.249C61.7055 63.7564 62.8284 63.0668 64.0596 62.6531C64.7621 62.515 65.4848 62.515 66.1872 62.6531C66.6941 62.7308 67.1946 62.846 67.6844 62.9979L68.3542 65.8548C69.3246 65.8198 70.2958 65.8925 71.2501 66.0715C71.6934 66.1897 71.9298 67.0567 72.4321 67.7758L76.8449 65.7464C80.4894 67.5197 81.0607 71.5884 83.2671 74.6128L84.6264 73.4503C85.7001 75.6275 87.5814 74.2187 89.1279 74.5733C90.0144 74.7802 90.8615 76.0314 91.3244 76.9968C92.0435 78.5139 92.9694 78.4154 94.1711 77.8046C95.0871 78.7898 95.7175 79.6863 97.3822 78.4351C99.2734 76.9968 101.677 76.2481 103.824 75.1152C104.371 74.8745 104.981 74.8154 105.564 74.9466C106.147 75.0777 106.673 75.3923 107.065 75.8442C107.476 76.3116 107.982 76.686 108.549 76.9425C109.117 77.199 109.732 77.3317 110.355 77.3318C110.867 77.3318 111.34 77.4894 111.901 77.4697C112.463 77.45 112.975 77.4697 113.201 77.1741C113.544 76.6935 113.749 76.1278 113.792 75.5388C113.756 74.6626 113.805 73.7849 113.94 72.9183C114 72.6643 114.123 72.4293 114.296 72.2347C114.47 72.0401 114.69 71.892 114.936 71.8039C115.181 71.7158 115.445 71.6905 115.703 71.7303C115.961 71.7701 116.205 71.8737 116.412 72.0317C117.299 72.475 118.382 72.5637 119.269 73.0168C119.543 73.1488 119.788 73.3345 119.99 73.5629C120.191 73.7914 120.345 74.0579 120.441 74.3468C120.513 74.7735 120.68 75.1784 120.93 75.5313C121.181 75.8841 121.507 76.1757 121.886 76.3842C122.266 76.5928 122.687 76.7127 123.119 76.7352C123.551 76.7577 123.982 76.6821 124.381 76.5141C126.745 75.5289 128.41 75.9723 130.094 78.1396C130.218 78.3104 130.376 78.4545 130.557 78.5632C132.527 79.6567 137.363 79.0755 139.018 77.578C140.062 76.5929 140.988 75.9328 142.505 77.1052C143.49 77.8637 144.977 78.0017 146.268 78.2775C147.253 78.4844 149.223 76.6027 149.548 75.6373C149.801 74.3941 150.322 73.2209 151.075 72.1991C152.158 71.0662 152.06 70.3471 150.986 69.4604C151.369 68.8965 151.899 68.4485 152.519 68.1654C153.139 67.8822 153.825 67.7747 154.502 67.8546C154.899 67.815 155.288 67.7154 155.655 67.5591C155.94 67.4803 156.295 67.2537 156.512 67.3424C158.482 68.2389 160.649 68.9482 161.309 71.5095C161.851 73.4742 162.509 75.4052 163.279 77.2924C163.391 77.537 163.558 77.7529 163.766 77.9236C163.974 78.0943 164.218 78.2153 164.48 78.2775C166.608 78.4548 167.701 79.8242 168.42 81.558C168.524 81.9055 168.712 82.2223 168.966 82.4808C169.22 82.7394 169.534 82.9319 169.879 83.0416C170.225 83.1514 170.592 83.175 170.949 83.1104C171.306 83.0459 171.642 82.8951 171.927 82.6713L172.685 82.1294C173.67 81.4103 174.586 81.2526 174.902 82.4841C174.468 83.6958 174.143 84.7499 173.71 85.7646C173.299 86.7901 172.801 87.7788 172.222 88.7201C172.075 88.9663 171.454 88.9368 171.05 89.0156C170.646 89.0944 169.819 89.0156 169.543 89.321C169.36 89.5437 169.229 89.8037 169.157 90.0829C169.086 90.362 169.076 90.6535 169.13 90.9366C169.632 92.3454 169.258 93.232 168.401 94.4832C167.652 95.5767 166.312 96.6209 166.431 98.4238C166.48 99.0444 165.534 99.8522 164.894 100.394C164.117 100.972 163.3 101.495 162.451 101.96Z" fill="#5CB1FF"/>
<path d="M149.065 165.069C147.676 164.931 147.144 165.305 147.903 166.478L146.406 166.586C145.765 168.891 147.253 170.379 148.435 172.251C146.553 171.896 145.903 172.743 146.14 174.408C146.14 174.556 146.14 174.802 146.051 174.851C144.445 175.837 144.731 177.886 143.657 179.107C143.096 179.748 142.544 181.284 141.224 179.56C140.83 179.048 139.461 179.226 138.535 179.166C137.846 179.166 137.019 179.895 136.565 178.674C136.487 178.467 135.797 178.536 135.452 178.359C134.96 178.112 134.329 177.856 134.103 177.373C133.401 176.055 132.808 174.681 132.33 173.265C132.224 172.956 132.183 172.629 132.21 172.303C132.237 171.977 132.331 171.661 132.488 171.374C132.715 171.161 132.99 171.006 133.291 170.923C133.591 170.841 133.907 170.833 134.211 170.901C135.196 171.266 135.521 170.901 135.876 170.044C136.083 169.551 136.772 169.266 137.255 168.911C137.915 168.428 138.585 167.926 139.225 167.502C140.21 166.832 141.323 166.271 142.269 165.532C142.871 165.009 143.375 164.381 143.756 163.68C144.83 161.897 145.401 161.897 146.711 163.512C147.419 164.138 148.212 164.662 149.065 165.069V165.069Z" fill="#5CB1FF"/>
<path d="M185.599 188.653C184.84 188.138 184.006 187.742 183.126 187.481C182.257 187.525 181.399 187.705 180.585 188.013C180.24 186.456 180.822 185.905 182.053 186.043C181.61 182.565 179.374 181.383 176.291 181.215C175.943 181.135 175.622 180.969 175.355 180.733C174.37 180.102 173.473 179.748 172.4 180.624L170.942 178.26L172.222 177.777L168.539 175.58C170.331 174.979 172.085 173.246 174.094 175.718C173.922 176.468 174.027 177.255 174.389 177.934C174.751 178.612 175.346 179.138 176.064 179.413C177.086 178.727 178.048 177.956 178.94 177.107C179.092 176.895 179.285 176.716 179.509 176.581C179.732 176.446 179.981 176.359 180.24 176.325C180.499 176.291 180.762 176.31 181.013 176.382C181.263 176.454 181.497 176.577 181.698 176.743C182.466 177.186 183.461 177.206 184.269 177.6C184.771 177.846 185.461 178.418 185.481 178.861C185.648 182.112 185.599 185.373 185.599 188.653Z" fill="#5CB1FF"/>
<path d="M126.627 182.949C125.929 183.212 125.163 183.236 124.45 183.017C123.737 182.797 123.117 182.347 122.687 181.738C121.928 180.821 120.943 180.073 120.175 179.147C119.407 178.221 118.707 177.088 117.969 176.053C117.585 175.511 117.171 174.989 116.806 174.438C116.294 173.63 115.88 172.753 115.309 171.995C114.442 170.862 113.516 169.778 112.561 168.724C111.606 167.67 110.69 166.872 109.803 165.906C109.502 165.491 109.244 165.045 109.035 164.576C110.148 164.803 111.074 164.951 111.99 165.217C112.57 165.369 113.111 165.644 113.576 166.025C114.955 167.315 116.146 168.812 117.624 169.965C119.259 171.139 120.955 172.224 122.707 173.216C122.224 175.009 122.45 175.364 124.214 175.787C124.548 176.772 124.45 178.014 126.016 178.083C126.262 178.083 126.637 178.792 126.666 179.186C126.676 180.447 126.627 181.757 126.627 182.949Z" fill="#5CB1FF"/>
<path d="M183.875 111.3C183.215 109.526 182.033 110.669 181.452 111.132C180.556 111.851 179.935 112.117 179.019 111.3C178.901 111.191 178.418 111.497 178.113 111.605C178.94 113.014 177 113.122 177.049 114.157H176.566L176.123 111.851C173.73 110.137 171.74 113.93 168.795 113.083C170.026 112.098 170.972 111.004 172.154 110.58C173.336 110.157 174.862 110.472 176.212 110.285C176.714 110.216 177.197 109.684 177.601 109.3C178.201 108.768 178.655 107.97 179.344 107.655C180.367 107.279 181.292 106.676 182.048 105.891C182.804 105.106 183.371 104.16 183.708 103.123C184.161 101.566 184.377 99.9408 184.693 98.3942C186.515 98.1479 187.096 99.6453 187.332 100.729C187.529 101.635 186.712 102.699 186.347 103.783C186.091 104.532 185.815 105.27 185.628 106.039C185.205 107.792 184.83 109.566 184.436 111.329L183.875 111.3Z" fill="#5CB1FF"/>
<path d="M184.446 97.478L183.717 94.8969L186.042 92.9956L186.475 93.3404C186.761 91.8627 187.047 90.385 187.352 88.8284C188.889 90.0993 190.031 92.2272 192.563 91.7839V93.6556L192.208 93.3108L188.879 95.8328C187.894 94.7886 186.377 94.7492 184.673 95.4486L185.49 96.4338L184.446 97.478Z" fill="#5CB1FF"/>
<path d="M141.126 188.003C135.846 187.245 130.921 186.87 126.351 184.959C127.139 183.57 127.957 183.373 129.582 183.974C131.01 184.476 132.281 185.481 133.975 185.176C134.938 185.087 135.908 185.087 136.871 185.176C137.078 185.176 137.422 185.176 137.472 185.284C138.063 186.644 139.215 186.654 140.427 186.663C140.584 186.624 140.781 187.333 141.126 188.003Z" fill="#5CB1FF"/>
<path d="M150.237 174.753C151.291 175.945 152.02 176.497 153.035 175.275C153.31 174.94 154.236 175.147 155.005 175.393L153.222 176.94C153.714 178.063 154.266 179.294 154.837 180.605L153.517 181.59L152.04 178.191C150.897 178.191 150.858 178.26 150.858 180.073V183.028C149.124 183.452 149.311 182.27 149.636 181.521C150.119 180.418 149.715 179.866 148.888 179.294C148.781 179.203 148.7 179.087 148.65 178.956C148.6 178.826 148.583 178.684 148.602 178.546C149.085 177.354 149.607 176.221 150.237 174.753Z" fill="#5CB1FF"/>
<path d="M154.069 142.351C154.197 143.149 154.069 143.721 154.374 144.046C155.074 144.933 154.581 145.455 154 146.016C153.241 146.794 152.611 147.563 153.163 148.824C153.31 149.188 152.7 149.878 152.178 150.361C152.296 149.208 152.414 148.39 150.917 148.449C150.612 148.449 150.296 147.1 149.932 146.213L150.779 146.361C150.986 145.218 151.084 144.085 151.39 143.011C151.882 141.258 153.34 143.612 154.069 142.351Z" fill="#5CB1FF"/>
<path d="M155.31 160.813L156.206 159.04C158.068 160.616 158.984 158.488 160.629 158.153L161.614 161.848C158.166 160.774 160.334 163.118 159.733 164.035C159.083 163.719 158.383 163.404 157.763 163.049C157.556 162.941 157.28 162.586 157.329 162.448C157.851 160.577 156.522 160.843 155.31 160.813Z" fill="#5CB1FF"/>
<path d="M83.5232 157.769C84.246 158.176 84.8665 158.742 85.3376 159.425C85.8087 160.108 86.1179 160.889 86.2418 161.71C86.5767 163.158 85.1287 163.256 84.2718 163.611C84.1043 163.68 83.1193 162.626 83.0898 162.054C83.1276 160.617 83.2725 159.185 83.5232 157.769V157.769Z" fill="#5CB1FF"/>
<path d="M153.458 130.687L151.951 135.613C150.089 134.254 150.7 131.84 152.936 130.559L153.458 130.687Z" fill="#5CB1FF"/>
<path d="M169.386 118.008L168.145 117.339C168.346 116.784 168.44 116.195 168.42 115.605C168.332 115.25 167.682 115.033 167.169 114.669C167.289 114.477 167.449 114.313 167.638 114.189C167.827 114.065 168.041 113.983 168.265 113.949C168.489 113.915 168.717 113.931 168.934 113.994C169.152 114.057 169.353 114.166 169.524 114.314C171.592 115.595 169.307 116.679 169.386 118.008Z" fill="#5CB1FF"/>
<path d="M135.118 139.958C134.806 140.642 134.409 141.284 133.936 141.869C133.454 142.287 132.863 142.557 132.232 142.647C132.054 142.647 131.443 141.731 131.562 141.494C131.853 140.865 132.34 140.346 132.951 140.017C133.663 139.864 134.398 139.843 135.118 139.958V139.958Z" fill="#5CB1FF"/>
<path d="M151.094 172.664C151.892 170.625 153.271 171.679 154.177 171.926C155.96 172.428 157.497 172.605 158.866 170.763C158.442 172.733 157.487 173.167 155.98 172.792C154.946 172.639 153.899 172.599 152.857 172.674L151.094 172.664Z" fill="#5CB1FF"/>
<path d="M156.876 190.9C157.201 189.284 159.831 187.944 162.008 188.043L156.876 190.9Z" fill="#5CB1FF"/>
<path d="M174.665 113.418L171.71 115.447C171.641 115.073 171.306 114.186 171.484 114.078C172.389 113.552 173.335 113.097 174.311 112.718L174.665 113.418Z" fill="#5CB1FF"/>
<path d="M153.409 188.279H149.981C151.242 186.752 152.355 188.368 153.409 188.279Z" fill="#5CB1FF"/>
<path d="M156.394 151.572L154.424 150.292L154.857 149.415L156.827 151.267L156.394 151.572Z" fill="#5CB1FF"/>
<path d="M213.208 28.8921H6.80157V33.9557H213.208V28.8921Z" fill="#231F20"/>
<path d="M213.198 34.4384H6.80158C6.67096 34.4384 6.54569 34.3865 6.45333 34.2942C6.36097 34.2018 6.30908 34.0765 6.30908 33.9459V28.892C6.30908 28.7614 6.36097 28.6361 6.45333 28.5437C6.54569 28.4514 6.67096 28.3995 6.80158 28.3995H213.198C213.329 28.3995 213.454 28.4514 213.547 28.5437C213.639 28.6361 213.691 28.7614 213.691 28.892V33.9853C213.681 34.109 213.625 34.2243 213.533 34.3084C213.442 34.3924 213.323 34.4388 213.198 34.4384V34.4384ZM7.33348 33.4533H212.716V29.3748H7.28423L7.33348 33.4533Z" fill="#231F20"/>
<path d="M26.918 220.85H20.222L18.836 224H16.982L22.688 211.4H24.47L30.194 224H28.304L26.918 220.85ZM26.288 219.41L23.57 213.236L20.852 219.41H26.288ZM34.4697 224.108C33.6897 224.108 32.9397 224.006 32.2197 223.802C31.4997 223.586 30.9357 223.316 30.5277 222.992L31.2477 221.624C31.6677 221.924 32.1777 222.164 32.7777 222.344C33.3777 222.524 33.9837 222.614 34.5957 222.614C36.1077 222.614 36.8637 222.182 36.8637 221.318C36.8637 221.03 36.7617 220.802 36.5577 220.634C36.3537 220.466 36.0957 220.346 35.7837 220.274C35.4837 220.19 35.0517 220.1 34.4877 220.004C33.7197 219.884 33.0897 219.746 32.5977 219.59C32.1177 219.434 31.7037 219.17 31.3557 218.798C31.0077 218.426 30.8337 217.904 30.8337 217.232C30.8337 216.368 31.1937 215.678 31.9137 215.162C32.6337 214.634 33.5997 214.37 34.8117 214.37C35.4477 214.37 36.0837 214.448 36.7197 214.604C37.3557 214.76 37.8777 214.97 38.2857 215.234L37.5477 216.602C36.7677 216.098 35.8497 215.846 34.7937 215.846C34.0617 215.846 33.5037 215.966 33.1197 216.206C32.7357 216.446 32.5437 216.764 32.5437 217.16C32.5437 217.472 32.6517 217.718 32.8677 217.898C33.0837 218.078 33.3477 218.21 33.6597 218.294C33.9837 218.378 34.4337 218.474 35.0097 218.582C35.7777 218.714 36.3957 218.858 36.8637 219.014C37.3437 219.158 37.7517 219.41 38.0877 219.77C38.4237 220.13 38.5917 220.634 38.5917 221.282C38.5917 222.146 38.2197 222.836 37.4757 223.352C36.7437 223.856 35.7417 224.108 34.4697 224.108ZM49.0175 214.46L44.3915 224.954C43.9835 225.926 43.5035 226.61 42.9515 227.006C42.4115 227.402 41.7575 227.6 40.9895 227.6C40.5215 227.6 40.0655 227.522 39.6215 227.366C39.1895 227.222 38.8295 227.006 38.5415 226.718L39.2795 225.422C39.7715 225.89 40.3415 226.124 40.9895 226.124C41.4095 226.124 41.7575 226.01 42.0335 225.782C42.3215 225.566 42.5795 225.188 42.8075 224.648L43.1135 223.982L38.9015 214.46H40.7015L44.0315 222.092L47.3255 214.46H49.0175ZM53.8054 214.37C55.1254 214.37 56.1334 214.694 56.8294 215.342C57.5374 215.99 57.8914 216.956 57.8914 218.24V224H56.2534V222.74C55.9654 223.184 55.5514 223.526 55.0114 223.766C54.4834 223.994 53.8534 224.108 53.1214 224.108C52.0534 224.108 51.1954 223.85 50.5474 223.334C49.9114 222.818 49.5934 222.14 49.5934 221.3C49.5934 220.46 49.8994 219.788 50.5114 219.284C51.1234 218.768 52.0954 218.51 53.4274 218.51H56.1634V218.168C56.1634 217.424 55.9474 216.854 55.5154 216.458C55.0834 216.062 54.4474 215.864 53.6074 215.864C53.0434 215.864 52.4914 215.96 51.9514 216.152C51.4114 216.332 50.9554 216.578 50.5834 216.89L49.8634 215.594C50.3554 215.198 50.9434 214.898 51.6274 214.694C52.3114 214.478 53.0374 214.37 53.8054 214.37ZM53.4094 222.776C54.0694 222.776 54.6394 222.632 55.1194 222.344C55.5994 222.044 55.9474 221.624 56.1634 221.084V219.752H53.4994C52.0354 219.752 51.3034 220.244 51.3034 221.228C51.3034 221.708 51.4894 222.086 51.8614 222.362C52.2334 222.638 52.7494 222.776 53.4094 222.776Z" fill="black"/>
</svg>
