<svg width="220" height="246" viewBox="0 0 220 246" fill="none" xmlns="http://www.w3.org/2000/svg">
<path d="M207.013 19.5036H206.924L110 2.11576L13.076 19.4938C13.0118 19.5065 12.9457 19.506 12.8817 19.4923C12.8177 19.4787 12.7571 19.4522 12.7037 19.4144C12.6503 19.3766 12.6051 19.3284 12.5709 19.2726C12.5366 19.2168 12.5141 19.1546 12.5047 19.0898C12.4817 18.9619 12.5102 18.83 12.584 18.723C12.6578 18.6159 12.7709 18.5424 12.8987 18.5185L109.911 1.13062H110.089L207.101 18.5185C207.229 18.5424 207.342 18.6159 207.416 18.723C207.49 18.83 207.518 18.9619 207.495 19.0898C207.479 19.2056 207.42 19.3113 207.332 19.3874C207.243 19.4635 207.13 19.5048 207.013 19.5036Z" fill="#D1D3D4"/>
<path d="M213.208 28.8921H6.80156V235.33H213.208V28.8921Z" fill="white"/>
<path d="M213.198 235.773H6.80155C6.74168 235.774 6.68216 235.764 6.62658 235.741C6.57099 235.719 6.52051 235.686 6.47816 235.643C6.43582 235.601 6.40249 235.55 6.3802 235.495C6.3579 235.439 6.3471 235.38 6.34845 235.32V28.8921C6.3471 28.8322 6.3579 28.7727 6.3802 28.7171C6.40249 28.6615 6.43582 28.611 6.47816 28.5686C6.52051 28.5263 6.57099 28.4929 6.62658 28.4706C6.68216 28.4484 6.74168 28.4375 6.80155 28.4389H213.198C213.258 28.4375 213.318 28.4484 213.373 28.4706C213.429 28.4929 213.479 28.5263 213.522 28.5686C213.564 28.611 213.598 28.6615 213.62 28.7171C213.642 28.7727 213.653 28.8322 213.652 28.8921V235.32C213.653 235.38 213.642 235.439 213.62 235.495C213.598 235.55 213.564 235.601 213.522 235.643C213.479 235.686 213.429 235.719 213.373 235.741C213.318 235.764 213.258 235.774 213.198 235.773ZM7.2448 234.876H212.755V29.3354H7.2448V234.876Z" fill="#231F20"/>
<path d="M218.714 19.011H1.28555V28.8921H218.714V19.011Z" fill="white"/>
<path d="M218.714 29.3354H1.28554C1.16706 29.3354 1.05328 29.289 0.968584 29.2061C0.883889 29.1233 0.835019 29.0105 0.832443 28.892V19.0406C0.832443 18.9204 0.880185 18.8051 0.965157 18.7201C1.05013 18.6351 1.16537 18.5874 1.28554 18.5874H218.714C218.835 18.5874 218.95 18.6351 219.035 18.7201C219.12 18.8051 219.168 18.9204 219.168 19.0406V28.892C219.165 29.0105 219.116 29.1233 219.031 29.2061C218.947 29.289 218.833 29.3354 218.714 29.3354V29.3354ZM1.73864 28.4389H218.261V19.4543H1.73864V28.4389Z" fill="#231F20"/>
<path d="M218.714 235.32H1.28555V245.201H218.714V235.32Z" fill="white"/>
<path d="M218.714 245.654H1.28554C1.16537 245.654 1.05013 245.606 0.965157 245.521C0.880185 245.436 0.832443 245.321 0.832443 245.201V235.349C0.835019 235.231 0.883889 235.118 0.968584 235.035C1.05328 234.952 1.16706 234.906 1.28554 234.906H218.714C218.833 234.906 218.947 234.952 219.031 235.035C219.116 235.118 219.165 235.231 219.168 235.349V245.201C219.168 245.321 219.12 245.436 219.035 245.521C218.95 245.606 218.835 245.654 218.714 245.654ZM1.73864 244.807H218.261V235.822H1.73864V244.807Z" fill="#231F20"/>
<path d="M110 6.3519C111.73 6.3519 113.132 4.94931 113.132 3.21913C113.132 1.48895 111.73 0.0863647 110 0.0863647C108.27 0.0863647 106.868 1.48895 106.868 3.21913C106.868 4.94931 108.27 6.3519 110 6.3519Z" fill="#D1D3D4"/>
<path d="M93.7376 129.032C93.3929 128.766 93.0481 128.481 92.6935 128.224C92.355 127.944 92.0952 127.581 91.9398 127.17C91.7844 126.758 91.7386 126.314 91.807 125.88L92.792 125.693L92.5458 125.2C92.7132 125.2 92.8807 125.2 92.9299 125.2C93.0539 125.366 93.1658 125.54 93.2648 125.722L94.7916 125.072C94.7916 124.934 94.7916 124.609 94.9492 124.491C95.747 123.87 95.2644 123.279 94.9492 122.678C94.5878 122.04 94.3753 121.328 94.3275 120.596C94.2798 119.865 94.398 119.131 94.6734 118.452C93.6884 118.127 93.58 116.925 94.3483 115.408L93.5111 115.014V115.211C92.9821 115.287 92.4634 115.422 91.9646 115.615C91.2434 115.952 90.5654 116.376 89.9454 116.876C89.5785 117.18 89.1491 117.399 88.6877 117.518C88.2263 117.638 87.7443 117.654 87.276 117.565C86.8328 117.506 86.2319 117.476 86.488 116.698C86.488 116.649 86.2812 116.531 86.2024 116.422C85.8252 115.933 85.4954 115.408 85.2174 114.856C84.981 114.275 85.0795 114.294 85.7493 113.969C86.0842 113.812 86.291 113.408 86.4979 113.171L85.1977 112.304L85.2666 111.94L86.5373 111.644V111.083L87.2859 110.699L87.2169 110.531L86.5964 110.837L86.0645 109.684L87.1775 109.063C86.3107 108.985 86.1925 108.531 86.3895 107.94C86.5865 107.349 87.2169 106.669 87.0987 106.157C86.8919 105.172 87.9064 104.906 87.8572 104.187C89.0687 104.463 89.7484 104.118 89.8272 103.123C90.3591 103.192 91.1471 103.625 90.9205 102.354C91.2653 102.354 91.5312 102.414 91.807 102.414C92.4177 102.414 93.1072 102.601 93.452 101.803C93.4919 101.735 93.5478 101.678 93.6147 101.637C93.6817 101.596 93.7577 101.571 93.8361 101.566C94.8999 101.616 95.2447 100.719 95.8061 100.118C96.234 99.6557 96.7094 99.2397 97.2245 98.8769C97.4117 98.7587 97.7761 98.8769 98.0913 98.8769C97.8352 98.0494 98.3376 97.8129 99.1945 97.6356C99.4416 97.5435 99.6615 97.3904 99.8337 97.1907C100.006 96.9909 100.125 96.7509 100.18 96.4928C100.091 95.5077 100.751 94.9856 101.165 94.296C101.342 94.0201 101.165 93.5177 101.391 93.3108C101.829 92.7487 102.383 92.2882 103.016 91.9612C103.529 91.7444 103.765 90.9169 104.179 90.3948C104.505 90.0075 104.854 89.6391 105.223 89.2914C105.087 89.2277 104.955 89.1553 104.829 89.0747L107.301 88.0895L106.444 87.6856L106.661 87.4984C107.006 87.2719 107.508 87.1241 107.646 86.799C108.381 85.5272 109.528 84.5438 110.896 84.011C111.054 83.9322 111.31 84.0701 111.517 84.011C111.881 84.011 112.236 83.8534 112.797 83.7253L111.97 82.9963C112.365 82.8896 112.781 82.8805 113.181 82.9698C113.58 83.059 113.952 83.2439 114.265 83.5086C114.629 83.1539 115.023 82.7796 115.398 82.3855C115.516 82.2575 115.683 81.9619 115.634 81.9127C115.567 81.8279 115.521 81.7283 115.5 81.6221C115.478 81.5158 115.483 81.4061 115.513 81.302C115.543 81.1979 115.597 81.1025 115.671 81.0236C115.745 80.9448 115.837 80.8848 115.94 80.8487C116.274 80.7009 116.757 80.8487 117.328 80.9571C117.052 81.3469 116.801 81.755 116.58 82.1786C116.445 82.5541 116.34 82.9394 116.265 83.3313L116.481 83.4298L117.89 81.0359L118.018 82.4545H118.205L118.845 80.3167L119.2 80.2379L119.909 81.4201L120.342 80.9669L122.795 82.3855V82.7008L121.13 83.4889L121.436 84.6415L122.047 83.9125C122.697 84.0012 123.455 84.7105 123.918 83.4101L125.021 84.2869L123.908 84.612C124.705 84.9058 125.542 85.0753 126.39 85.1144C127.878 84.9174 128.942 85.6365 130.114 86.2966C131.042 86.877 132.033 87.3496 133.069 87.7053C134.655 88.1388 135.807 89.055 136.024 90.444C136.064 90.9567 135.996 91.4722 135.824 91.9567C135.651 92.4413 135.379 92.884 135.023 93.2559C134.668 93.6279 134.239 93.9207 133.763 94.1151C133.287 94.3096 132.775 94.4015 132.261 94.3846C131.113 94.2788 129.972 94.1078 128.843 93.8723C127.795 93.5761 126.763 93.2276 125.75 92.8281L125.504 92.9956C125.753 93.0739 125.991 93.1831 126.213 93.3207C127.06 94.0792 127.907 94.8575 128.715 95.6555C128.791 95.7483 128.848 95.8554 128.881 95.9704C128.915 96.0855 128.926 96.2062 128.912 96.3254C128.855 97.283 129.134 98.2305 129.7 99.005C129.808 99.202 129.7 99.5271 129.7 99.7241C130.728 100.249 131.784 100.719 132.862 101.133C133.758 101.428 134.093 101.015 133.955 100C133.417 99.9989 132.891 99.842 132.44 99.5483C131.989 99.2546 131.633 98.8367 131.414 98.3449L132.015 97.4484C132.852 97.6258 133.65 97.8326 134.467 97.9804C135.285 98.1282 136.063 98.1873 136.871 98.2858L137.028 97.9706C136.625 97.4681 136.231 96.9854 135.797 96.4534C135.664 96.3397 135.557 96.1984 135.484 96.0394C135.411 95.8804 135.373 95.7074 135.373 95.5323C135.373 95.3572 135.411 95.1842 135.484 95.0252C135.557 94.8662 135.664 94.725 135.797 94.6112C136.387 93.8335 136.93 93.0209 137.422 92.1779C137.642 91.927 137.945 91.7653 138.276 91.7236C138.606 91.6818 138.94 91.7628 139.215 91.9513L139.964 92.4045C140.171 90.0204 139.964 89.6362 138.821 89.449C138.082 88.1289 139.107 86.0798 136.851 85.2917C140.397 84.9174 140.397 84.9174 141.451 86.7103C141.132 86.8462 140.822 87.0042 140.525 87.1832C139.786 87.7053 139.826 88.3063 140.584 88.7496C141.126 89.0648 141.569 89.5771 142.328 89.449C143.086 89.321 143.401 89.183 143.313 88.4639C143.292 88.3064 143.255 88.1513 143.204 88.0009C142.899 87.1832 142.85 86.4837 144.051 86.267L143.441 85.5971L143.569 85.4887C143.884 85.2745 144.174 85.0268 144.436 84.7499C145.027 84.0209 145.578 83.2426 146.12 82.4742C146.337 82.1688 146.475 81.8141 146.691 81.489C146.908 81.164 147.341 80.6714 147.745 80.1689L148.425 82.2082L149.489 81.8141C149.43 80.3561 149.489 80.3955 150.897 79.8439C151.193 79.7355 151.419 79.2823 151.547 78.9375C151.931 77.9524 152.454 77.647 153.084 78.1198C153.35 78.3169 153.448 78.7405 153.626 79.105H153.783C153.827 78.6756 153.92 78.2526 154.059 77.844C154.345 77.2628 154.256 76.9771 153.675 76.6323C153.094 76.2875 152.345 75.854 152.522 74.9083C152.631 74.7408 152.7 74.4452 152.838 74.4157C154.098 74.0906 155.369 73.8049 156.65 73.5389C156.856 73.5389 157.103 73.6079 157.31 73.5389C160.097 72.8198 161.161 75.1447 162.658 76.6323C162.944 76.9081 162.914 77.6174 162.885 78.0706C162.819 79.4426 162.685 80.8104 162.481 82.1688C162.284 83.2919 161.89 84.3854 161.584 85.4887C161.291 86.3691 161.054 87.2675 160.875 88.1782C160.828 88.7039 160.957 89.2303 161.24 89.6756C163.328 92.9759 164.136 96.8081 165.771 100.296C166.391 101.625 166.825 103.044 167.386 104.394C168.056 106.019 168.706 107.595 168.184 109.457C167.859 110.64 168.243 111.053 169.435 111.428L170.262 111.694C170.434 111.745 170.591 111.837 170.719 111.962C170.848 112.087 170.944 112.241 171 112.412C171.056 112.582 171.07 112.763 171.041 112.94C171.012 113.117 170.941 113.284 170.834 113.428C170.243 114.235 169.632 115.014 169.041 115.812C168.736 116.215 168.47 116.639 168.145 117.102C169.258 117.811 170.252 118.491 171.287 119.072C171.629 119.246 172.025 119.28 172.393 119.168C172.76 119.056 173.069 118.807 173.257 118.471C173.547 117.92 173.877 117.39 174.242 116.885C174.368 116.756 174.523 116.657 174.694 116.597C174.865 116.537 175.047 116.518 175.227 116.541C175.493 116.61 175.749 117.004 175.857 117.309C175.983 117.706 176.027 118.126 175.985 118.54C175.867 119.782 176.616 120.659 177.226 121.575C177.423 121.771 177.68 121.895 177.955 121.929C178.645 122.077 179.354 122.146 180.034 122.323C180.328 122.387 180.587 122.564 180.753 122.816C180.803 122.981 180.888 123.134 181.002 123.264C181.116 123.394 181.257 123.498 181.414 123.57C181.571 123.642 181.742 123.679 181.915 123.68C182.088 123.681 182.259 123.645 182.417 123.575C182.831 123.466 183.402 123.259 183.639 123.939C183.875 124.619 184.2 125.131 183.55 125.673C183.166 125.998 182.752 126.294 182.368 126.658C181.984 127.023 181.777 127.357 181.383 127.446C180.711 127.579 180.029 127.649 179.344 127.653C179.009 127.653 178.674 127.653 178.359 127.702C177.443 127.85 176.537 128.037 175.621 128.175C172.807 128.517 170.133 129.594 167.869 131.298C166.372 132.461 165.623 133.564 166.165 135.396C166.225 135.701 166.335 135.994 166.49 136.263C166.843 136.761 167.224 137.238 167.632 137.692C168.115 138.243 168.617 138.766 169.13 139.307C169.225 139.439 169.298 139.585 169.346 139.741C169.927 141.386 170.509 143.041 171.04 144.578C170.39 145.307 169.849 145.918 169.297 146.548C168.745 147.179 168.312 147.533 167.829 148.115C167.711 148.243 167.77 148.518 167.691 148.696C167.549 148.973 167.38 149.237 167.189 149.484C166.4 150.377 165.688 151.336 165.061 152.351C164.642 153.394 164.329 154.476 164.126 155.582L166.667 157.119C166.667 157.217 166.726 157.434 166.736 157.651C166.695 158.486 166.914 159.312 167.362 160.018C167.81 160.723 168.465 161.273 169.238 161.591C170.129 162.16 170.958 162.82 171.71 163.562C172.479 164.123 173.07 165.059 174.301 164.764C174.616 164.685 175.049 165.069 175.65 165.335C173.68 165.788 173.572 165.936 173.818 167.729C173.956 168.714 173.631 168.98 172.774 168.497C171.471 167.811 169.973 167.592 168.529 167.877C168.24 167.893 167.952 167.835 167.691 167.709C165.938 167.039 164.205 166.34 162.441 165.68C162.137 165.595 161.82 165.565 161.506 165.591C159.427 165.591 157.339 165.591 155.251 165.591C154.906 165.591 154.581 165.187 154.266 164.98C153.498 164.517 152.759 163.995 151.951 163.601C150.966 163.108 149.853 162.724 148.799 162.281L146.199 161.148C145.972 161.048 145.757 160.923 145.559 160.774C145.401 160.665 145.233 160.389 145.135 160.409C143.874 160.754 143.372 159.06 141.983 159.572L142.338 158.468H144.396C143.51 157.089 144.396 156.38 145.046 155.631L143.835 154.508L146.918 152.213L146.809 151.907C146.474 151.92 146.142 151.983 145.824 152.095C144.839 152.597 143.854 153.149 142.919 153.71C142.603 153.888 142.367 154.193 142.052 154.36C141.451 154.676 140.821 154.932 140.2 155.208C140.023 155.277 139.777 155.208 139.649 155.346C139.087 155.838 138.555 156.331 138.004 156.882C138.516 159.01 139.914 159.306 141.806 158.321C141.756 160.104 141.293 160.419 140.102 160.025C139.176 160.577 138.466 161.01 137.757 161.444C137.602 161.539 137.476 161.675 137.393 161.838C136.92 162.705 136.211 162.655 135.354 162.448C135.424 162.197 135.474 161.94 135.502 161.68C135.502 161.03 135.393 160.478 134.517 160.409C133.935 160.302 133.362 160.151 132.803 159.956L135.078 157.838L134.152 157.217C133.836 157.533 133.424 157.736 132.981 157.794C132.538 157.853 132.087 157.765 131.7 157.542C131.358 157.29 131.029 157.02 130.715 156.735C130.56 156.626 130.384 156.553 130.198 156.52C130.012 156.487 129.822 156.496 129.64 156.545C129.457 156.593 129.288 156.682 129.144 156.803C128.999 156.924 128.883 157.076 128.804 157.247C128.41 158.005 128.272 158.892 127.356 159.345C127.124 159.483 126.946 159.696 126.853 159.949C126.759 160.202 126.756 160.479 126.844 160.734C127.021 161.631 126.844 162.409 125.75 162.705C124.923 162.931 124.933 163.818 124.765 164.507C124.721 164.887 124.721 165.271 124.765 165.65C124.765 166.882 124.765 166.921 123.554 167.098L123.002 169.63L122.726 169.571C122.933 169.851 123.111 170.152 123.258 170.468C123.751 171.719 124.322 172.861 125.868 173.068C126.036 173.068 126.223 173.482 126.243 173.728C126.262 173.975 125.927 174.063 125.721 174.113C125.316 174.206 124.904 174.265 124.489 174.29C123.554 174.379 122.647 174.191 121.919 175.216C121.167 175.973 120.264 176.564 119.269 176.95L120.254 175.59C119.623 175.777 119.269 175.452 118.757 174.989C118.44 174.692 118.04 174.499 117.611 174.435C117.181 174.372 116.742 174.441 116.353 174.635C115.464 174.989 114.552 175.285 113.625 175.521L114.127 176.349L113.694 176.477L114.235 177.403L114.078 177.511L113.093 176.772L112.945 176.93L113.369 177.501L113.162 177.699L111.143 175.728C110.286 177.521 112.128 178.447 112.689 179.984L111.477 179.275L111.793 180.457L111.143 180.792L111.399 180.92C112.323 181.406 113.2 181.976 114.019 182.624C114.344 182.91 114.206 183.698 114.304 184.457C113.487 184.033 113.201 182.821 112.137 183.797L112.975 185.136L111.113 185.008L112.098 187.964L111.911 188.082L110.591 187.038L110.079 188.131L109.212 186.259L108.493 187.333C108.266 186.86 107.932 186.496 107.991 186.21C108.118 185.703 108.064 185.166 107.837 184.695C107.611 184.223 107.226 183.846 106.749 183.629L107.882 182.142C106.996 182.398 106.897 181.846 106.651 181.304C106.042 180.248 105.368 179.231 104.632 178.26C104.052 177.477 103.512 176.665 103.016 175.827C102.893 175.389 102.893 174.925 103.016 174.487C103.098 173.866 103.22 173.25 103.381 172.645C103.493 172.339 103.628 172.043 103.785 171.758C102.869 170.862 101.953 169.985 101.046 169.088C100.14 168.192 99.1354 167.039 98.0913 166.133C97.4384 165.759 96.7351 165.48 96.0031 165.305C96.21 164.212 94.0922 163.946 94.6143 162.645C94.4074 162.084 94.2203 161.66 94.0922 161.178C94.0386 160.766 93.9463 160.36 93.8165 159.966C93.5505 159.434 93.1269 159.286 92.7034 159.848C92.4704 160.199 92.2067 160.528 91.9154 160.833C91.807 159.926 90.8122 159.158 91.6691 158.124C90.5758 157.355 89.6499 158.675 88.6353 158.262C88.5762 158.419 88.5073 158.518 88.527 158.587C88.7535 159.316 89.3347 160.005 88.3398 160.724C88.1724 160.843 88.5467 161.897 88.8422 162.419C89.165 162.86 89.5537 163.249 89.9946 163.571C90.3358 163.879 90.6118 164.252 90.8064 164.669C91.0009 165.085 91.1101 165.536 91.1274 165.995C91.2236 166.786 91.5 167.545 91.9355 168.213C92.3709 168.881 92.9538 169.44 93.6391 169.847C93.8952 170.024 94.3089 169.975 94.6241 170.054C94.9393 170.133 95.5599 170.28 96.2592 170.458L95.1757 171.325C95.5402 171.61 95.8357 171.886 96.1607 172.103C97.2836 172.832 98.4262 173.541 99.559 174.251C100.054 174.552 100.425 175.02 100.606 175.571C100.787 176.122 100.765 176.719 100.544 177.255L97.5102 174.674L95.9933 177.068C96.4416 177.292 96.8589 177.573 97.2344 177.905C97.4966 178.197 97.6376 178.577 97.6284 178.969C97.5737 179.142 97.4779 179.298 97.3492 179.425C97.2205 179.552 97.0627 179.646 96.8896 179.698C96.2001 179.817 95.9933 180.191 95.7963 180.792C95.3727 182.073 94.3582 182.437 93.0383 181.856C92.4276 182.555 91.7085 183.166 92.2404 184.329C92.2509 184.566 92.1991 184.801 92.0902 185.012C91.9814 185.223 91.8192 185.402 91.6199 185.53C91.3485 185.573 91.0709 185.554 90.8081 185.474C90.5453 185.393 90.3042 185.255 90.103 185.067C89.2066 183.787 87.8079 183.265 86.5865 182.506C85.3651 181.747 85.306 181.334 86.0743 180.477C86.6358 180.477 87.0593 180.477 87.4927 180.477C87.7037 180.46 87.9144 180.512 88.0936 180.624C88.3823 180.875 88.729 181.05 89.1023 181.132C89.4756 181.215 89.8636 181.203 90.231 181.097C91.216 180.989 92.201 181.097 93.186 181.028C93.714 180.866 94.1641 180.516 94.451 180.043C94.7378 179.571 94.8415 179.01 94.7423 178.467C94.607 178.108 94.4983 177.739 94.4173 177.364C94.2794 176.477 93.9642 175.827 92.9792 175.62C92.8657 175.614 92.7554 175.58 92.6579 175.522C92.5603 175.464 92.4784 175.383 92.4192 175.286C92.3601 175.189 92.3254 175.079 92.3183 174.965C92.3112 174.852 92.3318 174.738 92.3783 174.635C92.4768 174.241 92.3192 173.699 91.5214 173.65C91.1175 173.65 90.5364 173.049 90.3492 172.595C90.2296 172.235 90.0018 171.921 89.6968 171.695C89.3918 171.47 89.0245 171.344 88.6452 171.334C88.4585 171.323 88.2828 171.242 88.1527 171.108C87.3154 170.024 86.5077 168.911 85.6902 167.808C85.572 167.66 85.4932 167.394 85.3553 167.364C84.124 167.059 84.3112 165.581 83.3853 165.01C83.3163 164.961 83.3853 164.655 83.3853 164.468C83.4602 163.506 83.2239 162.545 82.7114 161.727C82.1988 160.91 81.4372 160.278 80.5386 159.926C80.3045 159.91 80.0709 159.965 79.8688 160.084C79.1104 160.399 78.3618 160.734 77.6033 161.069C77.4556 161.128 77.1995 161.069 77.1699 161.207C76.7956 162.192 76.1849 161.916 75.653 161.434C74.5203 162.695 73.161 162.419 72.0578 161.148C71.255 160.369 70.2529 159.827 69.1619 159.582C68.63 159.434 67.7927 159.946 67.2904 160.399C66.9949 160.665 66.9949 161.384 67.0441 161.887C67.0941 162.381 66.9829 162.878 66.7273 163.305C66.4717 163.731 66.0854 164.063 65.6257 164.251C64.3319 164.74 62.9459 164.935 61.5675 164.823C61.1243 164.823 60.4545 164.655 60.5825 165.246C59.7748 165.837 59.0656 166.32 58.3958 166.862C56.7607 168.212 56.6425 168.734 57.4108 170.645C56.347 171.364 54.5839 171.197 54.3179 173.147C53.0965 172.517 52.1411 173.147 51.0576 173.817C50.4961 174.191 49.4225 173.817 48.5951 173.699C48.1253 173.59 47.687 173.375 47.3146 173.068C46.2212 172.231 44.9112 172.398 43.6799 172.241C43.4731 172.241 43.2071 172.428 43.0298 172.586C42.3403 173.177 41.8084 172.921 41.5129 172.221C41.2489 171.643 41.1112 171.015 41.1091 170.379C41.1091 168.862 40.656 168.064 39.1391 167.758C38.4117 167.675 37.7257 167.377 37.1691 166.901C36.7641 166.641 36.3178 166.451 35.8492 166.34C36.0856 166.06 36.2966 165.76 36.4796 165.443C36.8342 164.635 37.1494 163.818 37.4646 162.98C37.489 162.859 37.4867 162.733 37.4578 162.612C37.4289 162.491 37.3741 162.378 37.2971 162.281C37.0704 162.071 36.9037 161.804 36.8142 161.507C36.7247 161.211 36.7155 160.897 36.7877 160.596C36.8599 160.295 37.0108 160.019 37.225 159.796C37.4391 159.572 37.7088 159.41 38.0063 159.326C38.617 159.079 39.08 158.34 39.5134 157.769C39.9476 157.15 40.3204 156.49 40.6264 155.799C40.9219 155.148 41.1189 154.449 41.3652 153.828C41.6114 153.208 41.8971 152.479 42.2517 151.563C42.0555 151.003 41.9621 150.412 41.9759 149.819C41.9759 149.513 42.8722 149.129 43.345 149.139C44.0148 149.139 44.6157 149.435 45.2165 148.844C45.3347 148.715 46.2015 148.981 46.3197 149.257C46.5718 149.676 46.9172 150.031 47.329 150.294C47.7408 150.557 48.2078 150.722 48.6936 150.774C49.2439 150.903 49.7504 151.175 50.1612 151.563C51.0084 152.493 52.1236 153.136 53.3526 153.405C53.6678 153.405 53.9338 153.75 54.2391 153.907C54.5445 154.065 54.9779 154.203 55.3325 154.38C55.5761 154.506 55.7988 154.669 55.9924 154.863C56.9183 155.848 57.8935 155.72 58.5239 154.508C58.8785 153.819 59.4301 153.208 59.7157 152.538C60.1294 151.494 60.1688 150.242 60.7697 149.356C61.6365 148.085 61.1735 147.386 60.3166 146.469C60.0703 146.203 60.3166 145.484 60.3166 145.011C60.3579 144.636 60.3224 144.257 60.2123 143.896C60.1023 143.536 59.9199 143.201 59.6763 142.913C59.105 142.302 58.6913 141.573 58.0905 140.943C57.711 140.676 57.2923 140.47 56.8494 140.332C56.8494 140.164 57.007 139.8 57.0661 139.426C57.0645 139.27 57.0344 139.117 56.9774 138.972C56.9774 138.726 56.8001 138.352 56.9085 138.263C57.142 138.141 57.4037 138.083 57.6669 138.096C58.4057 138.007 59.0853 138.825 59.8832 138.273C59.9324 138.273 60.2476 138.5 60.3461 138.677C60.5431 139.031 60.681 139.426 60.8288 139.76L63.2913 140.155C63.2913 139.455 63.2223 138.815 63.2913 138.184C63.3631 137.767 63.4752 137.358 63.6262 136.963C64.3551 137.347 65.3401 137.426 64.6604 138.706L66.8471 139.514C67.2608 139.1 67.4578 138.756 67.7435 138.637C68.2433 138.416 68.7828 138.299 69.3293 138.293C70.4424 138.293 70.8856 137.741 70.9546 136.756C70.9546 136.086 71.3289 135.918 71.9396 135.928C72.5503 135.938 73.4072 135.771 74.146 135.781C74.8659 135.822 75.5828 135.904 76.2933 136.027L75.1408 135.317L76.1258 135.505C75.7811 134.657 76.4607 134.362 76.8941 133.958C77.101 133.771 77.5147 133.712 77.6033 133.505C77.753 132.972 78.0494 132.492 78.4586 132.119C78.8679 131.746 79.3736 131.496 79.9181 131.397C80.877 131.076 81.9142 131.076 82.8731 131.397C83.8088 130.411 83.8581 130.471 85.7296 131.584C86.1683 131.278 86.5685 130.921 86.9214 130.52C86.9995 130.333 87.0396 130.132 87.0396 129.929C87.0396 129.726 86.9995 129.525 86.9214 129.338C87.0381 129.047 87.1175 128.742 87.1578 128.431C87.1235 127.897 87.1235 127.36 87.1578 126.826C87.2563 126.303 87.3942 125.899 86.7835 125.643C86.722 125.597 86.6735 125.535 86.6424 125.464C86.6114 125.394 86.5989 125.316 86.6062 125.239C86.8623 124.254 87.148 123.269 87.4632 122.284C87.4632 122.185 87.7981 122.176 87.9951 122.126C87.8473 121.141 88.2709 120.698 89.3839 120.806C89.7725 120.79 90.1498 120.671 90.4773 120.461C91.0387 120.156 91.5608 119.782 92.1025 119.476L92.4374 119.742L91.0781 123.013L92.4571 123.85L91.0486 124.688L90.891 124.441L90.3 125.801C91.6494 126.067 91.285 126.993 91.0092 128.067L89.3642 127.18L89.0096 127.357L89.5908 129.377C89.9256 129.488 90.2543 129.616 90.5758 129.761C90.8516 129.879 91.3441 130.067 91.3342 130.205C91.2422 130.559 91.0853 130.893 90.8713 131.19C91.3556 131.346 91.8749 131.359 92.3662 131.226C92.8575 131.093 93.2997 130.82 93.6391 130.441C93.76 130.354 93.9042 130.306 94.0528 130.303C94.5847 130.244 95.1265 130.205 95.7372 130.155C95.816 130.49 96.7222 131.022 95.5008 131.446C95.8252 131.811 96.2461 132.076 96.7148 132.212C97.1836 132.348 97.6813 132.349 98.1504 132.214C99.1041 132.041 100.033 131.753 100.918 131.357C102.028 130.902 103.207 130.642 104.405 130.589C104.494 130.589 104.76 130.914 104.76 131.091C104.76 131.613 104.927 132.076 105.469 132.017C105.986 132.016 106.485 131.823 106.868 131.475C107.104 130.99 107.52 130.616 108.028 130.432C108.535 130.249 109.094 130.269 109.586 130.49C109.645 130.359 109.682 130.219 109.695 130.076C109.69 128.878 109.621 127.681 109.488 126.491C109.261 124.885 110.167 123.732 110.946 122.55C111.507 121.713 112.433 121.89 112.965 122.737C113.31 123.299 113.743 123.801 114.098 124.294C115.23 123.9 115.595 123.309 115.299 122.235C115.281 121.564 115.388 120.896 115.614 120.264C115.26 120.264 114.866 120.481 114.629 120.353C114.481 120.254 114.355 120.126 114.256 119.977C114.158 119.828 114.091 119.661 114.058 119.486C113.97 118.787 113.743 117.841 114.058 117.437C114.373 117.033 115.427 116.836 116.156 116.59C116.673 116.459 117.167 116.253 117.624 115.979C118.412 116.117 119.19 116.265 119.988 116.383C120.296 116.408 120.606 116.408 120.914 116.383C121.291 115.779 121.845 115.307 122.501 115.03C123.157 114.753 123.882 114.685 124.578 114.836C123.829 113.91 121.859 114.836 121.879 112.787L113.566 115.289C113.29 114.876 113.093 114.541 112.866 114.225C112.759 114.101 112.628 113.997 112.482 113.92C112.305 113.792 112.118 113.595 111.921 113.585C110.936 113.516 110.591 112.964 110.719 112.058C110.827 111.329 110.985 110.62 111.152 109.704C111.034 108.719 110.857 107.586 110.729 106.394C110.729 106.216 110.926 106.019 111.034 105.842L111.704 104.699H112.423C112.456 104.373 112.575 104.063 112.769 103.799C112.963 103.536 113.225 103.329 113.526 103.202C114.285 102.749 114.669 101.655 115.24 100.867C115.669 100.262 116.161 99.7037 116.708 99.202C116.708 96.6308 114.945 96.6505 113.172 96.9756L111.546 98.2661L111.921 98.9459C111.755 98.9962 111.605 99.0893 111.487 99.216C111.369 99.3426 111.286 99.4982 111.247 99.6671C111.208 99.836 111.214 100.012 111.265 100.178C111.316 100.344 111.41 100.493 111.537 100.611C111.852 101.074 110.936 102.719 110.158 103.074C108.59 103.792 107.256 104.935 106.306 106.374C106.168 106.581 105.814 106.63 105.577 106.758C105.637 107.203 105.603 107.655 105.477 108.086C105.352 108.517 105.138 108.917 104.848 109.26C104.514 109.694 104.701 110.492 104.543 111.093C104.326 111.881 104.711 112.216 105.361 112.442C105.482 112.478 105.591 112.546 105.676 112.639C106.188 113.378 106.661 114.117 107.222 114.905C106.533 114.905 106.641 115.26 106.956 115.536C106.69 115.959 105.873 115.762 106.188 116.639C106.277 116.885 105.41 117.476 104.957 117.939L104.691 117.605L103.243 118.59L101.854 123.959L101.992 124.018L102.908 122.855L103.036 122.924L101.618 126.077L101.47 125.092C101.411 125.092 101.322 125.092 101.312 125.092C100.899 126.008 100.327 126.5 99.234 126.028C99.0582 125.968 98.871 125.952 98.6876 125.979C98.5042 126.006 98.3298 126.076 98.1789 126.184C98.028 126.292 97.9047 126.434 97.8193 126.598C97.7339 126.763 97.6887 126.945 97.6875 127.131C97.6875 127.909 97.3526 128.175 96.6138 128.047C96.0819 127.958 95.55 127.899 95.1462 127.84V125.584L93.9937 127.279L94.1612 127.83L93.3436 128.244L94.1513 128.806L93.7278 129.082L93.7376 129.032ZM128.016 113.27C128.305 112.911 128.447 112.454 128.41 111.994C128.373 111.534 128.162 111.106 127.819 110.797C127.022 110.184 126.167 109.65 125.267 109.201L124.046 110.827L126.193 114.344L128.016 113.27ZM131.798 106.669C131.591 107.241 131.128 107.31 130.439 106.669L130.695 108.482C131.552 108.925 132.665 109.26 132.665 110.6C133.65 110.068 133.719 109.782 133.197 108.975C132.675 108.167 132.212 107.408 131.798 106.699V106.669ZM119.584 118.422C120.126 119.358 120.264 120.393 121.14 121.003L121.505 120.698L120.825 120.304V118.018L119.584 118.422ZM136.684 117.506C137.215 117.863 137.779 118.17 138.368 118.422C138.595 118.491 138.969 118.245 139.205 118.048C139.256 117.96 139.283 117.859 139.283 117.757C139.283 117.655 139.256 117.555 139.205 117.467C138.723 117.112 138.22 116.836 137.659 116.481L137.58 116.738L137.964 117.417L136.684 117.506ZM111.97 182.742L109.773 182.132L109.704 182.398C111.3 183.363 111.3 183.363 111.97 182.742ZM152.414 149.247C153.951 148.085 154.148 147.671 153.645 147.277L152.414 149.247ZM161.279 127.279C159.93 127.446 159.782 127.279 159.969 126.165L159.368 126.264C160.117 127.929 160.619 128.185 161.22 127.318L161.279 127.279Z" fill="#5CB1FF"/>
<path d="M69.6741 112.314L72.9935 113.871L70.0385 117.063C70.0385 116.984 70.0386 117.191 70.0977 117.457H68.4231C68.8175 117.759 69.2286 118.038 69.6544 118.294C70.1123 118.498 70.4812 118.861 70.693 119.315C70.9048 119.769 70.9452 120.285 70.8069 120.767C70.7281 121.269 70.6295 121.752 70.531 122.274C70.4398 122.546 70.4395 122.84 70.5301 123.112C70.6208 123.384 70.7974 123.619 71.0334 123.781C71.2046 123.941 71.3424 124.133 71.4388 124.346C71.5352 124.559 71.5882 124.789 71.5948 125.023C71.5539 125.726 71.4551 126.424 71.2994 127.111C71.27 127.201 71.27 127.297 71.2994 127.387C71.3942 127.549 71.4519 127.73 71.4684 127.917C71.4849 128.104 71.4597 128.293 71.3947 128.469C71.3297 128.645 71.2265 128.804 71.0925 128.936C70.9585 129.067 70.797 129.168 70.6197 129.229C70.8463 129.338 70.9743 129.456 71.0531 129.436C71.4127 129.307 71.806 129.307 72.1655 129.437C72.525 129.566 72.8282 129.817 73.0231 130.145C73.1531 130.354 73.2328 130.589 73.2557 130.833C73.2787 131.078 73.2443 131.324 73.1554 131.552C73.0664 131.781 72.9253 131.986 72.7433 132.15C72.5613 132.315 72.3435 132.435 72.1071 132.5C71.6973 132.638 71.3189 132.855 70.994 133.14C70.2749 133.938 71.3191 133.909 71.5752 134.254C71.191 135.16 69.2505 135.761 68.3148 135.347C67.3792 134.963 66.4222 134.634 65.4485 134.362C65.2318 134.293 64.9165 134.539 64.6703 134.51C64.2667 134.481 63.8738 134.367 63.5178 134.175C63.0612 133.832 62.6299 133.457 62.2275 133.052L61.2425 134.204C60.2575 133.672 59.371 132.431 58.0708 133.82L57.5389 133.012C58.5483 132.544 59.5141 131.987 60.4249 131.347C61.272 130.658 61.9024 131.209 62.651 131.347C63.0988 131.416 63.5567 131.369 63.9808 131.209C63.1829 131.544 62.9958 130.904 62.651 130.48C62.1171 130.016 61.5398 129.604 60.9273 129.249C60.681 129.072 60.4742 128.845 60.2476 128.648C60.4742 128.431 60.6613 128.126 60.9273 128.027C61.6365 127.771 62.3949 127.643 63.0943 127.367C63.3011 127.279 63.3701 126.865 63.4981 126.599C63.2774 126.513 63.0634 126.411 62.8579 126.294C62.6475 126.128 62.4468 125.95 62.257 125.762C63.439 125.436 64.3945 124.53 65.3696 125.702C66.1774 125.23 66.8472 123.9 66.4925 123.18C66.3605 122.973 66.2736 122.74 66.2374 122.497C66.2013 122.254 66.2167 122.005 66.2826 121.769C66.3486 121.532 66.4636 121.311 66.6203 121.122C66.7769 120.932 66.9717 120.778 67.1919 120.668C66.9185 120.759 66.6329 120.809 66.3448 120.816C66.0678 120.737 65.8028 120.621 65.5568 120.471L65.3204 120.727C64.9855 120.59 64.6605 120.55 64.5127 120.373C64.365 120.195 64.3452 119.742 64.4536 119.663C64.9324 119.389 65.3099 118.968 65.5299 118.462C65.75 117.956 65.8009 117.393 65.675 116.856L64.0103 118.117L63.7936 117.841L64.7786 116.964L64.5718 116.856L65.7243 114.777C65.5845 114.679 65.4614 114.56 65.3598 114.423C64.8673 113.723 65.6553 113.516 65.9311 113.201C66.2069 112.886 66.9161 112.521 66.6304 111.694C66.5516 111.497 66.8668 111.014 67.1229 110.817C67.8913 110.245 68.7187 109.743 69.4476 109.25L72.2942 110.236C71.9593 111.654 70.1764 111.29 69.6741 112.314Z" fill="#5CB1FF"/>
<path d="M62.2177 78.8784L63.2026 79.4005L64.1876 77.8933L64.6801 79.0163C64.9855 79.0163 65.5272 78.908 65.8326 79.1149C66.1379 79.3217 66.3743 79.9128 66.6403 80.3463H67.8617L68.758 79.834L69.2899 81.2526L70.1961 81.361V81.5186L69.2111 81.9225C69.2998 82.6515 69.3983 83.4101 69.4771 84.1785C69.2392 84.6736 68.9042 85.1158 68.4921 85.4789C68.2754 85.6267 68.0981 85.8434 67.8912 86.0109C66.7388 86.9369 65.3401 86.3261 64.0694 86.5823C63.7444 86.6414 63.3602 86.3163 62.9958 86.3064C62.2891 86.3261 61.5871 86.1857 60.9423 85.8956C60.2975 85.6056 59.7267 85.1735 59.2725 84.6317C59.2134 84.5627 59.0952 84.4642 59.1149 84.4051C59.5089 82.8978 58.1299 82.5038 57.332 81.6959L57.6768 81.1049C58.0708 81.2625 58.455 81.5482 58.6618 81.4497C58.8687 81.3511 59.0361 80.9078 59.1543 80.5926C59.2725 80.2773 59.3217 79.8734 59.4104 79.5089C58.1988 78.5238 58.1988 78.5238 58.5042 77.9622L60.3363 78.9474L60.2772 78.4253H61.1637L61.3508 77.8342C60.681 77.2332 59.4596 77.381 59.2823 76.12L60.3757 76.0412L60.484 76.4156L61.7252 75.2334L62.0798 76.6027H62.2373L62.3555 75.194C63.6163 75.5979 62.8185 76.5633 63.0943 77.1643C63.705 78.3169 62.2078 78.179 62.2177 78.8784Z" fill="#5CB1FF"/>
<path d="M55.628 118.964C55.6689 118.502 55.7924 118.052 55.9924 117.634C56.3273 117.21 56.7016 117.486 57.0267 117.821C57.6768 118.501 57.6866 118.491 58.9967 117.949L58.5633 117.486L59.962 116.501L60.0211 116.206C61.0061 116.678 62.0502 117.191 63.0451 117.634C63.1361 117.686 63.2149 117.757 63.276 117.842C63.3372 117.927 63.3794 118.024 63.3997 118.127C63.5028 118.824 63.5424 119.53 63.5178 120.235C63.5178 120.668 63.3405 121.22 62.651 121.22C61.735 121.22 61.3706 121.673 61.213 122.668C60.9409 123.578 60.5034 124.429 59.9226 125.18C59.6185 125.603 59.2896 126.008 58.9376 126.392C58.3513 126.126 57.7367 125.928 57.1055 125.801C56.436 125.787 55.7693 125.89 55.1355 126.106C53.6285 126.53 52.7419 126.106 52.279 124.629C52.1697 124.36 52.0345 124.103 51.8752 123.86L53.2148 123.446L52.4957 123.062C53.3566 122.651 54.1951 122.194 55.0074 121.693C55.7363 121.21 55.2537 120.57 55.0074 120.008C54.896 119.787 54.771 119.573 54.6331 119.368C54.8794 119.26 55.1158 119.132 55.3719 119.043C55.4521 119.002 55.5388 118.975 55.628 118.964V118.964Z" fill="#5CB1FF"/>
<path d="M141.027 72.7902C141.185 72.673 141.314 72.5216 141.404 72.3475C141.495 72.1734 141.545 71.9811 141.551 71.7849C141.556 71.5887 141.518 71.3938 141.437 71.2147C141.357 71.0356 141.237 70.8771 141.087 70.751C140.978 70.6327 140.83 70.4456 140.85 70.3175C140.959 69.4604 141.126 68.623 141.264 67.7758C140.683 67.5492 140.082 67.4704 140.614 66.5345C140.829 65.9437 140.8 65.2918 140.535 64.7219C140.318 64.1702 140.801 63.3328 139.914 63.0471C139.935 62.9503 139.961 62.8549 139.993 62.7614C140.456 61.4709 140.919 60.1705 141.362 58.8701C141.398 58.6251 141.398 58.3762 141.362 58.1312C142.525 57.9835 142.82 56.949 143.332 56.1609C143.431 56.0132 143.332 55.7373 143.332 55.5403C143.175 54.9098 143.126 54.2793 143.854 54.0133C144.15 53.9049 144.79 53.9443 144.839 54.1118C145.105 54.6734 145.47 55.4221 145.293 55.9245C144.761 57.3073 144.16 58.6621 143.49 59.9833C143.373 60.1726 143.311 60.3911 143.313 60.6138C143.717 62.5841 143.224 64.5544 143.529 66.5247C143.716 67.7226 143.841 68.9294 143.904 70.1402C144.045 70.8763 144.46 71.5312 145.066 71.9725C145.956 72.585 146.891 73.1284 147.863 73.598C148.11 73.7359 148.346 73.8936 148.651 74.0807C147.755 74.5832 147.066 74.9871 146.366 75.3713C145.978 75.483 145.566 75.4782 145.18 75.3573C144.795 75.2365 144.454 75.0049 144.199 74.6915C144.169 74.5718 144.116 74.4592 144.042 74.3603C143.968 74.2615 143.875 74.1785 143.769 74.116C143.662 74.0536 143.545 74.0131 143.422 73.9969C143.3 73.9807 143.176 73.9891 143.057 74.0216C141.776 74.2778 141.52 74.1005 141.027 72.7902Z" fill="#5CB1FF"/>
<path d="M112.679 53.6291L113.457 52.8804L114.728 53.767L114.984 52.8902L117.594 53.9739C117.313 54.7129 116.935 55.4117 116.471 56.0525C116.117 56.417 115.486 57.0377 114.767 56.1806C114.59 55.9343 114.058 55.9836 113.713 55.8555C113.369 55.7274 112.916 55.4319 113.654 54.8704H112.581C111.95 56.3481 113.684 56.5747 113.989 57.6682C113.736 57.8655 113.458 58.0278 113.162 58.1509C112.591 58.3184 112.62 58.7617 112.413 59.136C112.029 59.9242 112.088 60.929 111.271 61.5694C110.955 61.8156 110.946 62.4264 110.758 62.8599C110.571 63.2934 110.355 63.5692 110.158 63.9239L109.744 63.8352L109.507 62.7515L108.522 60.6926L109.507 60.8108C109.234 60.4718 108.996 60.1054 108.798 59.7173C109.36 59.1952 110.02 58.7321 110.335 58.8208L109.675 58.0524L109.941 57.7076L109.852 58.5056L108.434 58.8405C108.631 57.9145 107.587 57.2544 108.257 56.2693C108.424 56.023 108.109 55.4812 108.129 55.0773C108.129 54.3778 108.483 53.9936 109.281 54.1709C109.616 54.1746 109.949 54.1213 110.266 54.0133L109.714 55.1659L109.911 55.2841L110.483 54.5157L110.827 54.9098L111.448 53.5995L112.344 54.5847L112.679 53.6291Z" fill="#5CB1FF"/>
<path d="M77.1995 169.551C77.8595 170.448 78.4899 170.034 79.0809 169.758C80.1447 169.266 80.3417 169.443 80.5288 170.586C80.8243 172.556 79.5438 174.083 79.5438 176.093L78.3027 175.383L77.7511 176.3L76.4509 175.64C77.2428 173.714 77.5014 171.611 77.1995 169.551V169.551Z" fill="#5CB1FF"/>
<path d="M112.856 191.372V190.387C113.556 190.387 114.235 190.18 114.826 190.87C114.925 190.998 115.23 190.988 115.447 191.008C116.432 191.077 117.368 191.116 118.323 191.225C118.62 191.305 118.903 191.431 119.161 191.599L120.205 191.166C119.968 191.619 119.87 192.052 119.712 192.082C118.52 192.259 117.082 192.83 116.186 192.377C115.063 191.786 113.94 191.934 112.856 191.372Z" fill="#5CB1FF"/>
<path d="M81.504 164.429L80.0659 169.246C78.9035 168.389 78.4406 166.458 79.0217 165.532C79.1845 165.344 79.3958 165.204 79.6324 165.128C80.1841 164.901 80.7455 164.714 81.504 164.429Z" fill="#5CB1FF"/>
<path d="M114.088 58.279L115.959 61.0275L114.472 62.3575V61.5103L113.241 61.6383C114.226 60.5448 113.497 59.668 112.935 58.6139L114.088 58.279Z" fill="#5CB1FF"/>
<path d="M143.982 81.3511C143.559 81.9718 143.254 82.4841 142.879 82.9471C142.791 83.0163 142.689 83.0646 142.58 83.0885C142.471 83.1124 142.358 83.1112 142.249 83.085C142.069 82.9698 141.913 82.8191 141.793 82.642C141.673 82.465 141.59 82.2653 141.549 82.0551C141.509 81.8449 141.512 81.6287 141.557 81.4196C141.603 81.2105 141.691 81.0129 141.815 80.8389C141.915 80.7742 142.027 80.7312 142.144 80.7125C142.261 80.6939 142.381 80.7 142.495 80.7305C143.002 80.9097 143.499 81.1169 143.982 81.3511V81.3511Z" fill="#5CB1FF"/>
<path d="M127.326 51.4618L128.213 50.388L128.055 50.191L126.745 51.2451L126.213 50.9791C126.536 50.6217 126.889 50.2922 127.267 49.994C127.697 49.7641 128.145 49.5697 128.607 49.4127L129.139 49.6984C129.033 50.3437 128.854 50.9749 128.607 51.58C128.498 51.7771 127.878 51.7081 127.484 51.7672L127.326 51.4618Z" fill="#5CB1FF"/>
<path d="M152.503 74.7999C152.337 75.0123 152.122 75.1809 151.876 75.2911C151.63 75.4013 151.361 75.4497 151.092 75.4323C150.823 75.4148 150.562 75.3319 150.333 75.1908C150.103 75.0497 149.911 74.8546 149.774 74.6226C149.705 74.465 150.139 73.8837 150.198 73.9034C150.986 74.1694 151.754 74.5142 152.522 74.8295L152.503 74.7999Z" fill="#5CB1FF"/>
<path d="M132.793 46.5361L133.049 47.1173L133.295 47.1961L133.896 45.6396L134.615 45.9942L133.709 48.3093C133.591 48.3093 132.941 48.4473 132.862 48.3093C132.643 47.7657 132.494 47.1962 132.419 46.6149L132.793 46.5361Z" fill="#5CB1FF"/>
<path d="M65.0151 169.384L65.744 170.497L64.4831 171.581L63.3011 169.798L65.0151 169.384Z" fill="#5CB1FF"/>
<path d="M104.839 123.969C105.026 122.983 104.523 121.831 105.636 121.161C105.833 121.043 106.149 121.161 106.671 121.161L105.114 124.116L104.839 123.969Z" fill="#5CB1FF"/>
<path d="M113.546 118.935C113.782 119.664 113.782 119.664 111.793 120.727L111.29 119.989L112.029 119.644L113.546 118.935Z" fill="#5CB1FF"/>
<path d="M65.3204 110.157C65.5075 108.758 66.4039 108.453 67.5169 108.413C67.645 109.182 67.2411 109.487 65.3204 110.157Z" fill="#5CB1FF"/>
<path d="M106.73 87.528L106.513 87.7152L104.986 88.4343L104.809 88.1683L105.981 86.1981L106.73 87.528Z" fill="#5CB1FF"/>
<path d="M130.596 47.669L132.271 47.7872C131.759 48.3093 131.463 48.861 131.089 48.9201C130.715 48.9792 130.37 48.4768 129.976 48.2009L130.636 47.6394L130.596 47.669Z" fill="#5CB1FF"/>
<path d="M93.7377 129.032C93.3437 129.2 92.9595 129.357 92.5754 129.535C91.7578 129.909 91.6396 129.249 91.4229 128.55L93.7377 129.052V129.032Z" fill="#5CB1FF"/>
<path d="M133.236 48.9004C133.236 49.8067 132.625 49.9644 132.034 50.1417C131.975 50.1417 131.729 49.8757 131.749 49.7772C131.916 48.9989 132.419 48.7625 133.236 48.9004Z" fill="#5CB1FF"/>
<path d="M112.551 119.082L111.674 118.274C112.394 117.417 112.876 117.841 113.388 118.57L112.551 119.082Z" fill="#5CB1FF"/>
<path d="M130.685 47.6394L129.936 47.5704C130.018 47.2708 130.131 46.9804 130.271 46.7035C130.435 46.5333 130.624 46.3903 130.833 46.2799C130.848 46.4602 130.848 46.6414 130.833 46.8217C130.833 47.1074 130.715 47.3833 130.646 47.669L130.685 47.6394Z" fill="#5CB1FF"/>
<path d="M76.6479 107.221C76.047 106.305 76.3031 105.694 77.3669 105.487L76.6479 107.221Z" fill="#5CB1FF"/>
<path d="M213.208 28.8921H6.80156V33.9557H213.208V28.8921Z" fill="#231F20"/>
<path d="M213.198 34.4384H6.80156C6.67094 34.4384 6.54567 34.3865 6.45331 34.2942C6.36095 34.2018 6.30906 34.0765 6.30906 33.9459V28.892C6.30906 28.7614 6.36095 28.6361 6.45331 28.5437C6.54567 28.4514 6.67094 28.3995 6.80156 28.3995H213.198C213.329 28.3995 213.454 28.4514 213.547 28.5437C213.639 28.6361 213.691 28.7614 213.691 28.892V33.9853C213.681 34.109 213.625 34.2243 213.533 34.3084C213.442 34.3924 213.322 34.4388 213.198 34.4384V34.4384ZM7.33345 33.4533H212.716V29.3748H7.28421L7.33345 33.4533Z" fill="#231F20"/>
<path d="M26.918 220.85H20.222L18.836 224H16.982L22.688 211.4H24.47L30.194 224H28.304L26.918 220.85ZM26.288 219.41L23.57 213.236L20.852 219.41H26.288ZM39.7714 214.46L35.5954 224H33.8314L29.6554 214.46H31.4554L34.7314 222.11L38.0794 214.46H39.7714ZM43.0401 216.062C43.3401 215.51 43.7841 215.09 44.3721 214.802C44.9601 214.514 45.6741 214.37 46.5141 214.37V216.044C46.4181 216.032 46.2861 216.026 46.1181 216.026C45.1821 216.026 44.4441 216.308 43.9041 216.872C43.3761 217.424 43.1121 218.216 43.1121 219.248V224H41.3841V214.46H43.0401V216.062ZM57.6589 214.46V224H56.0209V222.56C55.6729 223.052 55.2109 223.436 54.6349 223.712C54.0709 223.976 53.4529 224.108 52.7809 224.108C51.5089 224.108 50.5069 223.76 49.7749 223.064C49.0429 222.356 48.6769 221.318 48.6769 219.95V214.46H50.4049V219.752C50.4049 220.676 50.6269 221.378 51.0709 221.858C51.5149 222.326 52.1509 222.56 52.9789 222.56C53.8909 222.56 54.6109 222.284 55.1389 221.732C55.6669 221.18 55.9309 220.4 55.9309 219.392V214.46H57.6589ZM66.0065 214.37C66.9305 214.37 67.7585 214.574 68.4905 214.982C69.2225 215.39 69.7925 215.96 70.2005 216.692C70.6205 217.424 70.8305 218.27 70.8305 219.23C70.8305 220.19 70.6205 221.042 70.2005 221.786C69.7925 222.518 69.2225 223.088 68.4905 223.496C67.7585 223.904 66.9305 224.108 66.0065 224.108C65.3225 224.108 64.6925 223.976 64.1165 223.712C63.5525 223.448 63.0725 223.064 62.6765 222.56V227.492H60.9485V214.46H62.6045V215.972C62.9885 215.444 63.4745 215.048 64.0625 214.784C64.6505 214.508 65.2985 214.37 66.0065 214.37ZM65.8625 222.596C66.4745 222.596 67.0205 222.458 67.5005 222.182C67.9925 221.894 68.3765 221.498 68.6525 220.994C68.9405 220.478 69.0845 219.89 69.0845 219.23C69.0845 218.57 68.9405 217.988 68.6525 217.484C68.3765 216.968 67.9925 216.572 67.5005 216.296C67.0205 216.02 66.4745 215.882 65.8625 215.882C65.2625 215.882 64.7165 216.026 64.2245 216.314C63.7445 216.59 63.3605 216.98 63.0725 217.484C62.7965 217.988 62.6585 218.57 62.6585 219.23C62.6585 219.89 62.7965 220.478 63.0725 220.994C63.3485 221.498 63.7325 221.894 64.2245 222.182C64.7165 222.458 65.2625 222.596 65.8625 222.596ZM76.6042 214.37C77.9242 214.37 78.9322 214.694 79.6282 215.342C80.3362 215.99 80.6902 216.956 80.6902 218.24V224H79.0522V222.74C78.7642 223.184 78.3502 223.526 77.8102 223.766C77.2822 223.994 76.6522 224.108 75.9202 224.108C74.8522 224.108 73.9942 223.85 73.3462 223.334C72.7102 222.818 72.3922 222.14 72.3922 221.3C72.3922 220.46 72.6982 219.788 73.3102 219.284C73.9222 218.768 74.8942 218.51 76.2262 218.51H78.9622V218.168C78.9622 217.424 78.7462 216.854 78.3142 216.458C77.8822 216.062 77.2462 215.864 76.4062 215.864C75.8422 215.864 75.2902 215.96 74.7502 216.152C74.2102 216.332 73.7542 216.578 73.3822 216.89L72.6622 215.594C73.1542 215.198 73.7422 214.898 74.4262 214.694C75.1102 214.478 75.8362 214.37 76.6042 214.37ZM76.2082 222.776C76.8682 222.776 77.4382 222.632 77.9182 222.344C78.3982 222.044 78.7462 221.624 78.9622 221.084V219.752H76.2982C74.8342 219.752 74.1022 220.244 74.1022 221.228C74.1022 221.708 74.2882 222.086 74.6602 222.362C75.0322 222.638 75.5482 222.776 76.2082 222.776Z" fill="black"/>
</svg>
