<svg width="220" height="246" viewBox="0 0 220 246" fill="none" xmlns="http://www.w3.org/2000/svg">
<path d="M207.013 19.5036H206.924L110 2.11579L13.076 19.4938C12.9454 19.5173 12.8108 19.488 12.7018 19.4122C12.5928 19.3365 12.5184 19.2205 12.4949 19.0899C12.4713 18.9592 12.5007 18.8246 12.5764 18.7156C12.6522 18.6066 12.7681 18.5322 12.8987 18.5086L109.911 1.12079H110.089L207.101 18.5185C207.229 18.5424 207.342 18.6159 207.416 18.723C207.49 18.83 207.518 18.9619 207.495 19.0899C207.479 19.2056 207.42 19.3113 207.332 19.3874C207.243 19.4635 207.13 19.5048 207.013 19.5036Z" fill="#D1D3D4"/>
<path d="M213.208 28.8921H6.80156V235.33H213.208V28.8921Z" fill="white"/>
<path d="M213.198 235.773H6.80155C6.74168 235.774 6.68216 235.764 6.62658 235.741C6.57099 235.719 6.52051 235.686 6.47816 235.643C6.43582 235.601 6.40249 235.55 6.3802 235.495C6.3579 235.439 6.3471 235.38 6.34845 235.32V28.8921C6.3471 28.8322 6.3579 28.7727 6.3802 28.7171C6.40249 28.6615 6.43582 28.611 6.47816 28.5686C6.52051 28.5263 6.57099 28.4929 6.62658 28.4706C6.68216 28.4484 6.74168 28.4375 6.80155 28.4389H213.198C213.258 28.4375 213.318 28.4484 213.373 28.4706C213.429 28.4929 213.479 28.5263 213.522 28.5686C213.564 28.611 213.598 28.6615 213.62 28.7171C213.642 28.7727 213.653 28.8322 213.652 28.8921V235.32C213.653 235.38 213.642 235.439 213.62 235.495C213.598 235.55 213.564 235.601 213.522 235.643C213.479 235.686 213.429 235.719 213.373 235.741C213.318 235.764 213.258 235.774 213.198 235.773ZM7.2448 234.876H212.755V29.3354H7.2448V234.876Z" fill="#231F20"/>
<path d="M218.714 19.011H1.28555V28.8921H218.714V19.011Z" fill="white"/>
<path d="M218.714 29.3354H1.28554C1.16706 29.3354 1.05328 29.289 0.968584 29.2061C0.883889 29.1233 0.835019 29.0105 0.832443 28.892V19.0406C0.832443 18.9204 0.880185 18.8051 0.965157 18.7201C1.05013 18.6351 1.16537 18.5874 1.28554 18.5874H218.714C218.835 18.5874 218.95 18.6351 219.035 18.7201C219.12 18.8051 219.168 18.9204 219.168 19.0406V28.892C219.165 29.0105 219.116 29.1233 219.031 29.2061C218.947 29.289 218.833 29.3354 218.714 29.3354ZM1.73864 28.4389H218.261V19.4543H1.73864V28.4389Z" fill="#231F20"/>
<path d="M218.714 235.32H1.28555V245.201H218.714V235.32Z" fill="white"/>
<path d="M218.714 245.654H1.28554C1.16537 245.654 1.05013 245.606 0.965157 245.521C0.880185 245.436 0.832443 245.321 0.832443 245.201V235.349C0.835019 235.231 0.883889 235.118 0.968584 235.035C1.05328 234.952 1.16706 234.906 1.28554 234.906H218.714C218.833 234.906 218.947 234.952 219.031 235.035C219.116 235.118 219.165 235.231 219.168 235.349V245.201C219.168 245.321 219.12 245.436 219.035 245.521C218.95 245.606 218.835 245.654 218.714 245.654ZM1.73864 244.807H218.261V235.822H1.73864V244.807Z" fill="#231F20"/>
<path d="M110 6.3519C111.73 6.3519 113.132 4.94931 113.132 3.21913C113.132 1.48895 111.73 0.0863647 110 0.0863647C108.27 0.0863647 106.868 1.48895 106.868 3.21913C106.868 4.94931 108.27 6.3519 110 6.3519Z" fill="#D1D3D4"/>
<path d="M89.8961 148.863C89.3938 148.804 88.9111 149.248 88.2512 148.863C89.4332 147.543 89.7779 146.144 88.4777 144.588C87.6503 145.908 87.6504 148.124 85.0204 147.76C87.1874 145.612 87.6897 142.834 88.4482 140.224C87.0692 141.307 86.5669 143.11 84.7643 143.75C83.7793 144.095 83.3656 145.159 82.7943 145.977C82.5678 146.292 82.5185 146.962 81.9571 146.548C81.6025 146.302 81.0706 146.105 81.2873 145.327C81.5926 144.243 80.3023 142.007 79.3173 141.445C78.7755 141.13 78.2534 140.923 78.8149 140.036C79.3763 139.15 77.7117 139.435 77.8299 138.618C77.298 138.421 76.6971 138.618 76.1652 138.362C75.6333 138.105 75.2492 137.376 74.5105 137.859C74.4233 137.925 74.3143 137.954 74.2061 137.941C74.0978 137.928 73.9987 137.874 73.9293 137.79C72.4715 136.125 70.4621 136.677 68.6398 136.47C67.2594 136.416 65.8923 136.758 64.6998 137.455C62.9403 138.475 60.8978 138.896 58.8785 138.657C57.8935 138.47 57.204 139.179 56.4259 139.642C54.7415 140.627 52.5647 140.884 51.9146 143.199C51.7865 143.632 51.097 144.026 50.7424 143.849C49.5308 143.238 48.3686 144.125 47.0684 143.652C45.5121 143.09 43.7391 143.859 42.0547 143.898C41.9743 143.902 41.8959 143.924 41.8257 143.963C41.7555 144.003 41.6956 144.058 41.6509 144.125C40.9121 145.691 39.0209 145.504 37.9177 146.666C36.8145 147.829 32.9927 147.415 31.6531 146.056C31.2493 145.632 30.9144 145.07 30.2741 145.07C29.2399 145.07 29.4566 144.292 29.3975 143.711C29.3384 143.13 29.3974 142.726 30.2347 142.814C30.482 142.795 30.7128 142.682 30.8808 142.5C31.0488 142.317 31.1417 142.078 31.1409 141.829C31.1409 139.662 31.9486 137.455 30.6484 135.347C29.8069 133.972 29.4304 132.362 29.5748 130.756C29.6087 129.846 29.3346 128.95 28.7966 128.215C27.4373 126.097 27.5752 123.289 25.8416 121.378C25.8416 121.378 25.9106 121.141 25.95 121.013C26.3932 120.875 26.344 120.402 26.5508 120.097C26.5752 120.075 26.6043 120.059 26.6358 120.05C26.6673 120.041 26.7003 120.04 26.7326 120.045C26.7648 120.051 26.7953 120.064 26.8218 120.083C26.8484 120.102 26.8702 120.127 26.8857 120.156C27.0532 120.353 27.1911 120.678 27.3881 120.718C27.5851 120.757 27.7525 120.442 27.7821 120.186C27.8881 119.458 27.7119 118.718 27.2896 118.117C25.95 116.147 24.9256 114.176 26.5311 111.832C26.785 111.299 26.8238 110.688 26.6395 110.127C26.4975 109.561 26.483 108.97 26.5971 108.398C26.7113 107.826 26.9511 107.286 27.2994 106.817C27.3782 106.817 27.4176 106.817 27.4373 106.729C27.9003 106.896 27.7624 107.467 28.1071 107.714C28.4224 107.106 28.9474 106.634 29.5846 106.384L30.7568 105.655C30.9649 105.279 31.2466 104.95 31.5851 104.686C31.9236 104.421 32.3119 104.228 32.7268 104.118C33.0223 103.586 33.5936 103.458 34.0467 103.133C34.6377 102.502 35.2779 102.729 35.928 103.034C36.5781 103.34 37.0115 102.886 37.5237 102.709C38.5946 101.651 39.9746 100.961 41.4637 100.739C42.5866 100.483 43.7489 100.493 44.8817 100.276L46.438 99.1823C46.4936 99.0443 46.5776 98.9195 46.6845 98.816C46.7914 98.7125 46.9188 98.6326 47.0585 98.5814L47.4722 97.9706C47.4135 97.7635 47.3978 97.5465 47.4262 97.3331C47.4545 97.1197 47.5263 96.9143 47.637 96.7297C47.7478 96.5451 47.8952 96.3851 48.0701 96.2597C48.2451 96.1342 48.4438 96.046 48.6542 96.0003C49.4521 95.1334 48.8118 94.03 49.0285 93.1434C48.9944 92.8082 49.0627 92.4706 49.2245 92.1751C49.3863 91.8796 49.634 91.6401 49.9347 91.4883C50.3583 90.9958 50.506 90.2372 51.2743 90.0697C51.3418 90.0897 51.4136 90.0897 51.4811 90.0697C52.0525 90.7298 52.1115 91.6361 52.604 92.3553C53.392 91.4292 52.082 90.316 52.8798 89.3998L53.4315 89.3112C53.7861 89.7348 54.4165 89.4195 54.7612 89.6954C54.8303 89.7563 54.9106 89.8031 54.9976 89.8333C55.0044 89.7407 54.9839 89.6482 54.9385 89.5673C54.9325 89.5154 54.9413 89.4628 54.964 89.4157C54.9866 89.3686 55.0222 89.329 55.0665 89.3013C55.1523 89.2509 55.2235 89.1789 55.2729 89.0925C55.3223 89.0061 55.3483 88.9083 55.3483 88.8087C55.3483 88.7092 55.3223 88.6114 55.2729 88.525C55.2235 88.4386 55.1523 88.3666 55.0665 88.3162C54.9782 88.1865 54.9185 88.0394 54.8915 87.8848C54.8645 87.7302 54.8708 87.5716 54.91 87.4196C54.9491 87.2676 55.0202 87.1257 55.1186 87.0034C55.2169 86.8811 55.3402 86.7812 55.4802 86.7104C55.6477 86.3951 56.3076 86.8384 56.2682 86.1882C56.311 86.0977 56.3728 86.0175 56.4492 85.9529C56.5257 85.8883 56.6151 85.8409 56.7115 85.8139C57.8147 86.0011 57.1843 85.3607 57.1055 84.9765C57.1055 84.1687 57.7851 84.3165 58.2383 84.1391C59.5877 83.8731 60.2082 82.4151 61.4986 82.0605C61.9221 81.9423 62.1684 81.8634 62.4147 82.2378C62.5723 82.8289 63.0549 82.4644 63.3997 82.5629C63.8029 82.7873 64.1265 83.1316 64.3256 83.548C64.3256 83.7943 64.3255 84.0702 64.621 84.149C65.0938 84.3953 65.606 84.6219 65.4879 85.3115C65.4152 85.4917 65.3527 85.6759 65.3007 85.8631C65.4287 85.7449 65.4189 85.5577 65.5371 85.4198C65.9705 84.6908 66.6009 84.8977 67.2313 85.0652L67.5071 85.2031C68.0426 85.3522 68.6047 85.3791 69.1521 85.2819C69.6446 84.8189 68.8566 84.947 68.8763 84.7007C68.6399 84.4445 68.3148 84.2376 68.5019 83.8042C68.6891 83.3707 68.433 82.819 69.1422 82.7304C69.4279 82.2674 69.4279 81.6763 69.7726 81.2428C70.6887 80.7995 70.1666 79.4794 71.1023 79.0459C71.979 77.6569 72.9837 76.6619 74.8848 76.9574C76.4903 77.2037 76.8547 76.7801 77.0123 75.2038C77.0948 74.9923 77.2389 74.8104 77.426 74.6817C77.7117 74.5339 78.0958 74.3271 78.3224 74.5241C79.7747 75.5536 81.4743 76.1791 83.2474 76.3368C84.6067 76.5929 85.9168 77.1249 87.345 76.3368C88.0936 75.9329 89.315 77.253 88.9899 78.0706C88.6649 78.8883 88.3201 80.0409 87.3253 80.5138C87.0772 80.6183 86.874 80.807 86.7515 81.0467C86.6289 81.2864 86.595 81.5617 86.6555 81.824C86.6983 82.1792 86.6632 82.5395 86.5526 82.8798C86.442 83.22 86.2587 83.5321 86.0152 83.7943C85.0302 84.8977 85.3553 85.6563 86.5077 86.3163C86.8157 86.5289 87.0854 86.792 87.3056 87.0946C87.8049 87.7231 88.4972 88.1697 89.2756 88.3654C90.1435 88.6352 90.916 89.148 91.5017 89.8431C91.879 90.3012 92.3935 90.6258 92.9694 90.7692C93.7389 90.9934 94.4115 91.4685 94.8802 92.1188C96.5055 94.0891 98.1997 93.8034 99.1847 91.4391C100.22 89.0338 100.753 86.4424 100.751 83.8239C100.801 80.3274 101.51 76.8716 102.839 73.6375C103.056 73.0858 103.332 72.4947 104.041 72.5144C104.75 72.5341 104.927 73.1547 105.026 73.6276C105.405 74.9793 105.711 76.3507 105.942 77.7357C106.011 77.7666 106.068 77.8186 106.105 77.8841C106.142 77.9496 106.157 78.0253 106.149 78.1002C106.137 78.1527 106.142 78.2077 106.163 78.2572C106.184 78.3067 106.221 78.3483 106.267 78.376C107.252 79.7651 106.434 81.4004 106.897 82.8584V83.1737C107.518 83.9618 108.207 83.085 108.867 83.2722C109.666 83.6838 110.309 84.3443 110.699 85.1538L111.044 85.4001C111.832 86.2966 110.827 87.3704 111.349 88.3556C111.317 88.3959 111.299 88.4464 111.299 88.4984C111.299 88.5504 111.317 88.6009 111.349 88.6413C111.714 89.6264 111.793 90.7987 112.541 91.6657C112.167 91.9415 112.098 92.2173 112.541 92.503C112.817 92.6659 113.034 92.9118 113.161 93.2055C113.289 93.4993 113.32 93.8258 113.251 94.1384C113.113 94.9894 113.186 95.8613 113.464 96.6773C113.743 97.4932 114.217 98.2283 114.846 98.8178L115.152 98.9065C116.491 99.7636 117.584 100.985 119.092 101.606C119.397 101.734 119.929 102.01 119.348 102.591C119.042 102.877 119.289 103.261 119.495 103.428C120.727 104.413 120.914 105.793 121.16 107.182C121.308 108.019 121.308 108.009 122.381 107.94C122.904 107.94 124.539 109.329 124.351 109.733C123.583 111.447 125.08 112.531 125.888 113.112C127.228 114.097 127.691 115.447 128.488 116.669C128.676 116.954 128.823 117.181 129.168 117.23C129.68 117.555 129.523 118.068 129.523 118.54C129.523 118.609 129.523 118.678 129.523 118.747C130.104 120.058 129.523 121.388 129.473 122.688C129.457 123.189 129.49 123.691 129.572 124.185C129.671 124.264 129.752 124.363 129.812 124.475C129.871 124.587 129.907 124.709 129.917 124.836C130.636 126.678 129.917 128.313 129.257 130.008C128.163 132.963 127.799 136.125 126.046 138.825C125.336 139.928 124.076 140.361 123.337 141.445C121.859 143.593 121.131 146.154 119.594 148.243C118.51 149.952 117.814 151.879 117.555 153.888C117.493 154.419 117.223 154.904 116.804 155.237C116.385 155.569 115.851 155.722 115.319 155.661C114.316 155.55 113.302 155.67 112.353 156.012C111.403 156.353 110.545 156.907 109.842 157.631C109.305 158.219 108.573 158.592 107.782 158.683C106.991 158.773 106.194 158.575 105.538 158.124C105.538 157.139 104.78 157.818 104.435 157.611C104.37 157.591 104.311 157.557 104.262 157.511C104.212 157.465 104.174 157.408 104.149 157.345C103.992 157.276 104.346 156.646 103.794 157.03C103.742 157.138 103.661 157.23 103.56 157.296C103.46 157.362 103.343 157.399 103.223 157.405C102.21 157.662 101.3 158.222 100.613 159.01C98.3671 158.025 95.7766 158.025 93.7179 156.488C93.4158 156.424 93.1366 156.279 92.9096 156.069C92.6826 155.859 92.5161 155.592 92.4276 155.296L91.7677 154.252C91.6171 153.885 91.5669 153.484 91.6223 153.091C91.6777 152.698 91.8366 152.327 92.0828 152.016V151.691C91.6593 151.366 91.6396 150.853 91.482 150.4L91.0781 149.77L90.6448 149.011C90.8713 149.011 90.9107 148.863 90.8221 148.745C90.5462 148.381 90.231 148.844 89.8961 148.863Z" fill="#5CB1FF"/>
<path d="M118.944 71.0957L118.855 71.0366H118.747C118.641 71.0628 118.532 71.0673 118.424 71.05C118.317 71.0327 118.214 70.9939 118.122 70.936C118.03 70.878 117.951 70.8021 117.889 70.7127C117.827 70.6234 117.784 70.5225 117.762 70.416L117.072 69.4998C116.784 69.3942 116.526 69.218 116.323 68.9875C116.12 68.7569 115.978 68.4792 115.91 68.1797C115.91 67.6674 115.221 68.0615 115.181 67.6182C114.836 66.8202 114.048 66.2488 114.039 65.2932C114.039 64.8696 113.851 64.7021 113.438 64.7514C112.902 64.8078 112.362 64.6977 111.891 64.4362C110 63.3525 108.454 63.6677 107.262 65.5198C106.687 65.7264 106.066 65.7673 105.469 65.638C105.262 65.638 105.469 65.9139 105.469 65.707C105.469 65.5001 105.469 65.6085 105.597 65.6282C105.946 65.6468 106.284 65.7518 106.582 65.9336C106.878 66.7907 107.153 67.6379 105.853 67.9039C105.831 67.8941 105.806 67.8889 105.782 67.8886C105.757 67.8883 105.732 67.8928 105.71 67.902C105.687 67.9111 105.666 67.9247 105.648 67.9419C105.631 67.9592 105.617 67.9797 105.607 68.0024C105.242 68.6723 104.622 68.4556 104.06 68.4654C102.766 68.6093 101.457 68.509 100.199 68.1699C99.9703 67.8463 99.811 67.4787 99.7313 67.0904C99.6516 66.7021 99.6533 66.3015 99.7363 65.9139C100.115 64.4401 100.067 62.889 99.5984 61.4413C99.5434 61.2358 99.5316 61.0211 99.5638 60.8109C99.596 60.6006 99.6715 60.3993 99.7856 60.2197L100.16 58.2494C100.362 56.9172 100.362 55.5622 100.16 54.23C100.235 54.114 100.274 53.9789 100.274 53.8409C100.274 53.7029 100.235 53.5678 100.16 53.4518C100.029 53.2044 99.9602 52.9288 99.9602 52.6489C99.9602 52.3689 100.029 52.0933 100.16 51.846C100.308 50.8928 100.308 49.9225 100.16 48.9693C99.9628 48.8708 99.9628 48.7625 100.16 48.6541C100.357 48.5457 99.8151 48.2206 100.16 48.0039C100.338 47.8513 100.565 47.7674 100.8 47.7674C101.035 47.7674 101.262 47.8513 101.44 48.0039L101.499 48.0926H101.608C102.376 48.3487 103.213 48.4768 103.676 49.2649C103.701 49.3104 103.743 49.3443 103.793 49.359C103.843 49.3738 103.896 49.3683 103.942 49.3437C106.543 49.4718 108.611 50.9298 110.837 52.0923C111.249 52.3491 111.545 52.755 111.665 53.2252C112.08 53.2114 112.486 53.3516 112.804 53.6189C113.122 53.8863 113.33 54.2618 113.388 54.6733C113.664 56.5057 115.063 56.9786 116.452 57.5204C117.033 57.747 117.713 57.8061 118.057 58.5056L118.501 59.3429C118.983 60.269 118.796 60.6729 117.663 60.663C116.166 60.663 115.969 61.0669 116.737 62.3969C116.919 62.6574 117.134 62.8927 117.378 63.0964C118.668 64.1216 119.647 65.4862 120.205 67.0369C120.303 67.4014 120.421 67.7857 120.904 67.7364C121.79 67.6576 122.697 67.4704 122.352 68.9383C122.293 69.1944 122.805 69.3028 123.12 69.3619C123.583 69.4604 124.401 69.155 123.751 70.2781C123.465 70.7608 124.548 70.8593 125.09 70.9972C126.292 71.608 126.39 72.1301 125.425 72.7803C124.036 72.9084 123.179 71.5785 121.869 71.4898C121.613 71.4898 121.357 71.4898 121.101 71.4898C120.382 71.342 119.673 71.1154 118.944 71.0957Z" fill="#5CB1FF"/>
<path d="M120.648 56.6437L121.859 56.7225C122.411 57.0968 122.982 56.624 123.534 56.7225C124.233 57.0574 124.095 55.7373 124.775 56.092C126.233 56.752 128.282 55.5305 128.646 53.7769C128.754 53.2252 128.646 52.5159 129.631 52.7918L130.557 52.5947C130.843 52.841 131.453 52.841 131.207 53.4715C130.961 54.102 131.384 55.097 130.222 55.1266C130.163 55.1266 130.035 55.2743 130.035 55.3433C130.084 55.8457 130.774 56.5353 129.927 56.8013C127.897 57.4417 126.479 59.6779 124.095 59.1854C122.644 58.8139 121.275 58.1758 120.057 57.3037C119.761 56.7225 120.008 56.5156 120.648 56.6437Z" fill="#5CB1FF"/>
<path d="M163.121 103.478C163.761 105.261 165.603 105.862 166.726 107.172C166.992 107.487 167.544 107.714 167.278 108.157C167.012 108.6 166.431 108.295 166.145 108.098C163.909 106.512 161.496 105.083 160.284 102.443C160.208 102.202 160.152 101.955 160.117 101.704L160.954 101.862L161.023 101.941H161.121C161.86 102.079 162.106 102.729 162.52 103.241C162.619 103.507 162.885 103.468 163.121 103.478Z" fill="#5CB1FF"/>
<path d="M195.774 95.1333C195.912 94.7984 196.02 94.4536 196.187 94.1482C196.393 93.778 196.704 93.4779 197.082 93.2865C197.459 93.0951 197.885 93.0212 198.305 93.0744C199.202 93.163 199.29 94.1777 199.625 94.8378L199.014 95.5175C198.029 96.1776 197.094 96.5027 196.128 95.5175L195.774 95.1333Z" fill="#5CB1FF"/>
<path d="M140.535 59.934C140.535 60.2985 140.584 60.7024 140.19 60.9192C138.742 60.6532 137.324 58.6139 137.334 56.7914C138.21 56.22 138.545 57.0278 138.979 57.481C139.387 57.9045 139.69 58.4172 139.865 58.9784L140.535 59.934Z" fill="#5CB1FF"/>
<path d="M70.7379 74.9772C71.7229 74.2581 72.9344 74.8787 74.0081 74.4256C74.3725 74.2679 74.5104 75.056 74.1952 75.4107C73.9936 75.719 73.7171 75.9711 73.3915 76.1434C73.0659 76.3157 72.7019 76.4026 72.3336 76.3958H72.0085L71.8312 76.3072C71.4569 76.1003 71.0629 76.3761 70.6788 76.2481C70.1567 75.9624 70.3734 75.6865 70.6788 75.4008L70.7379 74.9772Z" fill="#5CB1FF"/>
<path d="M151.37 70.1796C151.05 70.0057 150.744 69.8081 150.454 69.5885C150.178 69.3422 149.932 68.9777 150.168 68.6033C150.405 68.229 150.769 68.6033 151.084 68.7018C151.991 68.958 153.173 68.7708 153.301 70.1796C153.056 70.315 152.782 70.386 152.503 70.386C152.224 70.386 151.949 70.315 151.705 70.1796H151.37Z" fill="#5CB1FF"/>
<path d="M168.332 87.7053L168.007 87.0847C168.03 87.0413 168.038 86.9914 168.029 86.9431C168.02 86.8947 167.995 86.8509 167.957 86.8187V84.7893C168.676 85.9813 170.105 86.4838 169.563 88.0403C169.348 88.1119 169.116 88.1184 168.897 88.0588C168.678 87.9992 168.481 87.8762 168.332 87.7053Z" fill="#5CB1FF"/>
<path d="M131.522 51.9642C131.737 51.8885 131.97 51.8799 132.19 51.9398C132.41 51.9996 132.607 52.1249 132.754 52.2991C132.928 52.639 133.019 53.0155 133.019 53.3976C133.019 53.7796 132.928 54.1562 132.754 54.496C131.631 54.6734 132.172 53.6094 131.769 53.235C131.615 53.1281 131.499 52.9748 131.439 52.7975C131.379 52.6202 131.377 52.4283 131.434 52.2499C131.486 52.1633 131.516 52.0652 131.522 51.9642Z" fill="#5CB1FF"/>
<path d="M142.338 61.2344L141.815 60.2493C143.194 60.3478 143.618 61.4413 144.258 62.2984C143.46 62.8698 143.273 61.9339 142.761 61.7171L142.338 61.2344Z" fill="#5CB1FF"/>
<path d="M155.192 71.4208L156.62 72.0218C156.994 72.1893 157.28 72.5341 157.122 72.8789C156.965 73.2237 156.502 73.0365 156.137 72.8789L155.152 72.406C154.946 72.1301 154.64 71.8839 154.808 71.4208H155.192Z" fill="#5CB1FF"/>
<path d="M148.74 63.8057C149.213 64.446 150.286 64.515 150.424 65.638C149.673 65.3926 148.987 64.9819 148.415 64.4362C148.08 64.1997 148.129 63.914 148.523 63.7367C148.553 63.7619 148.588 63.781 148.625 63.7929C148.662 63.8047 148.701 63.809 148.74 63.8057Z" fill="#5CB1FF"/>
<path d="M117.062 46.7922C116.649 46.4277 115.388 47.5015 115.654 45.9745H116.806C117.112 46.0927 117.88 46.1715 117.062 46.7922Z" fill="#5CB1FF"/>
<path d="M77.2586 75.2728C76.7168 74.9181 75.7122 75.4206 75.5447 74.3566L76.8153 74.0118C77.2192 74.2088 77.1502 74.7211 77.4556 74.9969C77.495 75.1841 77.426 75.2728 77.2586 75.2728Z" fill="#5CB1FF"/>
<path d="M126.844 69.4505C126.036 69.6574 125.514 69.5491 125.327 68.7412C125.977 68.4654 126.45 68.7412 126.844 69.4505Z" fill="#5CB1FF"/>
<path d="M171.543 93.9413C172.242 93.3798 172.666 93.4192 172.656 94.4339C172.203 94.4635 171.651 94.6999 171.543 93.9413Z" fill="#5CB1FF"/>
<path d="M168.312 104.719C167.701 104.325 168.017 103.734 168.046 103.251C168.588 103.665 169.011 104.088 168.312 104.719Z" fill="#5CB1FF"/>
<path d="M127.05 70.1697L127.661 71.1549C127.406 71.158 127.154 71.1028 126.923 70.9935C126.693 70.8843 126.49 70.7238 126.331 70.5244C126.43 70.0613 126.745 70.0811 127.05 70.1697Z" fill="#5CB1FF"/>
<path d="M172.419 85.9124C172.419 86.2079 172.479 86.5133 172.498 86.8187C172.448 86.9099 172.418 87.0106 172.41 87.1142C171.651 87.0059 171.651 87.0059 172.419 85.9124Z" fill="#5CB1FF"/>
<path d="M128.971 49.7476C129.424 49.7476 129.956 49.6294 130.143 50.1515C130.252 50.4471 129.808 50.3781 129.601 50.4372C129.365 50.1811 128.863 50.2205 128.971 49.7476Z" fill="#5CB1FF"/>
<path d="M130.833 51.3042C130.931 51.0185 130.281 50.6835 130.744 50.5653C130.961 50.5653 131.512 51.0185 131.503 51.5505C131.237 51.58 130.961 51.6096 130.833 51.3042Z" fill="#5CB1FF"/>
<path d="M77.495 74.9772C77.2966 74.9036 77.1273 74.768 77.012 74.5906C76.8966 74.4131 76.8415 74.2033 76.8548 73.9921C77.0912 73.4503 77.3276 73.5783 77.564 73.9921L77.495 74.9772Z" fill="#5CB1FF"/>
<path d="M132.803 74.9772C133.463 74.7014 133.847 74.9772 134.073 75.6077C133.571 75.5486 133.079 75.4994 132.803 74.9772Z" fill="#5CB1FF"/>
<path d="M169.267 88.7201C169.947 88.4147 169.947 89.0846 170.252 89.3801C170.184 89.4759 170.082 89.5427 169.967 89.5673C169.845 89.5697 169.725 89.5354 169.622 89.4688C169.011 89.4195 169.002 89.1535 169.267 88.7201Z" fill="#5CB1FF"/>
<path d="M131.571 68.2388C131.571 68.0122 131.01 67.8645 131.355 67.6773C131.7 67.4901 132.261 67.6083 132.34 68.2093L131.571 68.2388Z" fill="#5CB1FF"/>
<path d="M169.612 105.438C170.026 105.152 170.292 105.438 170.489 105.714C170.509 105.782 170.511 105.853 170.496 105.922C170.48 105.991 170.447 106.055 170.4 106.108C170.154 106.305 169.927 106.108 169.711 105.97L169.612 105.438Z" fill="#5CB1FF"/>
<path d="M142.397 63.1456C142.505 63.4116 142.869 63.6086 142.653 63.9633C142.617 63.998 142.573 64.0233 142.525 64.0371C142.477 64.0508 142.426 64.0525 142.377 64.0421C141.904 63.8746 142.022 63.4904 142.081 63.1357L142.397 63.1456Z" fill="#5CB1FF"/>
<path d="M158.324 182.467L158.206 182.408H158.078C157.837 182.51 157.575 182.552 157.315 182.532C157.054 182.511 156.802 182.428 156.581 182.289C155.674 181.745 154.671 181.38 153.626 181.215C153.585 181.186 153.538 181.166 153.489 181.156C153.44 181.146 153.389 181.146 153.34 181.156C153.16 181.072 153.005 180.942 152.889 180.78C152.774 180.618 152.702 180.43 152.68 180.232C152.658 180.034 152.688 179.834 152.765 179.651C152.843 179.468 152.966 179.308 153.123 179.186C153.792 178.23 154.614 177.391 155.556 176.704C155.999 176.004 156.866 175.925 157.447 175.413C157.614 175.105 157.844 174.836 158.123 174.624C158.401 174.411 158.722 174.261 159.063 174.182L160.333 173.807C160.668 173.403 161.023 173.039 161.614 173.167L161.939 173.098C162.156 172.763 162.56 172.714 162.924 172.546C164.076 171.265 165.692 170.645 167.041 169.66H167.091C167.81 168.675 168.302 167.502 169.592 167C170.213 166.763 170.371 166.015 170.577 165.433C170.631 165.119 170.796 164.833 171.042 164.629C171.287 164.425 171.598 164.316 171.917 164.32C172.069 164.338 172.216 164.387 172.349 164.463C172.482 164.539 172.598 164.642 172.69 164.764C172.782 164.887 172.848 165.027 172.885 165.176C172.921 165.325 172.927 165.479 172.902 165.63C172.853 166.754 173.503 165.749 173.808 165.847C174.458 165.68 175.049 165.621 175.148 166.537C175.112 166.711 175.118 166.892 175.166 167.063C175.214 167.234 175.302 167.392 175.424 167.522C175.407 167.534 175.394 167.549 175.385 167.567C175.376 167.585 175.371 167.605 175.371 167.625C175.371 167.646 175.376 167.665 175.385 167.683C175.394 167.701 175.407 167.717 175.424 167.729C175.167 168.354 174.777 168.915 174.28 169.373C173.783 169.831 173.191 170.174 172.547 170.379L171.631 171.364C170.43 171.847 170.784 172.96 170.646 173.856C170.592 173.926 170.523 173.982 170.443 174.021C170.364 174.06 170.277 174.08 170.188 174.08C170.1 174.08 170.013 174.06 169.934 174.021C169.854 173.982 169.785 173.926 169.73 173.856H169.08C168.263 174.073 167.593 174.684 166.716 174.743C166.283 175.127 165.485 175.167 165.534 176.004C165.523 176.205 165.468 176.401 165.375 176.58C165.281 176.758 165.151 176.914 164.993 177.038C164.967 177.042 164.942 177.052 164.922 177.068C164.901 177.083 164.885 177.104 164.875 177.128C164.865 177.152 164.861 177.178 164.865 177.204C164.868 177.23 164.878 177.254 164.894 177.275C164.87 177.647 164.738 178.003 164.514 178.301C164.29 178.598 163.984 178.824 163.633 178.95C162.855 179.078 163.249 180.289 162.372 180.319C161.949 180.733 161.653 181.304 161.013 181.462C160.235 182.358 159.25 182.23 158.324 182.467Z" fill="#5CB1FF"/>
<path d="M177.679 167.039C177.798 166.222 176.763 166.645 176.694 166.054C176.921 165.871 177.138 165.677 177.344 165.473C179.423 163.325 179.403 163.059 177 161.424C175.699 160.547 175.699 160.261 177.088 159.621C179.117 158.685 179.64 156.892 179.876 154.912C179.935 154.331 179.738 153.671 180.506 153.385C180.506 153.09 180.506 152.922 180.881 153.04C181.58 152.883 181.541 153.74 182.112 153.907L182.181 152.794C182.279 152.518 182.368 152.242 182.762 152.41C183.156 152.577 183.107 153.05 183.077 153.395C182.989 154.429 182.939 155.365 184.19 155.818C185.441 156.272 186.338 156.656 187.303 155.444C187.471 155.217 187.718 155.061 187.996 155.008C188.273 154.955 188.56 155.009 188.8 155.158C189.529 155.71 188.603 156.035 188.603 156.478C188.603 158.045 186.633 158.311 186.416 159.769C186.416 159.769 185.845 159.769 185.54 159.769C185.112 159.734 184.686 159.863 184.35 160.13C184.013 160.397 183.791 160.782 183.727 161.207C183.383 162.852 179.324 166.763 177.63 167.039L177.561 167.128L177.679 167.039Z" fill="#5CB1FF"/>
<path d="M102.435 166.478C102.701 166.044 101.864 165.64 102.435 165.197C102.503 165.007 102.619 164.838 102.771 164.705C102.924 164.573 103.107 164.481 103.305 164.44C103.502 164.398 103.707 164.408 103.9 164.468C104.092 164.528 104.266 164.637 104.405 164.783C106.375 166.192 108.404 165.581 110.394 164.842C111.379 164.468 111.517 164.724 111.537 165.729C111.537 167.63 110.217 168.95 109.773 170.655C109.717 170.876 109.584 171.072 109.399 171.206C108.62 171.511 107.939 172.022 107.429 172.684C107.334 172.86 107.198 173.011 107.033 173.124C106.867 173.237 106.677 173.309 106.478 173.333C106.28 173.357 106.078 173.333 105.89 173.263C105.703 173.193 105.534 173.079 105.4 172.93C104.12 173.088 104.514 171.817 104.021 171.305C103.708 171.018 103.475 170.655 103.344 170.251C103.212 169.847 103.188 169.416 103.272 169C103.371 168.044 102.12 167.492 102.435 166.478Z" fill="#5CB1FF"/>
<path d="M180.841 153.021L180.467 153.365C179.246 153.474 179.393 152.469 179.167 151.769C179.541 151.1 178.526 151.208 178.586 150.715C178.251 149.888 177.965 149.041 177.601 148.252C177.325 147.701 177.65 147.267 177.66 146.755C178.043 146.772 178.422 146.832 178.792 146.932C179.361 147.066 179.862 147.403 180.199 147.881C180.537 148.358 180.688 148.942 180.625 149.523C180.575 150.627 180.004 151.937 180.841 153.021Z" fill="#5CB1FF"/>
<path d="M175.01 166.507C174.672 166.109 174.191 165.861 173.67 165.818C173.942 165.597 174.253 165.43 174.586 165.325C174.941 165.325 175.473 164.951 175.69 165.463C175.906 165.975 175.493 166.3 175.01 166.507Z" fill="#5CB1FF"/>
<path d="M129.838 117.132L130.557 116.147C130.594 116.638 130.526 117.131 130.356 117.593C130.186 118.056 129.918 118.476 129.572 118.826C129.439 118.55 129.393 118.24 129.44 117.937C129.488 117.635 129.627 117.354 129.838 117.132Z" fill="#5CB1FF"/>
<path d="M178.586 150.715C178.723 151.375 179.896 150.4 179.827 151.543C179.777 152.449 179.265 151.375 179.167 151.769C178.967 151.683 178.802 151.532 178.696 151.341C178.591 151.151 178.552 150.931 178.586 150.715Z" fill="#5CB1FF"/>
<path d="M110.985 161.473C111.546 162.035 112.088 162.222 111.97 162.872C111.97 162.941 111.675 163.02 111.576 162.971C111.074 162.754 110.906 162.37 110.985 161.473Z" fill="#5CB1FF"/>
<path d="M177.138 145.1C177.453 145.1 177.61 145.238 177.591 145.573C177.571 145.908 177.482 145.996 177.226 145.849C176.97 145.701 176.665 145.79 176.684 145.425C176.704 145.061 176.98 145.149 177.138 145.1Z" fill="#5CB1FF"/>
<path d="M109.429 171.039C109.417 170.994 109.415 170.947 109.423 170.902C109.431 170.856 109.449 170.813 109.475 170.774C109.501 170.736 109.535 170.704 109.575 170.68C109.614 170.656 109.659 170.641 109.705 170.635L109.852 171.285L109.724 171.807C109.33 172.329 109.005 172.024 108.838 171.66C108.582 171.098 109.173 171.197 109.429 171.039Z" fill="#5CB1FF"/>
<path d="M101.135 162.636C101.131 162.586 101.131 162.537 101.135 162.488C101.135 162.094 100.948 161.631 101.47 161.424C101.519 161.417 101.569 161.422 101.615 161.439C101.662 161.456 101.703 161.485 101.736 161.522C101.815 162.025 101.736 162.508 101.165 162.636H101.135Z" fill="#5CB1FF"/>
<path d="M112.275 163.404C112.197 163.897 111.743 164.163 111.527 163.995C111.133 163.69 111.586 163.493 111.842 163.365C111.97 163.315 112.128 163.384 112.275 163.404Z" fill="#5CB1FF"/>
<path d="M129.838 117.132C129.607 117.661 129.518 118.242 129.582 118.816C128.981 118.412 129.444 117.772 129.227 117.279L129.838 117.132Z" fill="#5CB1FF"/>
<path d="M129.956 124.895C129.7 124.747 129.523 124.57 129.611 124.244C129.907 124.382 130.153 123.752 130.38 124.136C130.458 124.264 130.114 124.619 129.956 124.895Z" fill="#5CB1FF"/>
<path d="M182.723 152.39L182.141 152.774C182.23 152.459 181.905 151.986 182.26 151.789C182.614 151.592 182.673 152.104 182.723 152.39Z" fill="#5CB1FF"/>
<path d="M85.5031 150.233C85.0303 150.164 84.1438 150.617 84.2127 149.72C84.2817 148.824 85.2568 149.06 85.897 148.952C86.5373 148.844 87.0889 148.952 87.0298 149.651C86.9313 150.607 86.0743 150.085 85.5031 150.233Z" fill="#5CB1FF"/>
<path d="M25.5855 120.442C24.6005 119.91 24.6005 119.91 25.9401 119.033C26.1239 119.24 26.2285 119.505 26.2356 119.782C26.1765 120.156 26.1174 120.53 25.5855 120.442Z" fill="#5CB1FF"/>
<path d="M25.5855 120.442C25.7114 120.377 25.8146 120.275 25.8814 120.15C25.9482 120.025 25.9756 119.883 25.9598 119.742C26.3144 119.614 26.4819 119.861 26.6493 120.097C26.472 120.491 27.0827 120.993 26.5016 121.299C26.4031 121.348 26.1273 121.092 25.9401 120.974L25.5855 120.442Z" fill="#5CB1FF"/>
<path d="M26.6493 120.097L25.9598 119.742V119.033C26.7281 119.033 26.6591 119.693 26.9448 120.117H26.8266L26.6493 120.097Z" fill="#5CB1FF"/>
<path d="M153.921 66.968C154.208 67.1975 154.419 67.5085 154.527 67.8601C154.634 68.2118 154.632 68.5876 154.522 68.9383C154.267 68.8328 154.043 68.6645 153.871 68.4492C153.699 68.2339 153.584 67.9786 153.537 67.7069C153.429 67.2931 153.34 66.9385 153.921 66.968Z" fill="#5CB1FF"/>
<path d="M153.921 66.968C153.616 67.1059 153.645 67.4113 153.567 67.6576L152.936 65.5099C154.049 65.6085 153.961 66.3079 153.921 66.968Z" fill="#5CB1FF"/>
<path d="M145.401 65.5789C145.141 65.6128 144.876 65.5758 144.635 65.4717C144.394 65.3677 144.186 65.2005 144.032 64.9878C144.032 64.9189 144.229 64.5544 144.357 64.5347C145.135 64.4559 145.007 65.2637 145.342 65.6085L145.401 65.5789Z" fill="#5CB1FF"/>
<path d="M146.947 62.7319C147.174 62.8402 147.479 62.9092 147.44 63.2441C147.44 63.3033 147.144 63.4215 147.075 63.3821C146.904 63.2741 146.77 63.1159 146.691 62.9289C146.622 62.7614 146.731 62.6334 146.947 62.7319Z" fill="#5CB1FF"/>
<path d="M145.371 65.6085C145.402 65.6502 145.425 65.6968 145.44 65.7464C145.519 66.17 146.356 65.8745 146.189 66.5247C146.159 66.5647 146.121 66.5972 146.076 66.6195C146.032 66.6417 145.983 66.6531 145.933 66.6527C145.821 66.6264 145.717 66.5758 145.628 66.5046C145.538 66.4334 145.465 66.3434 145.415 66.2408C145.364 66.1383 145.336 66.0258 145.334 65.9114C145.331 65.797 145.354 65.6835 145.401 65.5789L145.371 65.6085Z" fill="#5CB1FF"/>
<path d="M87.0889 87.4492C87.2933 87.3818 87.5103 87.3611 87.7238 87.3887C87.9373 87.4163 88.1419 87.4915 88.3225 87.6088C88.503 87.726 88.655 87.8823 88.7671 88.0661C88.8792 88.2499 88.9486 88.4566 88.9702 88.6708C87.9064 88.9171 87.6306 87.9714 87.0889 87.4492Z" fill="#5CB1FF"/>
<path d="M65.2515 85.5085L65.5863 85.8139C65.5273 86.2079 65.6356 86.671 65.1332 86.9074C64.9658 86.4148 64.7885 85.9419 65.2515 85.5085Z" fill="#5CB1FF"/>
<path d="M56.6524 86.139C56.7509 85.7449 57.3911 85.735 57.3123 85.1538C57.4896 85.4592 57.8738 85.9518 57.8048 86.0306C57.4995 86.4247 57.0464 86.07 56.6524 86.139Z" fill="#5CB1FF"/>
<path d="M69.1915 85.5774L69.1225 84.5923C69.2998 84.9568 69.9007 84.9371 69.9007 85.4198C69.9007 85.4789 69.4377 85.5282 69.1915 85.5774Z" fill="#5CB1FF"/>
<path d="M54.7218 90.05L55.1454 89.6559C55.3818 89.8037 55.8349 90.0303 55.6576 90.2372C55.5882 90.2981 55.5057 90.3421 55.4166 90.366C55.3274 90.3898 55.234 90.3928 55.1435 90.3747C55.053 90.3566 54.9679 90.3179 54.8947 90.2616C54.8216 90.2053 54.7624 90.1329 54.7218 90.05Z" fill="#5CB1FF"/>
<path d="M88.0641 81.9423C89.2067 82.0211 88.0641 82.9274 88.6452 83.3806C89.0294 83.7155 88.3497 83.6072 88.1724 83.617C87.6208 83.617 87.3253 83.4101 87.3647 82.7796C87.4041 82.1491 87.7587 82.0999 88.0641 81.9423Z" fill="#5CB1FF"/>
<path d="M107.124 65.3622C107.528 65.5199 107.311 65.7957 107.212 66.0026C107.035 66.3671 106.789 66.1109 106.572 66.0026C105.981 66.2193 105.587 65.8154 104.967 65.3425L107.124 65.3622Z" fill="#5CB1FF"/>
<path d="M114.137 65.0962L113.487 64.4657C113.802 64.3771 114.137 64.0618 114.403 64.4657C114.58 64.8007 114.383 64.9682 114.137 65.0962Z" fill="#5CB1FF"/>
<path d="M200.62 90.3258C201.497 90.4539 202.098 89.5771 202.974 89.6461C202.787 90.848 201.891 91.2519 200.945 91.6164C200.521 91.4686 199.891 92.2469 199.655 91.3996C199.418 90.5524 200.551 90.9268 200.62 90.3258Z" fill="#5CB1FF"/>
<path d="M169.967 90.6017L169.799 89.4097H170.213C170.578 89.6165 170.991 89.8333 170.873 90.3258C170.755 90.8184 170.302 90.6115 169.967 90.6017Z" fill="#5CB1FF"/>
<path d="M172.144 87.597C172.488 87.7054 172.449 87.991 172.449 88.2373C172.449 88.4836 172.331 88.7003 172.085 88.5821C171.838 88.4639 171.888 88.2373 171.868 88.0501C171.848 87.863 171.858 87.6265 172.144 87.597Z" fill="#5CB1FF"/>
<path d="M124.824 47.7774C124.824 47.4523 124.952 47.334 125.189 47.3439C125.425 47.3537 125.839 47.3439 125.977 47.7084C126.002 47.7683 126.01 47.834 126 47.8982C125.99 47.9623 125.963 48.0226 125.921 48.0724C125.88 48.1222 125.825 48.1596 125.764 48.1805C125.702 48.2015 125.636 48.2051 125.573 48.1911C125.299 48.1027 125.045 47.9622 124.824 47.7774Z" fill="#5CB1FF"/>
<path d="M127.228 48.9497C127.137 48.9215 127.053 48.8745 126.981 48.8118C126.91 48.7491 126.852 48.6721 126.812 48.5858C126.772 48.4994 126.751 48.4056 126.75 48.3105C126.748 48.2154 126.767 48.121 126.804 48.0335C126.858 47.9962 126.92 47.9722 126.985 47.9637C127.05 47.9551 127.117 47.9622 127.178 47.9842C127.307 48.1091 127.384 48.2781 127.393 48.4573C127.402 48.6364 127.343 48.8124 127.228 48.9497Z" fill="#5CB1FF"/>
<path d="M72.0479 76.1889C71.5554 76.1889 71.063 76.3268 70.6197 75.982C71.0334 76.4549 71.7918 74.5339 72.0479 76.1889Z" fill="#5CB1FF"/>
<path d="M154.512 183.787C154.808 183.235 154.798 182.595 155.448 182.545C155.724 182.545 155.842 182.841 155.832 183.127C155.822 183.964 155.211 183.728 154.512 183.787Z" fill="#5CB1FF"/>
<path d="M213.208 28.8921H6.80156V33.9557H213.208V28.8921Z" fill="#231F20"/>
<path d="M213.198 34.4384H6.80156C6.67094 34.4384 6.54567 34.3865 6.45331 34.2942C6.36095 34.2018 6.30906 34.0765 6.30906 33.9459V28.892C6.30906 28.7614 6.36095 28.6361 6.45331 28.5437C6.54567 28.4514 6.67094 28.3995 6.80156 28.3995H213.198C213.329 28.3995 213.454 28.4514 213.547 28.5437C213.639 28.6361 213.691 28.7614 213.691 28.892V33.9853C213.681 34.109 213.625 34.2243 213.533 34.3084C213.442 34.3924 213.323 34.4388 213.198 34.4384ZM7.33345 33.4533H212.716V29.3748H7.28421L7.33345 33.4533Z" fill="#231F20"/>
<path d="M26.918 220.85L20.222 220.85L18.836 224L16.982 224L22.688 211.4L24.47 211.4L30.194 224L28.304 224L26.918 220.85ZM26.288 219.41L23.57 213.236L20.852 219.41L26.288 219.41ZM39.7714 214.46L35.5954 224L33.8314 224L29.6554 214.46L31.4554 214.46L34.7314 222.11L38.0794 214.46L39.7714 214.46ZM50.2761 214.46L50.2761 224L48.6381 224L48.6381 222.56C48.2901 223.052 47.8281 223.436 47.2521 223.712C46.6881 223.976 46.0701 224.108 45.3981 224.108C44.1261 224.108 43.1241 223.76 42.3921 223.064C41.6601 222.356 41.2941 221.318 41.2941 219.95L41.2941 214.46L43.0221 214.46L43.0221 219.752C43.0221 220.676 43.2441 221.378 43.6881 221.858C44.1321 222.326 44.7681 222.56 45.5961 222.56C46.5081 222.56 47.2281 222.284 47.7561 221.732C48.2841 221.18 48.5481 220.4 48.5481 219.392L48.5481 214.46L50.2761 214.46ZM56.3017 224.108C55.5217 224.108 54.7717 224.006 54.0517 223.802C53.3317 223.586 52.7677 223.316 52.3597 222.992L53.0797 221.624C53.4997 221.924 54.0097 222.164 54.6097 222.344C55.2097 222.524 55.8157 222.614 56.4277 222.614C57.9397 222.614 58.6957 222.182 58.6957 221.318C58.6957 221.03 58.5937 220.802 58.3897 220.634C58.1857 220.466 57.9277 220.346 57.6157 220.274C57.3157 220.19 56.8837 220.1 56.3197 220.004C55.5517 219.884 54.9217 219.746 54.4297 219.59C53.9497 219.434 53.5357 219.17 53.1877 218.798C52.8397 218.426 52.6657 217.904 52.6657 217.232C52.6657 216.368 53.0257 215.678 53.7457 215.162C54.4657 214.634 55.4317 214.37 56.6437 214.37C57.2797 214.37 57.9157 214.448 58.5517 214.604C59.1877 214.76 59.7097 214.97 60.1177 215.234L59.3797 216.602C58.5997 216.098 57.6817 215.846 56.6257 215.846C55.8937 215.846 55.3357 215.966 54.9517 216.206C54.5677 216.446 54.3757 216.764 54.3757 217.16C54.3757 217.472 54.4837 217.718 54.6997 217.898C54.9157 218.078 55.1797 218.21 55.4917 218.294C55.8157 218.378 56.2657 218.474 56.8417 218.582C57.6097 218.714 58.2277 218.858 58.6957 219.014C59.1757 219.158 59.5837 219.41 59.9197 219.77C60.2557 220.13 60.4237 220.634 60.4237 221.282C60.4237 222.146 60.0517 222.836 59.3077 223.352C58.5757 223.856 57.5737 224.108 56.3017 224.108ZM67.9473 223.442C67.6953 223.658 67.3833 223.826 67.0113 223.946C66.6393 224.054 66.2553 224.108 65.8593 224.108C64.8993 224.108 64.1553 223.85 63.6273 223.334C63.0993 222.818 62.8353 222.08 62.8353 221.12L62.8353 215.882L61.2153 215.882L61.2153 214.46L62.8353 214.46L62.8353 212.372L64.5633 212.372L64.5633 214.46L67.2993 214.46L67.2993 215.882L64.5633 215.882L64.5633 221.048C64.5633 221.564 64.6893 221.96 64.9413 222.236C65.2053 222.512 65.5773 222.65 66.0573 222.65C66.5853 222.65 67.0353 222.5 67.4073 222.2L67.9473 223.442ZM71.6924 216.062C71.9924 215.51 72.4364 215.09 73.0244 214.802C73.6124 214.514 74.3264 214.37 75.1664 214.37L75.1664 216.044C75.0704 216.032 74.9384 216.026 74.7704 216.026C73.8344 216.026 73.0964 216.308 72.5564 216.872C72.0284 217.424 71.7644 218.216 71.7644 219.248L71.7644 224L70.0364 224L70.0364 214.46L71.6924 214.46L71.6924 216.062ZM80.7526 214.37C82.0726 214.37 83.0806 214.694 83.7766 215.342C84.4846 215.99 84.8386 216.956 84.8386 218.24L84.8386 224L83.2006 224L83.2006 222.74C82.9126 223.184 82.4986 223.526 81.9586 223.766C81.4306 223.994 80.8006 224.108 80.0686 224.108C79.0006 224.108 78.1426 223.85 77.4946 223.334C76.8586 222.818 76.5406 222.14 76.5406 221.3C76.5406 220.46 76.8466 219.788 77.4586 219.284C78.0706 218.768 79.0426 218.51 80.3746 218.51L83.1106 218.51L83.1106 218.168C83.1106 217.424 82.8946 216.854 82.4626 216.458C82.0306 216.062 81.3946 215.864 80.5546 215.864C79.9906 215.864 79.4386 215.96 78.8986 216.152C78.3586 216.332 77.9026 216.578 77.5306 216.89L76.8106 215.594C77.3026 215.198 77.8906 214.898 78.5746 214.694C79.2586 214.478 79.9846 214.37 80.7526 214.37ZM80.3566 222.776C81.0166 222.776 81.5866 222.632 82.0666 222.344C82.5466 222.044 82.8946 221.624 83.1106 221.084L83.1106 219.752L80.4466 219.752C78.9826 219.752 78.2506 220.244 78.2506 221.228C78.2506 221.708 78.4366 222.086 78.8086 222.362C79.1806 222.638 79.6966 222.776 80.3566 222.776ZM88.0364 210.644L89.7644 210.644L89.7644 224L88.0364 224L88.0364 210.644ZM101.506 214.46L96.8798 224.954C96.4718 225.926 95.9918 226.61 95.4398 227.006C94.8998 227.402 94.2458 227.6 93.4778 227.6C93.0098 227.6 92.5538 227.522 92.1098 227.366C91.6778 227.222 91.3178 227.006 91.0298 226.718L91.7678 225.422C92.2598 225.89 92.8298 226.124 93.4778 226.124C93.8978 226.124 94.2458 226.01 94.5218 225.782C94.8098 225.566 95.0678 225.188 95.2958 224.648L95.6018 223.982L91.3898 214.46L93.1898 214.46L96.5198 222.092L99.8138 214.46L101.506 214.46ZM106.294 214.37C107.614 214.37 108.622 214.694 109.318 215.342C110.026 215.99 110.38 216.956 110.38 218.24L110.38 224L108.742 224L108.742 222.74C108.454 223.184 108.04 223.526 107.5 223.766C106.972 223.994 106.342 224.108 105.61 224.108C104.542 224.108 103.684 223.85 103.036 223.334C102.4 222.818 102.082 222.14 102.082 221.3C102.082 220.46 102.388 219.788 103 219.284C103.612 218.768 104.584 218.51 105.916 218.51L108.652 218.51L108.652 218.168C108.652 217.424 108.436 216.854 108.004 216.458C107.572 216.062 106.936 215.864 106.096 215.864C105.532 215.864 104.98 215.96 104.44 216.152C103.9 216.332 103.444 216.578 103.072 216.89L102.352 215.594C102.844 215.198 103.432 214.898 104.116 214.694C104.8 214.478 105.526 214.37 106.294 214.37ZM105.898 222.776C106.558 222.776 107.128 222.632 107.608 222.344C108.088 222.044 108.436 221.624 108.652 221.084L108.652 219.752L105.988 219.752C104.524 219.752 103.792 220.244 103.792 221.228C103.792 221.708 103.978 222.086 104.35 222.362C104.722 222.638 105.238 222.776 105.898 222.776Z" fill="black"/>
</svg>
